black-narrow vv(135.8-109.4)-(80.5-100.0)-10.0-0.0-(0.0-0.0).ufo
<glyph name="be-cy.sc" format="1">
  <advance width="1150.28582683"/>
  <outline>
    <contour>
      <point x="544.724992606" y="-144.0" type="move" name="mark0"/>
    </contour>
    <contour>
      <point x="499.091355871" y="746.501573486" type="curve"/>
      <point x="499.091355871" y="1150.03646217" type="line"/>
      <point x="759.841043292" y="1129.28724892" type="line"/>
      <point x="808.141043292" y="920.598372116" type="line"/>
      <point x="989.355812044" y="920.598372116" type="line"/>
      <point x="971.074232318" y="1292.0" type="line"/>
      <point x="53.3607750755" y="1292.0" type="line"/>
      <point x="53.3607750755" y="1153.13011383" type="line"/>
      <point x="172.910760288" y="1127.47455223" type="line"/>
      <point x="172.910760288" y="149.588931198" type="line"/>
      <point x="53.9323548012" y="130.307976227" type="line"/>
      <point x="53.9323548012" y="0.0" type="line"/>
      <point x="346.285007394" y="0.0" type="line" smooth="yes"/>
      <point x="412.866587119" y="0.0"/>
      <point x="660.87241395" y="-14.0"/>
      <point x="697.90241395" y="-14.0" type="curve" smooth="yes"/>
      <point x="936.130044362" y="-14.0"/>
      <point x="1102.99846464" y="133.280954971"/>
      <point x="1102.99846464" y="389.595225143" type="curve" smooth="yes"/>
      <point x="1102.99846464" y="639.625393372"/>
      <point x="972.640834225" y="751.377753601"/>
      <point x="689.95266738" y="751.377753601" type="curve" smooth="yes"/>
      <point x="670.379790932" y="751.377753601"/>
      <point x="507.189239712" y="747.939663544"/>
    </contour>
    <contour>
      <point x="499.091355871" y="136.839717941" type="curve"/>
      <point x="499.091355871" y="615.130113831" type="line"/>
      <point x="502.4116093" y="614.568203888"/>
      <point x="578.133978889" y="618.568203888"/>
      <point x="594.539224924" y="618.568203888" type="curve" smooth="yes"/>
      <point x="718.190521646" y="618.568203888"/>
      <point x="769.339448779" y="549.160282059"/>
      <point x="769.339448779" y="371.033315201" type="curve" smooth="yes"/>
      <point x="769.339448779" y="246.150841141"/>
      <point x="739.434739177" y="120.839717941"/>
      <point x="577.086587119" y="120.839717941" type="curve" smooth="yes"/>
      <point x="531.701341084" y="120.839717941"/>
      <point x="510.928449849" y="130.839717941"/>
    </contour>
  </outline>
</glyph>
<glyph name="che-cy.sc" format="1">
  <advance width="1216.50979093"/>
  <outline>
    <contour>
      <point x="595.015036968" y="1288.40477486" type="move" name="top"/>
    </contour>
    <contour>
      <point x="610.643710672" y="648.0" type="move" name="center"/>
    </contour>
    <contour>
      <point x="1177.47742134" y="0.0" type="move" name="bottomright"/>
    </contour>
    <contour>
      <point x="727.750268217" y="523.692023773" type="curve"/>
      <point x="727.750268217" y="151.588931198" type="line"/>
      <point x="560.20552904" y="130.307976227" type="line"/>
      <point x="560.20552904" y="0.0" type="line"/>
      <point x="1166.1595375" y="0.0" type="line"/>
      <point x="1166.1595375" y="128.120672913" type="line"/>
      <point x="1055.02165366" y="151.588931198" type="line"/>
      <point x="1055.02165366" y="1127.47455223" type="line"/>
      <point x="1165.64032737" y="1153.13011383" type="line"/>
      <point x="1165.64032737" y="1292.0" type="line"/>
      <point x="617.183964101" y="1292.0" type="line"/>
      <point x="617.183964101" y="1153.13011383" type="line"/>
      <point x="727.750268217" y="1128.56820389" type="line"/>
      <point x="727.750268217" y="682.404774857" type="line"/>
      <point x="701.213695885" y="652.217471542"/>
      <point x="651.260297791" y="631.685729828"/>
      <point x="584.421355871" y="631.685729828" type="curve" smooth="yes"/>
      <point x="464.461385445" y="631.685729828"/>
      <point x="443.012175308" y="690.966684799"/>
      <point x="443.012175308" y="909.722192001" type="curve" smooth="yes"/>
      <point x="443.012175308" y="1128.7555072" type="line"/>
      <point x="532.905841618" y="1153.13011383" type="line"/>
      <point x="532.905841618" y="1292.0" type="line"/>
      <point x="32.2302682167" y="1292.0" type="line"/>
      <point x="32.2302682167" y="1153.13011383" type="line"/>
      <point x="114.65" y="1126.56820389" type="line"/>
      <point x="114.65" y="839.130113831" type="line" smooth="yes"/>
      <point x="114.65" y="561.631687317"/>
      <point x="212.969224924" y="449.692023773"/>
      <point x="470.416601907" y="449.692023773" type="curve" smooth="yes"/>
      <point x="554.498703278" y="449.692023773"/>
      <point x="657.015007394" y="471.317417145"/>
    </contour>
  </outline>
</glyph>
<glyph name="cheabkhasian-cy.sc" format="1">
  <advance width="1365.51110244"/>
  <outline>
    <contour>
      <point x="1257.76794299" y="46.0" type="curve"/>
      <point x="1257.66320381" y="343.55876297" type="line"/>
      <point x="1044.76315945" y="356.495279541" type="line"/>
      <point x="1018.5363189" y="247.304829254" type="line"/>
      <point x="990.337376982" y="175.057189484"/>
      <point x="971.388449849" y="111.371459656"/>
      <point x="853.134247105" y="111.371459656" type="curve" smooth="yes"/>
      <point x="717.750595583" y="111.371459656"/>
      <point x="643.385349547" y="297.190450287"/>
      <point x="628.114291467" y="567.130113831" type="curve"/>
      <point x="1297.7605808" y="565.130113831" type="line"/>
      <point x="1306.38216052" y="609.879327087"/>
      <point x="1314.5368997" y="724.749213257"/>
      <point x="1314.5368997" y="802.749213257" type="curve" smooth="yes"/>
      <point x="1305.8105808" y="1167.74606628"/>
      <point x="1080.97318903" y="1306.0"/>
      <point x="851.314768752" y="1306.0" type="curve" smooth="yes"/>
      <point x="591.637928203" y="1306.0"/>
      <point x="343.53633369" y="1106.99685303"/>
      <point x="306.296855336" y="727.311123199" type="curve"/>
      <point x="210.477913416" y="729.311123199"/>
      <point x="231.207406557" y="776.749213257"/>
      <point x="231.207406557" y="816.0" type="curve" smooth="yes"/>
      <point x="231.207406557" y="841.438090057"/>
      <point x="263.045305185" y="929.123819885"/>
      <point x="276.496884911" y="947.311123199" type="curve"/>
      <point x="122.242130946" y="973.685729828" type="line"/>
      <point x="104.532130946" y="961.685729828"/>
      <point x="32.9589567078" y="894.434943085"/>
      <point x="32.9589567078" y="768.44123703" type="curve" smooth="yes"/>
      <point x="32.9589567078" y="640.44123703"/>
      <point x="163.006855336" y="576.066630402"/>
      <point x="303.076855336" y="576.253933716" type="curve"/>
      <point x="319.957913416" y="174.755507202"/>
      <point x="542.299507928" y="-20.0"/>
      <point x="830.127406557" y="-20.0" type="curve" smooth="yes"/>
      <point x="1047.47740656" y="-20.0"/>
      <point x="1173.00952272" y="44.0"/>
    </contour>
    <contour>
      <point x="997.292101372" y="727.311123199" type="curve"/>
      <point x="624.322711742" y="727.311123199" type="line"/>
      <point x="629.61955229" y="1012.7555072"/>
      <point x="687.618464636" y="1144.38090057"/>
      <point x="816.933189026" y="1144.38090057" type="curve" smooth="yes"/>
      <point x="986.031072867" y="1144.38090057"/>
      <point x="990.642623018" y="921.818990631"/>
      <point x="995.005782469" y="777.752360229" type="curve" smooth="yes"/>
      <point x="997.187362195" y="763.250786743"/>
      <point x="995.577362195" y="744.187303314"/>
    </contour>
  </outline>
</glyph>
<glyph name="chedescender-cy.sc" format="1">
  <advance width="1250.68637805"/>
  <outline>
    <contour>
      <point x="1204.7995375" y="151.588931198" type="curve"/>
      <point x="1055.5408638" y="151.588931198" type="line"/>
      <point x="1055.5408638" y="1127.47455223" type="line"/>
      <point x="1166.1595375" y="1153.13011383" type="line"/>
      <point x="1166.1595375" y="1292.0" type="line"/>
      <point x="616.612384376" y="1292.0" type="line"/>
      <point x="616.612384376" y="1153.13011383" type="line"/>
      <point x="728.269478354" y="1128.56820389" type="line"/>
      <point x="728.269478354" y="682.404774857" type="line"/>
      <point x="700.642116159" y="652.217471542"/>
      <point x="650.688718066" y="631.685729828"/>
      <point x="584.940566008" y="631.685729828" type="curve" smooth="yes"/>
      <point x="463.88980572" y="631.685729828"/>
      <point x="443.531385445" y="690.966684799"/>
      <point x="443.531385445" y="909.722192001" type="curve" smooth="yes"/>
      <point x="443.531385445" y="1128.7555072" type="line"/>
      <point x="533.425051756" y="1153.13011383" type="line"/>
      <point x="533.425051756" y="1292.0" type="line"/>
      <point x="32.7494783539" y="1292.0" type="line"/>
      <point x="32.7494783539" y="1153.13011383" type="line"/>
      <point x="115.169210137" y="1126.56820389" type="line"/>
      <point x="115.169210137" y="839.130113831" type="line" smooth="yes"/>
      <point x="115.169210137" y="561.631687317"/>
      <point x="212.397645199" y="449.692023773"/>
      <point x="470.935812044" y="449.692023773" type="curve" smooth="yes"/>
      <point x="553.927123553" y="449.692023773"/>
      <point x="657.534217531" y="471.317417145"/>
      <point x="728.269478354" y="523.692023773" type="curve"/>
      <point x="728.269478354" y="151.588931198" type="line"/>
      <point x="560.724739177" y="130.307976227" type="line"/>
      <point x="560.724739177" y="0.0" type="line"/>
      <point x="940.951072867" y="0.0" type="line"/>
      <point x="964.376870123" y="-55.55876297"/>
      <point x="998.553457243" y="-309.341291428"/>
      <point x="1000.73503697" y="-370.307976227" type="curve"/>
      <point x="1165.64032737" y="-370.307976227" type="line"/>
      <point x="1174.15716791" y="-341.455670395"/>
      <point x="1206.09980572" y="16.6825828552"/>
    </contour>
  </outline>
</glyph>
<glyph name="chekhakassian-cy.sc" format="1">
  <advance width="1219.62505176"/>
  <outline>
    <contour>
      <point x="554.756065473" y="-144.0" type="move" name="mark0"/>
    </contour>
    <contour>
      <point x="802.447674773" y="0.0" type="curve"/>
      <point x="1166.67874764" y="0.0" type="line"/>
      <point x="1166.67874764" y="128.120672913" type="line"/>
      <point x="1055.5408638" y="151.588931198" type="line"/>
      <point x="1055.5408638" y="1127.47455223" type="line"/>
      <point x="1166.1595375" y="1153.13011383" type="line"/>
      <point x="1166.1595375" y="1292.0" type="line"/>
      <point x="616.612384376" y="1292.0" type="line"/>
      <point x="616.612384376" y="1153.13011383" type="line"/>
      <point x="728.269478354" y="1128.56820389" type="line"/>
      <point x="728.269478354" y="682.404774857" type="line"/>
      <point x="700.642116159" y="652.217471542"/>
      <point x="650.688718066" y="631.685729828"/>
      <point x="584.940566008" y="631.685729828" type="curve" smooth="yes"/>
      <point x="463.88980572" y="631.685729828"/>
      <point x="443.531385445" y="690.966684799"/>
      <point x="443.531385445" y="909.722192001" type="curve" smooth="yes"/>
      <point x="443.531385445" y="1128.7555072" type="line"/>
      <point x="533.425051756" y="1153.13011383" type="line"/>
      <point x="533.425051756" y="1292.0" type="line"/>
      <point x="32.7494783539" y="1292.0" type="line"/>
      <point x="32.7494783539" y="1153.13011383" type="line"/>
      <point x="115.169210137" y="1126.56820389" type="line"/>
      <point x="115.169210137" y="839.130113831" type="line" smooth="yes"/>
      <point x="115.169210137" y="561.631687317"/>
      <point x="212.397645199" y="449.692023773"/>
      <point x="470.935812044" y="449.692023773" type="curve" smooth="yes"/>
      <point x="553.927123553" y="449.692023773"/>
      <point x="657.534217531" y="471.317417145"/>
      <point x="728.269478354" y="523.692023773" type="curve"/>
      <point x="728.269478354" y="161.244492798" type="line"/>
      <point x="557.504739177" y="161.244492798" type="line"/>
      <point x="541.142891235" y="-7.64926765442"/>
      <point x="533.25" y="-287.220618515"/>
      <point x="533.25" y="-370.307976227" type="curve"/>
      <point x="706.8816093" y="-370.307976227" type="line"/>
      <point x="714.9316093" y="-324.839717941"/>
      <point x="771.957928203" y="-73.2444927979"/>
    </contour>
  </outline>
</glyph>
<glyph name="cheverticalstroke-cy.sc" format="1">
  <advance width="1298.21429147"/>
  <outline>
    <contour>
      <point x="633.240566008" y="-144.0" type="move" name="mark0"/>
    </contour>
    <contour>
      <point x="807.273189026" y="525.160282059" type="curve"/>
      <point x="807.273189026" y="161.431796112" type="line"/>
      <point x="626.638971495" y="136.682582855" type="line"/>
      <point x="626.638971495" y="0.0" type="line"/>
      <point x="1247.86403804" y="0.0" type="line"/>
      <point x="1247.86403804" y="128.120672913" type="line"/>
      <point x="1133.97299475" y="151.588931198" type="line"/>
      <point x="1133.97299475" y="1127.47455223" type="line"/>
      <point x="1247.86403804" y="1153.13011383" type="line"/>
      <point x="1247.86403804" y="1292.0" type="line"/>
      <point x="679.773457243" y="1292.0" type="line"/>
      <point x="679.773457243" y="1160.59837212" type="line"/>
      <point x="807.273189026" y="1130.7555072" type="line"/>
      <point x="807.273189026" y="683.498426514" type="line"/>
      <point x="789.877406557" y="666.966684799"/>
      <point x="746.464261893" y="651.528594742"/>
      <point x="686.065319972" y="640.247639771" type="curve"/>
      <point x="686.065319972" y="892.217471542" type="line"/>
      <point x="559.12819642" y="892.217471542" type="line"/>
      <point x="559.12819642" y="631.685729828" type="line"/>
      <point x="445.189269286" y="631.498426514"/>
      <point x="442.95980572" y="696.060336456"/>
      <point x="442.95980572" y="909.722192001" type="curve" smooth="yes"/>
      <point x="442.95980572" y="1129.84915886" type="line"/>
      <point x="559.032428738" y="1158.4110688" type="line"/>
      <point x="559.032428738" y="1292.0" type="line"/>
      <point x="36.0218479424" y="1292.0" type="line"/>
      <point x="36.0218479424" y="1158.4110688" type="line"/>
      <point x="116.207630412" y="1133.13011383" type="line"/>
      <point x="116.207630412" y="839.130113831" type="line" smooth="yes"/>
      <point x="116.207630412" y="560.19359726"/>
      <point x="233.537123553" y="449.692023773"/>
      <point x="505.788718066" y="449.692023773" type="curve" smooth="yes"/>
      <point x="522.51266738" y="449.692023773"/>
      <point x="540.275036968" y="449.692023773"/>
      <point x="559.12819642" y="451.692023773" type="curve"/>
      <point x="559.12819642" y="283.939663544" type="line"/>
      <point x="686.065319972" y="283.939663544" type="line"/>
      <point x="686.065319972" y="474.09679863" type="line"/>
      <point x="731.817153127" y="487.190450287"/>
      <point x="776.530566008" y="505.190450287"/>
    </contour>
  </outline>
</glyph>
<glyph name="de-cy.sc" format="1">
  <advance width="1261.63767477"/>
  <outline>
    <contour>
      <point x="1200.01742134" y="151.588931198" type="curve"/>
      <point x="1045.71478354" y="151.588931198" type="line"/>
      <point x="1045.71478354" y="1127.47455223" type="line"/>
      <point x="1195.49715313" y="1153.13011383" type="line"/>
      <point x="1195.49715313" y="1292.0" type="line"/>
      <point x="171.357615624" y="1292.0" type="line"/>
      <point x="171.357615624" y="1153.13011383" type="line"/>
      <point x="333.500775076" y="1127.47455223" type="line"/>
      <point x="333.500775076" y="1078.0" type="line" smooth="yes"/>
      <point x="333.500775076" y="543.649267654"/>
      <point x="222.000789863" y="262.054042511"/>
      <point x="158.429731783" y="151.588931198" type="curve"/>
      <point x="48.4828912346" y="151.588931198" type="line"/>
      <point x="37.5749926064" y="-25.1476941681"/>
      <point x="40.59" y="-294.876180115"/>
      <point x="37.3176304115" y="-374.682582855" type="curve"/>
      <point x="211.520819437" y="-374.682582855" type="line"/>
      <point x="220.6616093" y="-282.561909943"/>
      <point x="267.299239712" y="-39.9032013702"/>
      <point x="301.061355871" y="0.0" type="curve"/>
      <point x="933.987376982" y="0.0" type="line"/>
      <point x="957.932384376" y="-36.9666847992"/>
      <point x="1006.80844985" y="-304.404774857"/>
      <point x="1009.50923971" y="-370.307976227" type="curve"/>
      <point x="1176.0768997" y="-370.307976227" type="line"/>
      <point x="1184.23163887" y="-336.060336456"/>
      <point x="1200.01742134" y="3.97612571716"/>
    </contour>
    <contour>
      <point x="477.161847942" y="1068.0" type="curve"/>
      <point x="477.161847942" y="1147.87932709" type="line"/>
      <point x="720.053398093" y="1147.87932709" type="line"/>
      <point x="721.715767682" y="151.588931198" type="line"/>
      <point x="351.17186273" y="151.588931198" type="line"/>
      <point x="401.134232318" y="277.334997482"/>
      <point x="476.590268217" y="569.027021255"/>
    </contour>
  </outline>
</glyph>
<glyph name="dje-cy.sc" format="1">
  <advance width="1451.77926929"/>
  <outline>
    <contour>
      <point x="536.160268217" y="-144.0" type="move" name="mark0"/>
    </contour>
    <contour>
      <point x="754.304783539" y="681.842864914" type="curve"/>
      <point x="754.304783539" y="1151.13011383" type="line"/>
      <point x="967.745007394" y="1128.56820389" type="line"/>
      <point x="1023.99475396" y="869.782528458" type="line"/>
      <point x="1194.9255734" y="869.782528458" type="line"/>
      <point x="1166.51266738" y="1292.0" type="line"/>
      <point x="64.9449926064" y="1292.0" type="line"/>
      <point x="41.8334128807" y="869.782528458" type="line"/>
      <point x="209.439493141" y="869.782528458" type="line"/>
      <point x="260.025812044" y="1128.56820389" type="line"/>
      <point x="427.13813727" y="1151.13011383" type="line"/>
      <point x="427.13813727" y="161.244492798" type="line"/>
      <point x="203.03391974" y="136.682582855" type="line"/>
      <point x="203.03391974" y="0.0" type="line"/>
      <point x="966.519537503" y="0.0" type="line"/>
      <point x="966.519537503" y="136.682582855" type="line"/>
      <point x="754.304783539" y="161.431796112" type="line"/>
      <point x="754.304783539" y="525.849158859" type="line"/>
      <point x="780.836870123" y="557.287248917"/>
      <point x="844.093710672" y="586.411068802"/>
      <point x="922.931341084" y="586.411068802" type="curve" smooth="yes"/>
      <point x="1038.37552904" y="586.411068802"/>
      <point x="1083.81763041" y="491.377753601"/>
      <point x="1083.81763041" y="241.160282059" type="curve" smooth="yes"/>
      <point x="1083.81763041" y="-50.3444384003"/>
      <point x="1022.17078986" y="-204.44123703"/>
      <point x="909.84186273" y="-204.44123703" type="curve" smooth="yes"/>
      <point x="818.686840549" y="-204.44123703"/>
      <point x="795.68" y="-190.598372116"/>
      <point x="777.865260823" y="-183.130113831" type="curve"/>
      <point x="792.564739177" y="-328.906348343" type="line"/>
      <point x="818.481847942" y="-340.0"/>
      <point x="871.145007394" y="-362.404774857"/>
      <point x="960.223189026" y="-362.404774857" type="curve" smooth="yes"/>
      <point x="1224.26767477" y="-362.404774857"/>
      <point x="1418.67217531" y="-120.682582855"/>
      <point x="1418.67217531" y="293.063483429" type="curve" smooth="yes"/>
      <point x="1418.67217531" y="651.866739197"/>
      <point x="1239.58213095" y="751.842864914"/>
      <point x="998.762935596" y="751.842864914" type="curve" smooth="yes"/>
      <point x="911.403978889" y="751.842864914"/>
      <point x="789.825036968" y="706.157135086"/>
    </contour>
  </outline>
</glyph>
<glyph name="dzeabkhasian-cy.sc" format="1">
  <advance width="1045.67922492"/>
  <outline>
    <contour>
      <point x="649.554530109" y="765.528594742" type="curve"/>
      <point x="963.547928203" y="1145.28724892" type="line"/>
      <point x="963.547928203" y="1292.0" type="line"/>
      <point x="86.1278690536" y="1292.0" type="line"/>
      <point x="104.409448779" y="909.976125717" type="line"/>
      <point x="295.026855336" y="909.976125717" type="line"/>
      <point x="335.538703278" y="1116.03646217" type="line"/>
      <point x="636.695499465" y="1123.13011383" type="line"/>
      <point x="544.030730714" y="981.360173264"/>
      <point x="475.251087654" y="856.615952454"/>
      <point x="381.652637805" y="714.876180115" type="curve"/>
      <point x="423.879224924" y="622.44123703" type="line"/>
      <point x="448.081594513" y="626.815843658"/>
      <point x="470.621594513" y="626.815843658"/>
      <point x="488.279224924" y="626.815843658" type="curve"/>
      <point x="645.840775076" y="624.471405258"/>
      <point x="649.518644129" y="499.317417145"/>
      <point x="649.518644129" y="378.719045029" type="curve" smooth="yes"/>
      <point x="649.518644129" y="206.501573486"/>
      <point x="560.08733262" y="108.966684799"/>
      <point x="459.347108765" y="108.966684799" type="curve" smooth="yes"/>
      <point x="393.188971495" y="108.966684799"/>
      <point x="355.692130946" y="142.060336456"/>
      <point x="351.019239712" y="156.622246399" type="curve"/>
      <point x="289.939493141" y="407.087357712" type="line"/>
      <point x="111.216035899" y="407.087357712" type="line"/>
      <point x="72.4189271332" y="69.4984265137" type="line"/>
      <point x="127.939985213" y="38.0"/>
      <point x="316.16633369" y="-19.6555615997"/>
      <point x="474.880014787" y="-19.6555615997" type="curve" smooth="yes"/>
      <point x="912.041385445" y="-19.6555615997"/>
      <point x="1008.78503697" y="199.746066284"/>
      <point x="1008.78503697" y="437.528594742" type="curve" smooth="yes"/>
      <point x="1008.78503697" y="618.157135086"/>
      <point x="920.030044362" y="768.247639771"/>
      <point x="696.030566008" y="768.247639771" type="curve" smooth="yes"/>
      <point x="682.945573402" y="768.247639771"/>
      <point x="665.964261893" y="766.247639771"/>
    </contour>
  </outline>
</glyph>
<glyph name="dzhe-cy.sc" format="1">
  <advance width="1322.55134108"/>
  <outline>
    <contour>
      <point x="800.366348477" y="0.0" type="curve"/>
      <point x="1270.74819642" y="0.0" type="line"/>
      <point x="1270.74819642" y="130.307976227" type="line"/>
      <point x="1156.2855734" y="149.588931198" type="line"/>
      <point x="1156.2855734" y="1127.47455223" type="line"/>
      <point x="1268.82846464" y="1153.13011383" type="line"/>
      <point x="1268.82846464" y="1292.0" type="line"/>
      <point x="701.876557545" y="1292.0" type="line"/>
      <point x="701.876557545" y="1153.13011383" type="line"/>
      <point x="832.286557545" y="1127.47455223" type="line"/>
      <point x="832.286557545" y="135.55876297" type="line"/>
      <point x="493.01794299" y="135.55876297" type="line"/>
      <point x="493.01794299" y="1127.47455223" type="line"/>
      <point x="618.231355871" y="1153.13011383" type="line"/>
      <point x="618.231355871" y="1292.0" type="line"/>
      <point x="55.4899852127" y="1292.0" type="line"/>
      <point x="55.4899852127" y="1153.13011383" type="line"/>
      <point x="166.265767682" y="1127.47455223" type="line"/>
      <point x="166.265767682" y="151.588931198" type="line"/>
      <point x="53.413144664" y="130.307976227" type="line"/>
      <point x="53.413144664" y="0.0" type="line"/>
      <point x="517.507615624" y="0.0" type="line"/>
      <point x="531.116304115" y="-23.6857298279"/>
      <point x="568.874992606" y="-248.411068802"/>
      <point x="568.874992606" y="-374.682582855" type="curve"/>
      <point x="752.790551221" y="-374.682582855" type="line"/>
      <point x="752.114232318" y="-251.746066284"/>
      <point x="782.499239712" y="-19.8189906311"/>
    </contour>
  </outline>
</glyph>
<glyph name="e-cy.sc" format="1">
  <advance width="1094.34581204"/>
  <outline>
    <contour>
      <point x="591.414992606" y="0.0" type="move" name="mark0"/>
    </contour>
    <contour>
      <point x="1023.32740656" y="46.0" type="curve"/>
      <point x="1018.33581204" y="369.993706055" type="line"/>
      <point x="838.573934527" y="371.431796112" type="line"/>
      <point x="773.083144664" y="164.809549713" type="line"/>
      <point x="758.492891235" y="145.027021255"/>
      <point x="724.892369588" y="113.55876297"/>
      <point x="639.619224924" y="113.55876297" type="curve" smooth="yes"/>
      <point x="504.964261893" y="113.55876297"/>
      <point x="425.092696954" y="314.876180115"/>
      <point x="407.849537503" y="569.534888687" type="curve"/>
      <point x="795.217645199" y="556.815843658" type="line"/>
      <point x="795.217645199" y="748.779381485" type="line"/>
      <point x="404.577167915" y="734.966684799" type="line"/>
      <point x="417.457167915" y="1051.49842651"/>
      <point x="520.80241395" y="1177.722192"/>
      <point x="662.630551221" y="1177.722192" type="curve" smooth="yes"/>
      <point x="721.100789863" y="1177.722192"/>
      <point x="726.755246036" y="1152.81584366"/>
      <point x="742.541028505" y="1127.90949532" type="curve"/>
      <point x="787.206557545" y="878.350732346" type="line"/>
      <point x="1003.43134108" y="878.350732346" type="line"/>
      <point x="1023.99923971" y="1253.28095497" type="line"/>
      <point x="941.003442455" y="1262.0"/>
      <point x="834.538449849" y="1306.0"/>
      <point x="678.678181632" y="1306.0" type="curve" smooth="yes"/>
      <point x="284.995782469" y="1306.0"/>
      <point x="45.5726230179" y="1061.34129143"/>
      <point x="45.5726230179" y="633.782528458" type="curve" smooth="yes"/>
      <point x="45.5726230179" y="250.0"/>
      <point x="233.785514252" y="-20.0"/>
      <point x="607.519478354" y="-20.0" type="curve" smooth="yes"/>
      <point x="827.627123553" y="-20.0"/>
      <point x="930.828718066" y="40.9063483429"/>
    </contour>
  </outline>
</glyph>
<glyph name="ef-cy.sc" format="1">
  <advance width="1471.22195145"/>
  <outline>
    <contour>
      <point x="739.714530109" y="-144.0" type="move" name="mark0"/>
    </contour>
    <contour>
      <point x="893.040088724" y="1072.47140526" type="curve"/>
      <point x="893.040088724" y="1171.31741714" type="line"/>
      <point x="1009.99402325" y="1198.97297874" type="line"/>
      <point x="1009.99402325" y="1331.28095497" type="line"/>
      <point x="454.683189026" y="1331.28095497" type="line"/>
      <point x="454.683189026" y="1198.97297874" type="line"/>
      <point x="577.091072867" y="1171.31741714" type="line"/>
      <point x="577.091072867" y="1071.3777536" type="line"/>
      <point x="161.48813727" y="1065.59522514"/>
      <point x="35.6552608231" y="898.906348343"/>
      <point x="35.6552608231" y="654.3444384" type="curve" smooth="yes"/>
      <point x="35.6552608231" y="423.220618515"/>
      <point x="114.492891235" y="222.561909943"/>
      <point x="577.091072867" y="231.528594742" type="curve"/>
      <point x="577.091072867" y="118.307976227" type="line"/>
      <point x="455.773978889" y="99.5889311981" type="line"/>
      <point x="455.773978889" y="-36.0" type="line"/>
      <point x="1013.78560298" y="-36.0" type="line"/>
      <point x="1013.78560298" y="100.869886169" type="line"/>
      <point x="893.040088724" y="114.120672913" type="line"/>
      <point x="893.040088724" y="230.247639771" type="line"/>
      <point x="1259.60985008" y="224.0"/>
      <point x="1435.56669063" y="391.752360229"/>
      <point x="1435.56669063" y="644.876180115" type="curve" smooth="yes"/>
      <point x="1435.56669063" y="884.0"/>
      <point x="1361.14458926" y="1076.87618011"/>
    </contour>
    <contour>
      <point x="577.091072867" y="964.006293945" type="curve"/>
      <point x="577.091072867" y="339.431796112" type="line"/>
      <point x="404.315319972" y="367.993706055"/>
      <point x="370.819537503" y="511.498426514"/>
      <point x="370.819537503" y="662.157135086" type="curve" smooth="yes"/>
      <point x="370.819537503" y="839.063483429"/>
      <point x="394.912682167" y="951.474552231"/>
    </contour>
    <contour>
      <point x="893.040088724" y="332.869886169" type="curve"/>
      <point x="893.040088724" y="959.818990631" type="line"/>
      <point x="1070.07426189" y="929.069777374"/>
      <point x="1099.88320381" y="788.815843658"/>
      <point x="1099.88320381" y="642.876180115" type="curve" smooth="yes"/>
      <point x="1099.88320381" y="464.374606628"/>
      <point x="1075.89479833" y="347.401627884"/>
    </contour>
  </outline>
</glyph>
<glyph name="el-cy.sc" format="1">
  <advance width="1272.96004436"/>
  <outline>
    <contour>
      <point x="490.251326296" y="-144.0" type="move" name="mark0"/>
    </contour>
    <contour>
      <point x="492.899746571" y="1018.15713509" type="curve" smooth="yes"/>
      <point x="492.899746571" y="1125.28724892" type="line"/>
      <point x="750.490775076" y="1125.28724892" type="line"/>
      <point x="751.062354801" y="151.588931198" type="line"/>
      <point x="587.828405487" y="130.307976227" type="line"/>
      <point x="587.828405487" y="0.0" type="line"/>
      <point x="1219.80426189" y="0.0" type="line"/>
      <point x="1219.80426189" y="130.307976227" type="line"/>
      <point x="1073.9705808" y="149.588931198" type="line"/>
      <point x="1073.9705808" y="1127.47455223" type="line"/>
      <point x="1214.50742134" y="1153.13011383" type="line"/>
      <point x="1214.50742134" y="1292.0" type="line"/>
      <point x="151.880506859" y="1292.0" type="line"/>
      <point x="151.880506859" y="1153.13011383" type="line"/>
      <point x="352.511043292" y="1127.47455223" type="line"/>
      <point x="352.511043292" y="1074.6222464" type="line" smooth="yes"/>
      <point x="352.511043292" y="594.561909943"/>
      <point x="317.248152058" y="372.120672913"/>
      <point x="271.081847942" y="250.682582855" type="curve"/>
      <point x="243.659478354" y="186.090504684"/>
      <point x="219.561847942" y="173.746066284"/>
      <point x="174.377108765" y="173.746066284" type="curve" smooth="yes"/>
      <point x="123.014217531" y="173.746066284"/>
      <point x="95.2297465706" y="175.55876297"/>
      <point x="51.3407898628" y="179.55876297" type="curve"/>
      <point x="72.4802682167" y="0.0" type="line"/>
      <point x="108.162116159" y="-8.37460662842"/>
      <point x="152.256065473" y="-13.2809549713"/>
      <point x="206.010014787" y="-13.2809549713" type="curve" smooth="yes"/>
      <point x="290.458703278" y="-13.2809549713"/>
      <point x="353.405812044" y="34.5619099426"/>
      <point x="395.213442455" y="128.217471542" type="curve" smooth="yes"/>
      <point x="466.934753964" y="294.966684799"/>
      <point x="492.899746571" y="669.80640274"/>
    </contour>
  </outline>
</glyph>
<glyph name="eldescender-cy.sc" format="1">
  <advance width="1276.38503697"/>
  <outline>
    <contour>
      <point x="1243.9018923" y="151.588931198" type="curve"/>
      <point x="1073.9705808" y="151.588931198" type="line"/>
      <point x="1073.9705808" y="1127.47455223" type="line"/>
      <point x="1214.50742134" y="1153.13011383" type="line"/>
      <point x="1214.50742134" y="1292.0" type="line"/>
      <point x="151.880506859" y="1292.0" type="line"/>
      <point x="151.880506859" y="1153.13011383" type="line"/>
      <point x="352.511043292" y="1127.47455223" type="line"/>
      <point x="352.511043292" y="1074.6222464" type="line" smooth="yes"/>
      <point x="352.511043292" y="594.561909943"/>
      <point x="317.248152058" y="372.120672913"/>
      <point x="271.081847942" y="250.682582855" type="curve"/>
      <point x="243.659478354" y="186.090504684"/>
      <point x="219.561847942" y="173.746066284"/>
      <point x="174.377108765" y="173.746066284" type="curve" smooth="yes"/>
      <point x="123.014217531" y="173.746066284"/>
      <point x="95.2297465706" y="175.55876297"/>
      <point x="51.3407898628" y="179.55876297" type="curve"/>
      <point x="72.4802682167" y="0.0" type="line"/>
      <point x="108.162116159" y="-8.37460662842"/>
      <point x="152.256065473" y="-13.2809549713"/>
      <point x="206.010014787" y="-13.2809549713" type="curve" smooth="yes"/>
      <point x="290.458703278" y="-13.2809549713"/>
      <point x="353.405812044" y="34.5619099426"/>
      <point x="395.213442455" y="128.217471542" type="curve" smooth="yes"/>
      <point x="466.934753964" y="294.966684799"/>
      <point x="492.899746571" y="669.80640274"/>
      <point x="492.899746571" y="1018.15713509" type="curve" smooth="yes"/>
      <point x="492.899746571" y="1125.28724892" type="line"/>
      <point x="750.490775076" y="1125.28724892" type="line"/>
      <point x="751.062354801" y="151.588931198" type="line"/>
      <point x="587.828405487" y="130.307976227" type="line"/>
      <point x="587.828405487" y="0.0" type="line"/>
      <point x="977.871847942" y="0.0" type="line"/>
      <point x="1001.2976452" y="-54.4651113129"/>
      <point x="1035.99344246" y="-308.622246399"/>
      <point x="1037.08423232" y="-370.307976227" type="curve"/>
      <point x="1204.74268217" y="-370.307976227" type="line"/>
      <point x="1212.89742134" y="-336.966684799"/>
      <point x="1243.9018923" y="15.4745522308"/>
    </contour>
  </outline>
</glyph>
<glyph name="elhook-cy.sc" format="1">
  <advance width="1232.65318903"/>
  <outline>
    <contour>
      <point x="1073.9705808" y="478.0" type="curve" smooth="yes"/>
      <point x="1073.9705808" y="1127.47455223" type="line"/>
      <point x="1214.50742134" y="1153.13011383" type="line"/>
      <point x="1214.50742134" y="1292.0" type="line"/>
      <point x="151.880506859" y="1292.0" type="line"/>
      <point x="151.880506859" y="1153.13011383" type="line"/>
      <point x="352.511043292" y="1127.47455223" type="line"/>
      <point x="352.511043292" y="1074.6222464" type="line" smooth="yes"/>
      <point x="352.511043292" y="594.561909943"/>
      <point x="317.248152058" y="372.120672913"/>
      <point x="271.081847942" y="250.682582855" type="curve"/>
      <point x="243.659478354" y="186.090504684"/>
      <point x="219.561847942" y="173.746066284"/>
      <point x="174.377108765" y="173.746066284" type="curve" smooth="yes"/>
      <point x="123.014217531" y="173.746066284"/>
      <point x="95.2297465706" y="175.55876297"/>
      <point x="51.3407898628" y="179.55876297" type="curve"/>
      <point x="72.4802682167" y="0.0" type="line"/>
      <point x="108.162116159" y="-8.37460662842"/>
      <point x="152.256065473" y="-13.2809549713"/>
      <point x="206.010014787" y="-13.2809549713" type="curve" smooth="yes"/>
      <point x="290.458703278" y="-13.2809549713"/>
      <point x="353.405812044" y="34.5619099426"/>
      <point x="395.213442455" y="128.217471542" type="curve" smooth="yes"/>
      <point x="466.934753964" y="294.966684799"/>
      <point x="492.899746571" y="669.80640274"/>
      <point x="492.899746571" y="1018.15713509" type="curve" smooth="yes"/>
      <point x="492.899746571" y="1125.28724892" type="line"/>
      <point x="749.399985213" y="1125.28724892" type="line"/>
      <point x="749.452354801" y="288.387194519" type="line" smooth="yes"/>
      <point x="748.933144664" y="131.160282059"/>
      <point x="734.23366631" y="55.3777536011"/>
      <point x="717.252354801" y="-9.62539337158" type="curve" smooth="yes"/>
      <point x="673.625246036" y="-140.561909943"/>
      <point x="597.488405487" y="-206.719045029"/>
      <point x="534.598152058" y="-234.719045029" type="curve"/>
      <point x="606.014217531" y="-350.839717941" type="line"/>
      <point x="868.409790932" y="-307.528594742"/>
      <point x="1000.68715313" y="-153.782528458"/>
      <point x="1049.14426189" y="20.8761801147" type="curve"/>
      <point x="1069.65979093" y="94.4714052582"/>
      <point x="1073.9705808" y="286.0"/>
    </contour>
  </outline>
</glyph>
<glyph name="eltail-cy.sc" format="1">
  <advance width="1282.04846464"/>
  <outline>
    <contour>
      <point x="510.97633369" y="-144.0" type="move" name="mark0"/>
    </contour>
    <contour>
      <point x="1229.20241395" y="0.0" type="curve"/>
      <point x="1229.20241395" y="147.401627884" type="line"/>
      <point x="1073.9705808" y="147.401627884" type="line"/>
      <point x="1073.9705808" y="1127.47455223" type="line"/>
      <point x="1214.50742134" y="1153.13011383" type="line"/>
      <point x="1214.50742134" y="1292.0" type="line"/>
      <point x="151.880506859" y="1292.0" type="line"/>
      <point x="151.880506859" y="1153.13011383" type="line"/>
      <point x="352.511043292" y="1127.47455223" type="line"/>
      <point x="352.511043292" y="1074.6222464" type="line" smooth="yes"/>
      <point x="352.511043292" y="589.093651657"/>
      <point x="317.248152058" y="374.307976227"/>
      <point x="271.081847942" y="249.588931198" type="curve"/>
      <point x="246.931847942" y="188.465111313"/>
      <point x="222.886587119" y="170.465111313"/>
      <point x="174.377108765" y="170.465111313" type="curve" smooth="yes"/>
      <point x="120.885007394" y="170.465111313"/>
      <point x="94.1389567078" y="174.465111313"/>
      <point x="51.3407898628" y="176.277807999" type="curve"/>
      <point x="72.4802682167" y="0.0" type="line"/>
      <point x="108.162116159" y="-8.37460662842"/>
      <point x="152.256065473" y="-13.2809549713"/>
      <point x="206.010014787" y="-13.2809549713" type="curve" smooth="yes"/>
      <point x="288.277123553" y="-13.2809549713"/>
      <point x="346.861072867" y="34.5619099426"/>
      <point x="388.149493141" y="128.404774857" type="curve" smooth="yes"/>
      <point x="463.610014787" y="300.779381485"/>
      <point x="492.899746571" y="683.087357712"/>
      <point x="492.899746571" y="1018.15713509" type="curve" smooth="yes"/>
      <point x="492.899746571" y="1125.28724892" type="line"/>
      <point x="750.490775076" y="1125.28724892" type="line"/>
      <point x="752.672354801" y="151.588931198" type="line"/>
      <point x="587.828405487" y="130.307976227" type="line"/>
      <point x="587.828405487" y="0.0" type="line"/>
      <point x="985.712369588" y="0.0" type="line"/>
      <point x="968.312101372" y="-64.8397179413"/>
      <point x="920.740789863" y="-255.879327087"/>
      <point x="874.979985213" y="-374.682582855" type="curve"/>
      <point x="1040.92369588" y="-374.682582855" type="line"/>
      <point x="1072.50423232" y="-326.217471542"/>
      <point x="1172.53371067" y="-110.428649139"/>
    </contour>
  </outline>
</glyph>
<glyph name="emtail-cy.sc" format="1">
  <advance width="1661.07029779"/>
  <outline>
    <contour>
      <point x="687.905767682" y="-144.0" type="move" name="mark0"/>
    </contour>
    <contour>
      <point x="1666.59871807" y="0.0" type="curve"/>
      <point x="1666.59871807" y="134.465111313" type="line"/>
      <point x="1544.34794299" y="134.465111313" type="line"/>
      <point x="1407.55031258" y="1127.47455223" type="line"/>
      <point x="1571.35584162" y="1153.13011383" type="line"/>
      <point x="1571.35584162" y="1292.0" type="line"/>
      <point x="980.868912346" y="1292.0" type="line"/>
      <point x="862.161326296" y="540.646120682" type="line"/>
      <point x="840.559493141" y="363.673141937" type="line"/>
      <point x="814.646870123" y="540.646120682" type="line"/>
      <point x="675.476124622" y="1292.0" type="line"/>
      <point x="105.456840549" y="1292.0" type="line"/>
      <point x="105.456840549" y="1153.13011383" type="line"/>
      <point x="244.536304115" y="1127.47455223" type="line"/>
      <point x="124.410253429" y="151.588931198" type="line"/>
      <point x="-1.58421753082" y="130.307976227" type="line"/>
      <point x="-1.58421753082" y="0.0" type="line"/>
      <point x="467.611072867" y="0.0" type="line"/>
      <point x="467.611072867" y="130.307976227" type="line"/>
      <point x="310.764753964" y="151.588931198" type="line"/>
      <point x="369.086855336" y="884.0" type="line"/>
      <point x="387.158956708" y="1175.69202377" type="line"/>
      <point x="436.335782469" y="886.3444384" type="line"/>
      <point x="639.548912346" y="-14.0" type="line"/>
      <point x="903.511087654" y="-14.0" type="line"/>
      <point x="1064.65025343" y="913.069777374" type="line"/>
      <point x="1103.02840549" y="1162.7555072" type="line"/>
      <point x="1130.18892713" y="884.0" type="line"/>
      <point x="1199.20944878" y="151.588931198" type="line"/>
      <point x="1077.11129672" y="130.307976227" type="line"/>
      <point x="1077.11129672" y="0.0" type="line"/>
      <point x="1423.05630412" y="0.0" type="line"/>
      <point x="1406.22761562" y="-79.4317961121"/>
      <point x="1355.38393453" y="-274.471405258"/>
      <point x="1328.16655754" y="-374.682582855" type="curve"/>
      <point x="1492.50026822" y="-374.682582855" type="line"/>
      <point x="1519.09369588" y="-317.123819885"/>
      <point x="1603.4376452" y="-147.769940567"/>
    </contour>
  </outline>
</glyph>
<glyph name="endescender-cy.sc" format="1">
  <advance width="1337.55606547"/>
  <outline>
    <contour>
      <point x="594.682876447" y="-144.0" type="move" name="mark0"/>
    </contour>
    <contour>
      <point x="1325.22634848" y="151.588931198" type="curve"/>
      <point x="1166.35555861" y="151.588931198" type="line"/>
      <point x="1166.35555861" y="1128.56820389" type="line"/>
      <point x="1275.00213095" y="1153.13011383" type="line"/>
      <point x="1275.00213095" y="1292.0" type="line"/>
      <point x="728.3083907" y="1292.0" type="line"/>
      <point x="728.3083907" y="1153.13011383" type="line"/>
      <point x="840.746542757" y="1127.47455223" type="line"/>
      <point x="840.746542757" y="741.341291428" type="line"/>
      <point x="493.537153127" y="741.341291428" type="line"/>
      <point x="493.537153127" y="1128.56820389" type="line"/>
      <point x="615.168464636" y="1153.13011383" type="line"/>
      <point x="615.168464636" y="1292.0" type="line"/>
      <point x="63.073144664" y="1292.0" type="line"/>
      <point x="63.073144664" y="1153.13011383" type="line"/>
      <point x="165.746557545" y="1128.56820389" type="line"/>
      <point x="165.746557545" y="149.588931198" type="line"/>
      <point x="61.5155142525" y="130.307976227" type="line"/>
      <point x="61.5155142525" y="0.0" type="line"/>
      <point x="615.687674773" y="0.0" type="line"/>
      <point x="615.687674773" y="130.307976227" type="line"/>
      <point x="493.537153127" y="149.588931198" type="line"/>
      <point x="493.537153127" y="570.44123703" type="line"/>
      <point x="840.746542757" y="570.44123703" type="line"/>
      <point x="840.746542757" y="151.588931198" type="line"/>
      <point x="727.789180563" y="130.307976227" type="line"/>
      <point x="727.789180563" y="0.0" type="line"/>
      <point x="1059.76788384" y="0.0" type="line"/>
      <point x="1085.89447096" y="-56.0905046844"/>
      <point x="1117.88947835" y="-315.341291428"/>
      <point x="1120.59026822" y="-370.307976227" type="curve"/>
      <point x="1287.1579282" y="-370.307976227" type="line"/>
      <point x="1295.31266738" y="-336.247639771"/>
      <point x="1325.22634848" y="6.35073234558"/>
    </contour>
  </outline>
</glyph>
<glyph name="enghe-cy.sc" format="1">
  <advance width="1586.27263781"/>
  <outline>
    <contour>
      <point x="54.9184054871" y="1292.0" type="line"/>
      <point x="54.9184054871" y="1153.13011383" type="line"/>
      <point x="164.603398093" y="1128.56820389" type="line"/>
      <point x="164.603398093" y="149.588931198" type="line"/>
      <point x="53.9323548012" y="130.307976227" type="line"/>
      <point x="53.9323548012" y="0.0" type="line"/>
      <point x="613.86819642" y="0.0" type="line"/>
      <point x="613.86819642" y="130.307976227" type="line"/>
      <point x="492.965573402" y="151.588931198" type="line"/>
      <point x="492.965573402" y="570.44123703" type="line"/>
      <point x="837.42180358" y="570.44123703" type="line"/>
      <point x="837.42180358" y="151.588931198" type="line"/>
      <point x="727.841550151" y="130.307976227" type="line"/>
      <point x="727.841550151" y="0.0" type="line"/>
      <point x="1296.71318903" y="0.0" type="line"/>
      <point x="1296.71318903" y="130.307976227" type="line"/>
      <point x="1164.1216093" y="151.588931198" type="line"/>
      <point x="1164.1216093" y="1147.84915886" type="line"/>
      <point x="1305.73129672" y="1126.7555072" type="line"/>
      <point x="1375.43262302" y="754.447530975" type="line"/>
      <point x="1553.84186273" y="754.447530975" type="line"/>
      <point x="1525.2239641" y="1292.0" type="line"/>
      <point x="726.231550151" y="1292.0" type="line"/>
      <point x="726.231550151" y="1153.13011383" type="line"/>
      <point x="837.42180358" y="1127.47455223" type="line"/>
      <point x="837.42180358" y="741.341291428" type="line"/>
      <point x="492.965573402" y="741.341291428" type="line"/>
      <point x="492.965573402" y="1127.47455223" type="line"/>
      <point x="613.86819642" y="1153.13011383" type="line"/>
      <point x="613.86819642" y="1292.0" type="line"/>
    </contour>
  </outline>
</glyph>
<glyph name="enhook-cy.sc" format="1">
  <advance width="1303.27473918"/>
  <outline>
    <contour>
      <point x="632.808152058" y="-144.0" type="move" name="mark0"/>
    </contour>
    <contour>
      <point x="1166.35555861" y="483.90320137" type="curve" smooth="yes"/>
      <point x="1166.35555861" y="1127.47455223" type="line"/>
      <point x="1273.80660191" y="1153.13011383" type="line"/>
      <point x="1273.80660191" y="1292.0" type="line"/>
      <point x="728.3083907" y="1292.0" type="line"/>
      <point x="728.3083907" y="1153.13011383" type="line"/>
      <point x="840.746542757" y="1127.47455223" type="line"/>
      <point x="840.746542757" y="741.341291428" type="line"/>
      <point x="493.537153127" y="741.341291428" type="line"/>
      <point x="493.537153127" y="1128.56820389" type="line"/>
      <point x="615.168464636" y="1153.13011383" type="line"/>
      <point x="615.168464636" y="1292.0" type="line"/>
      <point x="63.073144664" y="1292.0" type="line"/>
      <point x="63.073144664" y="1153.13011383" type="line"/>
      <point x="165.746557545" y="1128.56820389" type="line"/>
      <point x="165.746557545" y="149.588931198" type="line"/>
      <point x="61.5155142525" y="130.307976227" type="line"/>
      <point x="61.5155142525" y="0.0" type="line"/>
      <point x="615.687674773" y="0.0" type="line"/>
      <point x="615.687674773" y="130.307976227" type="line"/>
      <point x="493.537153127" y="149.588931198" type="line"/>
      <point x="493.537153127" y="570.44123703" type="line"/>
      <point x="840.22733262" y="570.44123703" type="line"/>
      <point x="840.22733262" y="295.384047546" type="line" smooth="yes"/>
      <point x="840.22733262" y="127.280954971"/>
      <point x="828.228644129" y="29.8428649139"/>
      <point x="813.481281934" y="-31.1904502869" type="curve"/>
      <point x="769.334963032" y="-163.842864914"/>
      <point x="694.236542757" y="-224.936516571"/>
      <point x="617.166021111" y="-260.966684799" type="curve"/>
      <point x="687.54366631" y="-376.712751083" type="line"/>
      <point x="969.625826831" y="-314.622246399"/>
      <point x="1090.89055122" y="-152.09679863"/>
      <point x="1138.25687012" y="-1.03331520081" type="curve"/>
      <point x="1159.23923971" y="67.220618515"/>
      <point x="1166.35555861" y="187.939663544"/>
    </contour>
  </outline>
</glyph>
<glyph name="enlefthook-cy.sc" format="1">
  <advance width="1326.39080465"/>
  <outline>
    <contour>
      <point x="511.766363264" y="478.0" type="curve" smooth="yes"/>
      <point x="511.766363264" y="570.44123703" type="line"/>
      <point x="847.238912346" y="570.44123703" type="line"/>
      <point x="847.238912346" y="150.495279541" type="line"/>
      <point x="734.853129877" y="130.307976227" type="line"/>
      <point x="734.853129877" y="0.0" type="line"/>
      <point x="1276.04055122" y="0.0" type="line"/>
      <point x="1276.04055122" y="130.307976227" type="line"/>
      <point x="1170.66634848" y="148.495279541" type="line"/>
      <point x="1170.66634848" y="1128.56820389" type="line"/>
      <point x="1276.1452904" y="1153.13011383" type="line"/>
      <point x="1276.1452904" y="1292.0" type="line"/>
      <point x="736.463129877" y="1292.0" type="line"/>
      <point x="736.463129877" y="1153.13011383" type="line"/>
      <point x="847.238912346" y="1126.38090057" type="line"/>
      <point x="847.238912346" y="742.434943085" type="line"/>
      <point x="511.766363264" y="742.434943085" type="line"/>
      <point x="511.766363264" y="1128.56820389" type="line"/>
      <point x="634.488464636" y="1153.13011383" type="line"/>
      <point x="634.488464636" y="1292.0" type="line"/>
      <point x="83.4839345268" y="1292.0" type="line"/>
      <point x="83.4839345268" y="1153.13011383" type="line"/>
      <point x="187.24813727" y="1128.56820389" type="line"/>
      <point x="187.24813727" y="288.387194519" type="line" smooth="yes"/>
      <point x="187.24813727" y="142.036462173"/>
      <point x="173.067869054" y="51.5348886871"/>
      <point x="156.65813727" y="-8.34443840027" type="curve" smooth="yes"/>
      <point x="112.459448779" y="-138.561909943"/>
      <point x="35.8033980934" y="-206.719045029"/>
      <point x="-27.086855336" y="-234.719045029" type="curve"/>
      <point x="44.3292101372" y="-350.839717941" type="line"/>
      <point x="301.166095048" y="-306.622246399"/>
      <point x="435.210566008" y="-159.625393372"/>
      <point x="486.368464636" y="18.6888768005" type="curve"/>
      <point x="509.584783539" y="98.6285403442"/>
      <point x="511.766363264" y="286.374606628"/>
    </contour>
  </outline>
</glyph>
<glyph name="entail-cy.sc" format="1">
  <advance width="1326.12895671"/>
  <outline>
    <contour>
      <point x="1309.48844985" y="0.0" type="curve"/>
      <point x="1309.48844985" y="152.869886169" type="line"/>
      <point x="1165.78397889" y="152.869886169" type="line"/>
      <point x="1165.78397889" y="1128.56820389" type="line"/>
      <point x="1277.18371067" y="1153.13011383" type="line"/>
      <point x="1277.18371067" y="1292.0" type="line"/>
      <point x="726.126810974" y="1292.0" type="line"/>
      <point x="726.126810974" y="1153.13011383" type="line"/>
      <point x="838.564963032" y="1127.47455223" type="line"/>
      <point x="838.564963032" y="741.341291428" type="line"/>
      <point x="494.62794299" y="741.341291428" type="line"/>
      <point x="494.62794299" y="1127.47455223" type="line"/>
      <point x="617.350044362" y="1153.13011383" type="line"/>
      <point x="617.350044362" y="1292.0" type="line"/>
      <point x="56.5284054871" y="1292.0" type="line"/>
      <point x="56.5284054871" y="1153.13011383" type="line"/>
      <point x="165.746557545" y="1127.47455223" type="line"/>
      <point x="165.746557545" y="149.588931198" type="line"/>
      <point x="54.9707750755" y="131.401627884" type="line"/>
      <point x="54.9707750755" y="0.0" type="line"/>
      <point x="616.778464636" y="0.0" type="line"/>
      <point x="616.778464636" y="131.401627884" type="line"/>
      <point x="494.62794299" y="151.588931198" type="line"/>
      <point x="494.62794299" y="570.44123703" type="line"/>
      <point x="838.564963032" y="570.44123703" type="line"/>
      <point x="838.564963032" y="151.588931198" type="line"/>
      <point x="727.789180563" y="131.401627884" type="line"/>
      <point x="727.789180563" y="0.0" type="line"/>
      <point x="1073.63393453" y="0.0" type="line"/>
      <point x="1048.39314466" y="-69.3777536011"/>
      <point x="987.675499465" y="-251.184156342"/>
      <point x="944.982071797" y="-367.027021255" type="curve"/>
      <point x="1117.47052165" y="-367.027021255" type="line"/>
      <point x="1146.29789863" y="-311.093651657"/>
      <point x="1261.02685534" y="-102.211177597"/>
    </contour>
  </outline>
</glyph>
<glyph name="ereversed-cy.sc" format="1">
  <advance width="1091.79315945"/>
  <outline>
    <contour>
      <point x="528.258405487" y="1287.3111232" type="move" name="top"/>
    </contour>
    <contour>
      <point x="63.2736515228" y="1240.0" type="curve"/>
      <point x="78.0778690536" y="910.942810516" type="line"/>
      <point x="262.512637805" y="915.317417145" type="line"/>
      <point x="320.786855336" y="1116.6888768" type="line"/>
      <point x="335.429478354" y="1139.56505692"/>
      <point x="376.613159451" y="1170.0666304"/>
      <point x="457.989985213" y="1170.0666304" type="curve" smooth="yes"/>
      <point x="584.542578656" y="1170.0666304"/>
      <point x="659.688882771" y="993.123819885"/>
      <point x="681.190462497" y="746.809549713" type="curve"/>
      <point x="284.472086584" y="758.434943085" type="line"/>
      <point x="284.472086584" y="567.565056915" type="line"/>
      <point x="686.592042223" y="577.190450287" type="line"/>
      <point x="681.190462497" y="254.688876801"/>
      <point x="594.154694815" y="111.184156342"/>
      <point x="443.081028505" y="111.184156342" type="curve" smooth="yes"/>
      <point x="378.118420274" y="111.184156342"/>
      <point x="359.531594513" y="139.873033142"/>
      <point x="346.498971495" y="165.498426514" type="curve"/>
      <point x="295.188449849" y="401.679435883" type="line"/>
      <point x="81.1452460358" y="394.803255768" type="line"/>
      <point x="72.9336515228" y="37.2507867432" type="line"/>
      <point x="159.9783907" y="35.063483429"/>
      <point x="259.645767682" y="-20.0"/>
      <point x="427.657347408" y="-20.0" type="curve" smooth="yes"/>
      <point x="819.572637805" y="-20.0"/>
      <point x="1045.64895671" y="224.126966858"/>
      <point x="1045.64895671" y="653.498426514" type="curve" smooth="yes"/>
      <point x="1045.64895671" y="1038.56190994"/>
      <point x="861.070536433" y="1306.0"/>
      <point x="488.427362195" y="1306.0" type="curve" smooth="yes"/>
      <point x="265.828405487" y="1306.0"/>
      <point x="155.719970425" y="1246.18730331"/>
    </contour>
  </outline>
</glyph>
<glyph name="ertick-cy.sc" format="1">
  <advance width="1077.62186273"/>
  <outline>
    <contour>
      <point x="532.83552904" y="-144.0" type="move" name="mark0"/>
    </contour>
    <contour>
      <point x="338.082384376" y="1292.0" type="curve" smooth="yes"/>
      <point x="58.6576156242" y="1292.0" type="line"/>
      <point x="58.6576156242" y="1153.13011383" type="line"/>
      <point x="165.746557545" y="1127.47455223" type="line"/>
      <point x="165.746557545" y="149.588931198" type="line"/>
      <point x="55.5423548012" y="130.307976227" type="line"/>
      <point x="55.5423548012" y="0.0" type="line"/>
      <point x="692.396095048" y="0.0" type="line"/>
      <point x="692.396095048" y="130.307976227" type="line"/>
      <point x="494.62794299" y="149.401627884" type="line"/>
      <point x="494.62794299" y="430.568203888" type="line"/>
      <point x="511.299522716" y="428.755507202"/>
      <point x="543.07608026" y="425.849158859"/>
      <point x="574.909493141" y="425.849158859" type="curve" smooth="yes"/>
      <point x="660.086870123" y="425.849158859"/>
      <point x="734.461087654" y="438.036462173"/>
      <point x="797.40819642" y="462.598372116" type="curve"/>
      <point x="924.283978889" y="314.906348343" type="line"/>
      <point x="998.553457243" y="388.966684799" type="line"/>
      <point x="890.583203813" y="512.815843658" type="line"/>
      <point x="993.932935596" y="592.658708572"/>
      <point x="1048.2016093" y="722.658708572"/>
      <point x="1048.2016093" y="905.377753601" type="curve" smooth="yes"/>
      <point x="1048.2016093" y="1164.71904503"/>
      <point x="941.784500535" y="1299.62539337"/>
      <point x="591.681326296" y="1300.71904503" type="curve" smooth="yes"/>
      <point x="479.867123553" y="1302.90634834"/>
      <point x="393.18" y="1292.0"/>
    </contour>
    <contour>
      <point x="709.93552904" y="717.46196434" type="curve"/>
      <point x="625.076855336" y="818.060336456" type="line"/>
      <point x="551.378956708" y="744.0" type="line"/>
      <point x="669.066065473" y="606.936516571" type="line"/>
      <point x="642.424753964" y="571.063483429"/>
      <point x="607.57633369" y="555.220618515"/>
      <point x="565.040014787" y="555.220618515" type="curve" smooth="yes"/>
      <point x="522.508181632" y="555.220618515"/>
      <point x="502.830566008" y="560.501573486"/>
      <point x="493.537153127" y="564.314270172" type="curve"/>
      <point x="493.537153127" y="1162.25393372" type="line"/>
      <point x="508.127406557" y="1167.722192"/>
      <point x="511.133442455" y="1172.25393372"/>
      <point x="562.286855336" y="1172.25393372" type="curve" smooth="yes"/>
      <point x="661.574187956" y="1172.25393372"/>
      <point x="717.814963032" y="1086.4110688"/>
      <point x="717.814963032" y="896.815843658" type="curve" smooth="yes"/>
      <point x="717.814963032" y="824.465111313"/>
      <point x="716.418927133" y="764.181009369"/>
    </contour>
  </outline>
</glyph>
<glyph name="esdescender-cy.sc" format="1">
  <advance width="1058.9213263"/>
  <outline>
    <contour>
      <point x="979.07186273" y="46.0" type="curve"/>
      <point x="1001.92159451" y="351.431796112" type="line"/>
      <point x="816.134187956" y="367.80640274" type="line"/>
      <point x="744.617869054" y="172.277807999" type="line"/>
      <point x="723.430506859" y="146.120672913"/>
      <point x="696.998673704" y="121.401627884"/>
      <point x="622.166587119" y="121.401627884" type="curve" smooth="yes"/>
      <point x="485.125051756" y="121.401627884"/>
      <point x="412.889015857" y="331.220618515"/>
      <point x="412.889015857" y="655.063483429" type="curve" smooth="yes"/>
      <point x="412.889015857" y="1007.78252846"/>
      <point x="490.988986282" y="1167.69202377"/>
      <point x="619.051326296" y="1167.69202377" type="curve" smooth="yes"/>
      <point x="683.132623018" y="1167.69202377"/>
      <point x="706.911550151" y="1148.25393372"/>
      <point x="720.101281934" y="1132.09679863" type="curve"/>
      <point x="780.609448779" y="838.072924347" type="line"/>
      <point x="984.31633369" y="838.072924347" type="line"/>
      <point x="1007.01344246" y="1268.21747154" type="line"/>
      <point x="940.274753964" y="1269.28095497"/>
      <point x="788.153695885" y="1306.0"/>
      <point x="628.397108765" y="1306.0" type="curve" smooth="yes"/>
      <point x="291.488152058" y="1306.0"/>
      <point x="45.0534128807" y="1061.68572983"/>
      <point x="45.0534128807" y="627.033315201" type="curve" smooth="yes"/>
      <point x="45.0534128807" y="285.625393372"/>
      <point x="182.732354801" y="45.4984265137"/>
      <point x="469.155246036" y="-7.43809005737" type="curve"/>
      <point x="484.893144664" y="-52.5015734863"/>
      <point x="518.912623018" y="-254.972978745"/>
      <point x="518.912623018" y="-374.682582855" type="curve"/>
      <point x="700.646601907" y="-374.682582855" type="line"/>
      <point x="700.280014787" y="-222.48269165"/>
      <point x="727.654500535" y="-54.5682038879"/>
      <point x="744.430819437" y="-7.43809005737" type="curve"/>
      <point x="838.740014787" y="6.93651657104"/>
      <point x="895.713964101" y="37.6253933716"/>
    </contour>
  </outline>
</glyph>
<glyph name="fita-cy.sc" format="1">
  <advance width="1162.94737698"/>
  <outline>
    <contour>
      <point x="576.462637805" y="-20.0" type="curve" smooth="yes"/>
      <point x="916.491341084" y="-18.3746066284"/>
      <point x="1115.71238438" y="268.404774857"/>
      <point x="1115.71238438" y="673.123819885" type="curve" smooth="yes"/>
      <point x="1115.71238438" y="1056.56190994"/>
      <point x="981.048449849" y="1309.09365166"/>
      <point x="588.042369588" y="1311.28095497" type="curve" smooth="yes"/>
      <point x="251.857615624" y="1312.37460663"/>
      <point x="48.8449926064" y="1051.28095497"/>
      <point x="48.8449926064" y="647.842864914" type="curve" smooth="yes"/>
      <point x="48.8449926064" y="249.093651657"/>
      <point x="190.001296722" y="-21.6253933716"/>
    </contour>
    <contour>
      <point x="581.240268217" y="111.746066284" type="curve" smooth="yes"/>
      <point x="478.161355871" y="111.746066284"/>
      <point x="413.146378052" y="233.939663544"/>
      <point x="405.825066543" y="595.90320137" type="curve"/>
      <point x="421.039269286" y="613.498426514"/>
      <point x="436.406095048" y="627.190450287"/>
      <point x="460.756601907" y="627.190450287" type="curve" smooth="yes"/>
      <point x="540.113442455" y="627.190450287"/>
      <point x="576.510521646" y="538.3444384"/>
      <point x="678.145514252" y="538.3444384" type="curve" smooth="yes"/>
      <point x="708.259702209" y="538.3444384"/>
      <point x="732.767317833" y="545.317417145"/>
      <point x="754.940730714" y="561.945957489" type="curve"/>
      <point x="742.422832085" y="267.782528458"/>
      <point x="681.771013718" y="111.746066284"/>
    </contour>
    <contour>
      <point x="410.75980572" y="764.615952454" type="curve"/>
      <point x="423.796914485" y="1047.84286491"/>
      <point x="481.433725459" y="1181.722192"/>
      <point x="584.979478354" y="1181.722192" type="curve" smooth="yes"/>
      <point x="684.319180563" y="1181.722192"/>
      <point x="751.568107696" y="1082.277808"/>
      <point x="756.655469891" y="725.377753601" type="curve"/>
      <point x="745.232846873" y="713.063483429"/>
      <point x="738.073129877" y="703.746066284"/>
      <point x="711.541043292" y="703.746066284" type="curve" smooth="yes"/>
      <point x="631.769731783" y="703.746066284"/>
      <point x="594.748703278" y="793.685729828"/>
      <point x="492.542130946" y="793.685729828" type="curve" smooth="yes"/>
      <point x="466.167153127" y="793.685729828"/>
      <point x="435.062428738" y="784.150841141"/>
    </contour>
  </outline>
</glyph>
<glyph name="ge-cy.sc" format="1">
  <advance width="992.815558614"/>
  <outline>
    <contour>
      <point x="554.075260823" y="1288.40477486" type="move" name="top"/>
    </contour>
    <contour>
      <point x="496.381594513" y="648.0" type="move" name="center"/>
    </contour>
    <contour>
      <point x="227.345514252" y="0.0" type="move" name="bottomright"/>
    </contour>
    <contour>
      <point x="55.4944709602" y="1292.0" type="line"/>
      <point x="55.4944709602" y="1154.03646217" type="line"/>
      <point x="219.71447096" y="1126.56820389" type="line"/>
      <point x="219.71447096" y="151.588931198" type="line"/>
      <point x="53.4176304115" y="131.401627884" type="line"/>
      <point x="53.4176304115" y="0.0" type="line"/>
      <point x="773.105573402" y="0.0" type="line"/>
      <point x="773.105573402" y="131.401627884" type="line"/>
      <point x="544.180327366" y="151.588931198" type="line"/>
      <point x="544.180327366" y="1150.03646217" type="line"/>
      <point x="739.434739177" y="1126.00629395" type="line"/>
      <point x="802.591326296" y="753.22691246" type="line"/>
      <point x="983.858464636" y="753.22691246" type="line"/>
      <point x="953.421087654" y="1292.0" type="line"/>
    </contour>
  </outline>
</glyph>
<glyph name="gedescender-cy.sc" format="1">
  <advance width="989.647928203"/>
  <outline>
    <contour>
      <point x="533.149746571" y="-144.0" type="move" name="mark0"/>
    </contour>
    <contour>
      <point x="816.680312579" y="151.588931198" type="curve"/>
      <point x="544.180327366" y="151.588931198" type="line"/>
      <point x="544.180327366" y="1150.03646217" type="line"/>
      <point x="739.434739177" y="1126.00629395" type="line"/>
      <point x="809.136065473" y="753.22691246" type="line"/>
      <point x="983.858464636" y="753.22691246" type="line"/>
      <point x="953.421087654" y="1292.0" type="line"/>
      <point x="55.4944709602" y="1292.0" type="line"/>
      <point x="55.4944709602" y="1154.03646217" type="line"/>
      <point x="219.71447096" y="1126.56820389" type="line"/>
      <point x="219.71447096" y="151.588931198" type="line"/>
      <point x="53.4176304115" y="131.401627884" type="line"/>
      <point x="53.4176304115" y="0.0" type="line"/>
      <point x="550.650268217" y="0.0" type="line"/>
      <point x="576.776855336" y="-57.1841563416"/>
      <point x="610.953442455" y="-301.341291428"/>
      <point x="610.953442455" y="-370.307976227" type="curve"/>
      <point x="777.001892304" y="-370.307976227" type="line"/>
      <point x="786.247421344" y="-334.779381485"/>
      <point x="816.680312579" y="7.28724891663"/>
    </contour>
  </outline>
</glyph>
<glyph name="gestrokehook-cy.sc" format="1">
  <advance width="989.38608026"/>
  <outline>
    <contour>
      <point x="769.885573402" y="131.401627884" type="curve"/>
      <point x="544.180327366" y="151.588931198" type="line"/>
      <point x="544.180327366" y="505.818990631" type="line"/>
      <point x="718.199493141" y="505.818990631" type="line"/>
      <point x="718.199493141" y="651.595225143" type="line"/>
      <point x="544.180327366" y="651.595225143" type="line"/>
      <point x="544.180327366" y="1150.03646217" type="line"/>
      <point x="739.434739177" y="1126.00629395" type="line"/>
      <point x="802.591326296" y="753.22691246" type="line"/>
      <point x="983.858464636" y="753.22691246" type="line"/>
      <point x="953.421087654" y="1292.0" type="line"/>
      <point x="55.4944709602" y="1292.0" type="line"/>
      <point x="55.4944709602" y="1154.03646217" type="line"/>
      <point x="219.71447096" y="1126.56820389" type="line"/>
      <point x="219.71447096" y="651.595225143" type="line"/>
      <point x="83.5931594513" y="651.595225143" type="line"/>
      <point x="83.5931594513" y="505.818990631" type="line"/>
      <point x="219.71447096" y="505.818990631" type="line"/>
      <point x="219.71447096" y="151.588931198" type="line"/>
      <point x="53.4176304115" y="131.401627884" type="line"/>
      <point x="53.4176304115" y="0.0" type="line"/>
      <point x="663.773710672" y="0.0" type="line"/>
      <point x="668.394232318" y="-36.3142701721"/>
      <point x="673.119493141" y="-82.4714052582"/>
      <point x="673.119493141" y="-129.033315201" type="curve" smooth="yes"/>
      <point x="673.119493141" y="-237.220618515"/>
      <point x="637.804232318" y="-261.190450287"/>
      <point x="571.951341084" y="-261.190450287" type="curve" smooth="yes"/>
      <point x="560.681341084" y="-261.190450287"/>
      <point x="526.871341084" y="-257.190450287"/>
      <point x="508.746870123" y="-250.471405258" type="curve"/>
      <point x="509.318449849" y="-435.746066284" type="line"/>
      <point x="535.02608026" y="-448.839717941"/>
      <point x="586.650819437" y="-461.027021255"/>
      <point x="618.798449849" y="-461.027021255" type="curve" smooth="yes"/>
      <point x="768.532935596" y="-461.027021255"/>
      <point x="870.381892304" y="-399.401627884"/>
      <point x="870.381892304" y="-192.658708572" type="curve" smooth="yes"/>
      <point x="870.381892304" y="-118.3444384"/>
      <point x="848.884798326" y="-10.0"/>
    </contour>
  </outline>
</glyph>
<glyph name="ghemiddlehook-cy.sc" format="1">
  <advance width="1242.68874764"/>
  <outline>
    <contour>
      <point x="545.785841618" y="681.842864914" type="curve"/>
      <point x="545.785841618" y="1151.13011383" type="line"/>
      <point x="747.584992606" y="1128.56820389" type="line"/>
      <point x="800.92447096" y="912.815843658" type="line"/>
      <point x="982.1916093" y="912.815843658" type="line"/>
      <point x="963.233710672" y="1292.0" type="line"/>
      <point x="57.0999852127" y="1292.0" type="line"/>
      <point x="57.0999852127" y="1154.03646217" type="line"/>
      <point x="219.138405487" y="1126.56820389" type="line"/>
      <point x="219.138405487" y="151.588931198" type="line"/>
      <point x="53.9323548012" y="130.307976227" type="line"/>
      <point x="53.9323548012" y="0.0" type="line"/>
      <point x="750.517689561" y="0.0" type="line"/>
      <point x="750.517689561" y="130.307976227" type="line"/>
      <point x="545.785841618" y="151.588931198" type="line"/>
      <point x="545.785841618" y="528.036462173" type="line"/>
      <point x="573.408718066" y="557.287248917"/>
      <point x="636.613189026" y="586.411068802"/>
      <point x="715.450819437" y="586.411068802" type="curve" smooth="yes"/>
      <point x="829.285007394" y="586.411068802"/>
      <point x="875.817898628" y="491.377753601"/>
      <point x="875.817898628" y="241.160282059" type="curve" smooth="yes"/>
      <point x="875.817898628" y="-50.3444384003"/>
      <point x="815.261847942" y="-204.44123703"/>
      <point x="702.361341084" y="-204.44123703" type="curve" smooth="yes"/>
      <point x="610.687108765" y="-204.44123703"/>
      <point x="588.199478354" y="-190.598372116"/>
      <point x="569.86552904" y="-183.130113831" type="curve"/>
      <point x="584.565007394" y="-328.906348343" type="line"/>
      <point x="610.429746571" y="-340.0"/>
      <point x="663.197645199" y="-362.404774857"/>
      <point x="752.223457243" y="-362.404774857" type="curve" smooth="yes"/>
      <point x="1015.17715313" y="-362.404774857"/>
      <point x="1209.58165366" y="-123.963537827"/>
      <point x="1209.58165366" y="288.876180115" type="curve" smooth="yes"/>
      <point x="1209.58165366" y="651.866739197"/>
      <point x="1032.67318903" y="751.842864914"/>
      <point x="790.763203813" y="751.842864914" type="curve" smooth="yes"/>
      <point x="702.83266738" y="751.842864914"/>
      <point x="581.306095048" y="706.157135086"/>
    </contour>
  </outline>
</glyph>
<glyph name="ghestroke-cy.sc" format="1">
  <advance width="989.38608026"/>
  <outline>
    <contour>
      <point x="55.4944709602" y="1292.0" type="line"/>
      <point x="55.4944709602" y="1154.03646217" type="line"/>
      <point x="219.71447096" y="1126.56820389" type="line"/>
      <point x="219.71447096" y="651.595225143" type="line"/>
      <point x="83.5931594513" y="651.595225143" type="line"/>
      <point x="83.5931594513" y="505.818990631" type="line"/>
      <point x="219.71447096" y="505.818990631" type="line"/>
      <point x="219.71447096" y="151.588931198" type="line"/>
      <point x="53.4176304115" y="131.401627884" type="line"/>
      <point x="53.4176304115" y="0.0" type="line"/>
      <point x="773.105573402" y="0.0" type="line"/>
      <point x="773.105573402" y="131.401627884" type="line"/>
      <point x="544.180327366" y="151.588931198" type="line"/>
      <point x="544.180327366" y="505.818990631" type="line"/>
      <point x="718.199493141" y="505.818990631" type="line"/>
      <point x="718.199493141" y="651.595225143" type="line"/>
      <point x="544.180327366" y="651.595225143" type="line"/>
      <point x="544.180327366" y="1150.03646217" type="line"/>
      <point x="739.434739177" y="1126.00629395" type="line"/>
      <point x="802.591326296" y="753.22691246" type="line"/>
      <point x="983.858464636" y="753.22691246" type="line"/>
      <point x="953.421087654" y="1292.0" type="line"/>
    </contour>
  </outline>
</glyph>
<glyph name="gheupturn-cy.sc" format="1">
  <advance width="945.340014787"/>
  <outline>
    <contour>
      <point x="521.98" y="-144.0" type="move" name="mark0"/>
    </contour>
    <contour>
      <point x="759.583681097" y="1598.0" type="line"/>
      <point x="691.54472439" y="1292.0" type="line"/>
      <point x="53.6226230179" y="1292.0" type="line"/>
      <point x="53.6226230179" y="1152.94281052" type="line"/>
      <point x="206.829985213" y="1128.7555072" type="line"/>
      <point x="206.829985213" y="150.495279541" type="line"/>
      <point x="52.5842027435" y="132.495279541" type="line"/>
      <point x="52.5842027435" y="0.0" type="line"/>
      <point x="761.364247105" y="0.0" type="line"/>
      <point x="761.364247105" y="132.495279541" type="line"/>
      <point x="533.477421344" y="150.495279541" type="line"/>
      <point x="533.477421344" y="1142.56820389" type="line"/>
      <point x="897.37633369" y="1128.00629395" type="line"/>
      <point x="909.684753964" y="1598.0" type="line"/>
    </contour>
  </outline>
</glyph>
<glyph name="haabkhasian-cy.sc" format="1">
  <advance width="1464.6068997"/>
  <outline>
    <contour>
      <point x="768.895036968" y="1169.722192" type="curve"/>
      <point x="785.047406557" y="1298.90634834" type="line"/>
      <point x="757.105826831" y="1302.90634834"/>
      <point x="699.507928203" y="1311.28095497"/>
      <point x="665.073978889" y="1311.28095497" type="curve" smooth="yes"/>
      <point x="290.135514252" y="1311.28095497"/>
      <point x="46.6634128807" y="1076.0"/>
      <point x="46.6634128807" y="634.0" type="curve" smooth="yes"/>
      <point x="46.6634128807" y="264.0"/>
      <point x="196.49366631" y="-20.0"/>
      <point x="626.791594513" y="-20.0" type="curve" smooth="yes"/>
      <point x="721.47186273" y="-20.0"/>
      <point x="828.150819437" y="0.906348342896"/>
      <point x="898.523978889" y="40.3444384003" type="curve"/>
      <point x="982.505826831" y="-0.936516571045"/>
      <point x="1082.01609505" y="-20.0"/>
      <point x="1185.05609505" y="-20.0" type="curve" smooth="yes"/>
      <point x="1281.97031258" y="-20.0"/>
      <point x="1357.69268217" y="0.906348342896"/>
      <point x="1426.5605808" y="50.0" type="curve"/>
      <point x="1393.26979093" y="154.839717941" type="line"/>
      <point x="1347.56584162" y="122.839717941"/>
      <point x="1289.60584162" y="111.746066284"/>
      <point x="1234.29426189" y="111.746066284" type="curve" smooth="yes"/>
      <point x="1181.94531997" y="111.746066284"/>
      <point x="1132.29716791" y="117.90320137"/>
      <point x="1082.85400846" y="136.060336456" type="curve"/>
      <point x="1185.01269695" y="206.809549713"/>
      <point x="1327.05479833" y="348.0"/>
      <point x="1327.05479833" y="602.0" type="curve" smooth="yes"/>
      <point x="1327.05479833" y="967.842864914"/>
      <point x="1109.8529356" y="1054.0"/>
      <point x="929.790297791" y="1054.0" type="curve" smooth="yes"/>
      <point x="742.092130946" y="1054.0"/>
      <point x="545.096065473" y="938.0"/>
      <point x="545.096065473" y="565.595225143" type="curve" smooth="yes"/>
      <point x="545.096065473" y="343.752360229"/>
      <point x="633.227108765" y="188.060336456"/>
      <point x="767.118956708" y="120.060336456" type="curve"/>
      <point x="741.001341084" y="115.027021255"/>
      <point x="713.840819437" y="111.746066284"/>
      <point x="684.3416093" y="111.746066284" type="curve" smooth="yes"/>
      <point x="533.787153127" y="111.746066284"/>
      <point x="390.034798326" y="223.377753601"/>
      <point x="390.034798326" y="636.0" type="curve" smooth="yes"/>
      <point x="390.034798326" y="1073.84286491"/>
      <point x="553.111638875" y="1176.25393372"/>
      <point x="701.12241395" y="1176.25393372" type="curve" smooth="yes"/>
      <point x="724.648464636" y="1176.25393372"/>
      <point x="748.641355871" y="1172.25393372"/>
    </contour>
    <contour>
      <point x="929.271087654" y="924.411068802" type="curve" smooth="yes"/>
      <point x="1005.24633369" y="924.411068802"/>
      <point x="1019.62710877" y="826.314270172"/>
      <point x="1019.62710877" y="600.0" type="curve" smooth="yes"/>
      <point x="1019.62710877" y="380.561909943"/>
      <point x="998.444232318" y="257.184156342"/>
      <point x="948.695826831" y="216.150841141" type="curve"/>
      <point x="866.380834225" y="286.307976227"/>
      <point x="830.760327366" y="421.498426514"/>
      <point x="830.760327366" y="608.779381485" type="curve" smooth="yes"/>
      <point x="830.760327366" y="783.287248917"/>
      <point x="849.24241395" y="924.411068802"/>
    </contour>
  </outline>
</glyph>
<glyph name="hadescender-cy.sc" format="1">
  <advance width="1187.20660191"/>
  <outline>
    <contour>
      <point x="586.227376982" y="-144.0" type="move" name="mark0"/>
    </contour>
    <contour>
      <point x="1186.60475396" y="151.588931198" type="curve"/>
      <point x="1054.43213095" y="151.588931198" type="line"/>
      <point x="730.150297791" y="701.341291428" type="line"/>
      <point x="1007.99949314" y="1126.56820389" type="line"/>
      <point x="1135.81344246" y="1153.13011383" type="line"/>
      <point x="1135.81344246" y="1292.0" type="line"/>
      <point x="712.064739177" y="1292.0" type="line"/>
      <point x="712.064739177" y="1153.13011383" type="line"/>
      <point x="837.435260823" y="1127.47455223" type="line"/>
      <point x="659.410551221" y="800.525447769" type="line"/>
      <point x="495.046899698" y="1125.47455223" type="line"/>
      <point x="598.858986282" y="1153.13011383" type="line"/>
      <point x="598.858986282" y="1292.0" type="line"/>
      <point x="22.4086737038" y="1292.0" type="line"/>
      <point x="22.4086737038" y="1153.13011383" type="line"/>
      <point x="115.941296722" y="1126.56820389" type="line"/>
      <point x="420.436289328" y="609.534888687" type="line"/>
      <point x="145.030521646" y="149.588931198" type="line"/>
      <point x="21.2176304115" y="130.307976227" type="line"/>
      <point x="21.2176304115" y="0.0" type="line"/>
      <point x="457.998956708" y="0.0" type="line"/>
      <point x="457.998956708" y="130.307976227" type="line"/>
      <point x="322.034753964" y="149.588931198" type="line"/>
      <point x="496.577615624" y="505.069777374" type="line"/>
      <point x="677.508107696" y="151.588931198" type="line"/>
      <point x="570.318912346" y="130.307976227" type="line"/>
      <point x="570.318912346" y="0.0" type="line"/>
      <point x="921.665499465" y="0.0" type="line"/>
      <point x="947.272876447" y="-55.7460662842"/>
      <point x="980.358673704" y="-311.55876297"/>
      <point x="980.877883841" y="-368.682582855" type="curve"/>
      <point x="1146.92633369" y="-368.682582855" type="line"/>
      <point x="1156.69107287" y="-340.090504684"/>
      <point x="1186.60475396" y="8.53803565979"/>
    </contour>
  </outline>
</glyph>
<glyph name="hahook-cy.sc" format="1">
  <advance width="1155.57369588"/>
  <outline>
    <contour>
      <point x="748.641355871" y="732.839717941" type="curve"/>
      <point x="1007.99949314" y="1126.56820389" type="line"/>
      <point x="1135.81344246" y="1153.13011383" type="line"/>
      <point x="1135.81344246" y="1292.0" type="line"/>
      <point x="712.064739177" y="1292.0" type="line"/>
      <point x="712.064739177" y="1153.13011383" type="line"/>
      <point x="837.435260823" y="1127.47455223" type="line"/>
      <point x="668.084500535" y="827.649267654" type="line"/>
      <point x="495.046899698" y="1125.47455223" type="line"/>
      <point x="598.858986282" y="1153.13011383" type="line"/>
      <point x="598.858986282" y="1292.0" type="line"/>
      <point x="22.4086737038" y="1292.0" type="line"/>
      <point x="22.4086737038" y="1153.13011383" type="line"/>
      <point x="115.941296722" y="1126.56820389" type="line"/>
      <point x="430.201028505" y="635.752360229" type="line"/>
      <point x="145.030521646" y="149.588931198" type="line"/>
      <point x="21.2176304115" y="130.307976227" type="line"/>
      <point x="21.2176304115" y="0.0" type="line"/>
      <point x="457.998956708" y="0.0" type="line"/>
      <point x="457.998956708" y="130.307976227" type="line"/>
      <point x="322.034753964" y="149.588931198" type="line"/>
      <point x="513.977883841" y="534.568203888" type="line"/>
      <point x="615.699672634" y="345.612805481"/>
      <point x="771.935499465" y="137.431796112"/>
      <point x="771.935499465" y="-42.3746066284" type="curve" smooth="yes"/>
      <point x="771.935499465" y="-126.3444384"/>
      <point x="765.552354801" y="-202.906348343"/>
      <point x="656.958152058" y="-274.779381485" type="curve"/>
      <point x="751.852384376" y="-361.498426514" type="line"/>
      <point x="906.455782469" y="-294.247639771"/>
      <point x="1068.14555861" y="-131.842864914"/>
      <point x="1068.14555861" y="75.4317961121" type="curve" smooth="yes"/>
      <point x="1068.14555861" y="310.33185051"/>
      <point x="862.937898628" y="551.733478394"/>
    </contour>
  </outline>
</glyph>
<glyph name="hardsign-cy.sc" format="1">
  <advance width="1389.70898628"/>
  <outline>
    <contour>
      <point x="699.355305185" y="-144.0" type="move" name="mark0"/>
    </contour>
    <contour>
      <point x="948.957674773" y="757.752360229" type="curve" smooth="yes"/>
      <point x="761.88794299" y="757.752360229" type="line"/>
      <point x="761.88794299" y="1127.47455223" type="line"/>
      <point x="946.10874764" y="1160.59837212" type="line"/>
      <point x="946.10874764" y="1292.0" type="line"/>
      <point x="69.2034128807" y="1292.0" type="line"/>
      <point x="40.0663041153" y="739.32371109" type="line"/>
      <point x="221.281072867" y="739.32371109" type="line"/>
      <point x="284.956870123" y="1128.56820389" type="line"/>
      <point x="436.331296722" y="1151.13011383" type="line"/>
      <point x="436.331296722" y="151.588931198" type="line"/>
      <point x="201.8383907" y="131.401627884" type="line"/>
      <point x="201.8383907" y="0.0" type="line"/>
      <point x="610.743964101" y="0.0" type="line" smooth="yes"/>
      <point x="675.143964101" y="0.0"/>
      <point x="915.514261893" y="-14.0"/>
      <point x="952.544261893" y="-14.0" type="curve" smooth="yes"/>
      <point x="1209.31531997" y="-14.0"/>
      <point x="1356.6018923" y="137.6555616"/>
      <point x="1356.6018923" y="396.157135086" type="curve" smooth="yes"/>
      <point x="1356.6018923" y="624.314270172"/>
      <point x="1238.81453011" y="757.752360229"/>
    </contour>
    <contour>
      <point x="761.88794299" y="136.120672913" type="curve"/>
      <point x="761.88794299" y="612.53803566" type="line"/>
      <point x="861.698971495" y="612.53803566" type="line" smooth="yes"/>
      <point x="958.080521646" y="612.53803566"/>
      <point x="1021.28050686" y="562.471405258"/>
      <point x="1021.28050686" y="371.033315201" type="curve" smooth="yes"/>
      <point x="1021.28050686" y="245.963537827"/>
      <point x="990.232637805" y="122.307976227"/>
      <point x="843.727123553" y="122.307976227" type="curve" smooth="yes"/>
      <point x="816.313725459" y="122.307976227"/>
      <point x="784.166095048" y="127.027021255"/>
    </contour>
  </outline>
</glyph>
<glyph name="hastroke-cy.sc" format="1">
  <advance width="1155.57369588"/>
  <outline>
    <contour>
      <point x="1011.12372546" y="719.123819885" type="line"/>
      <point x="137.019433992" y="719.123819885" type="line"/>
      <point x="137.019433992" y="570.066630402" type="line"/>
      <point x="1011.12372546" y="570.066630402" type="line"/>
    </contour>
    <contour>
      <point x="141.758152058" y="149.588931198" type="line"/>
      <point x="17.9452608231" y="130.307976227" type="line"/>
      <point x="17.9452608231" y="0.0" type="line"/>
      <point x="454.726587119" y="0.0" type="line"/>
      <point x="454.726587119" y="130.307976227" type="line"/>
      <point x="318.762384376" y="149.588931198" type="line"/>
      <point x="493.305246036" y="505.069777374" type="line"/>
      <point x="674.235738107" y="151.588931198" type="line"/>
      <point x="567.046542757" y="130.307976227" type="line"/>
      <point x="567.046542757" y="0.0" type="line"/>
      <point x="1142.9776452" y="0.0" type="line"/>
      <point x="1142.9776452" y="130.307976227" type="line"/>
      <point x="1052.25055122" y="151.588931198" type="line"/>
      <point x="726.877928203" y="701.341291428" type="line"/>
      <point x="1004.72712355" y="1126.56820389" type="line"/>
      <point x="1132.54107287" y="1153.13011383" type="line"/>
      <point x="1132.54107287" y="1292.0" type="line"/>
      <point x="708.792369588" y="1292.0" type="line"/>
      <point x="708.792369588" y="1153.13011383" type="line"/>
      <point x="834.162891235" y="1127.47455223" type="line"/>
      <point x="656.138181632" y="800.525447769" type="line"/>
      <point x="491.774530109" y="1125.47455223" type="line"/>
      <point x="596.677406557" y="1153.13011383" type="line"/>
      <point x="596.677406557" y="1292.0" type="line"/>
      <point x="19.1363041153" y="1292.0" type="line"/>
      <point x="19.1363041153" y="1153.13011383" type="line"/>
      <point x="112.668927133" y="1126.56820389" type="line"/>
      <point x="417.16391974" y="609.534888687" type="line"/>
    </contour>
  </outline>
</glyph>
<glyph name="ia-cy.sc" format="1">
  <advance width="1184.30081944"/>
  <outline>
    <contour>
      <point x="690.76366631" y="540.658708572" type="curve"/>
      <point x="690.76366631" y="149.588931198" type="line"/>
      <point x="562.330253429" y="131.401627884" type="line"/>
      <point x="562.330253429" y="0.0" type="line"/>
      <point x="1133.95056601" y="0.0" type="line"/>
      <point x="1133.95056601" y="131.401627884" type="line"/>
      <point x="1016.37268217" y="149.588931198" type="line"/>
      <point x="1016.37268217" y="1127.47455223" type="line"/>
      <point x="1127.61530518" y="1153.13011383" type="line"/>
      <point x="1127.61530518" y="1292.0" type="line"/>
      <point x="862.270551221" y="1292.0" type="line" smooth="yes"/>
      <point x="755.539224924" y="1292.0"/>
      <point x="702.56633369" y="1302.71904503"/>
      <point x="566.902891235" y="1302.71904503" type="curve" smooth="yes"/>
      <point x="222.08758605" y="1302.71904503"/>
      <point x="119.475514252" y="1177.28724892"/>
      <point x="119.475514252" y="952.404774857" type="curve" smooth="yes"/>
      <point x="119.475514252" y="808.869886169"/>
      <point x="190.520506859" y="647.685729828"/>
      <point x="349.810253429" y="605.685729828" type="curve"/>
      <point x="143.821535364" y="532.060336456"/>
      <point x="145.292369588" y="176.150841141"/>
      <point x="66.35" y="149.401627884" type="curve"/>
      <point x="16.0778986282" y="131.401627884" type="line"/>
      <point x="16.0778986282" y="0.0" type="line"/>
      <point x="365.989537503" y="0.0" type="line" smooth="yes"/>
      <point x="424.154530109" y="0.0"/>
      <point x="456.550551221" y="478.0"/>
      <point x="564.368181632" y="541.752360229" type="curve"/>
      <point x="647.568971495" y="538.471405258"/>
      <point x="672.957898628" y="538.471405258"/>
    </contour>
    <contour>
      <point x="690.76366631" y="1167.90949532" type="curve"/>
      <point x="690.76366631" y="671.6555616" type="line"/>
      <point x="678.145514252" y="664.374606628"/>
      <point x="634.989731783" y="664.561909943"/>
      <point x="622.275812044" y="664.561909943" type="curve" smooth="yes"/>
      <point x="517.58241395" y="664.561909943"/>
      <point x="464.094798326" y="751.063483429"/>
      <point x="464.094798326" y="947.625393372" type="curve" smooth="yes"/>
      <point x="464.094798326" y="1121.53488869"/>
      <point x="525.580044362" y="1174.44123703"/>
      <point x="619.003442455" y="1174.44123703" type="curve" smooth="yes"/>
      <point x="661.583159451" y="1174.44123703"/>
      <point x="681.212891235" y="1172.09679863"/>
    </contour>
  </outline>
</glyph>
<glyph name="ii-cy.sc" format="1">
  <advance width="1358.43369588"/>
  <outline>
    <contour>
      <point x="689.057898628" y="1288.40477486" type="move" name="top"/>
    </contour>
    <contour>
      <point x="1227.69266738" y="0.0" type="move" name="bottomright"/>
    </contour>
    <contour>
      <point x="60.3199852127" y="1292.0" type="line"/>
      <point x="60.3199852127" y="1153.13011383" type="line"/>
      <point x="161.902608231" y="1128.56820389" type="line"/>
      <point x="161.902608231" y="148.495279541" type="line"/>
      <point x="60.4247243896" y="130.307976227" type="line"/>
      <point x="60.4247243896" y="0.0" type="line"/>
      <point x="606.23266738" y="0.0" type="line"/>
      <point x="606.23266738" y="130.307976227" type="line"/>
      <point x="488.654783539" y="150.495279541" type="line"/>
      <point x="488.654783539" y="192.622246399" type="line"/>
      <point x="808.555514252" y="704.665002518" type="line"/>
      <point x="866.506542757" y="872.949104462" type="line"/>
      <point x="866.506542757" y="151.588931198" type="line"/>
      <point x="758.069448779" y="130.307976227" type="line"/>
      <point x="758.069448779" y="0.0" type="line"/>
      <point x="1291.93107287" y="0.0" type="line"/>
      <point x="1291.93107287" y="130.307976227" type="line"/>
      <point x="1190.50555861" y="151.588931198" type="line"/>
      <point x="1190.50555861" y="1127.47455223" type="line"/>
      <point x="1293.1789715" y="1153.13011383" type="line"/>
      <point x="1293.1789715" y="1292.0" type="line"/>
      <point x="758.069448779" y="1292.0" type="line"/>
      <point x="758.069448779" y="1153.13011383" type="line"/>
      <point x="866.506542757" y="1127.47455223" type="line"/>
      <point x="866.506542757" y="1093.87932709" type="line"/>
      <point x="555.64186273" y="577.619099426" type="line"/>
      <point x="488.654783539" y="413.739772339" type="line"/>
      <point x="488.654783539" y="1126.38090057" type="line"/>
      <point x="603.374768752" y="1155.13011383" type="line"/>
      <point x="603.374768752" y="1292.0" type="line"/>
    </contour>
  </outline>
</glyph>
<glyph name="iishorttail-cy.sc" format="1">
  <advance width="1357.86211616"/>
  <outline>
    <contour>
      <point x="1190.45318903" y="0.0" type="move" name="bottomright"/>
    </contour>
    <contour>
      <point x="1310.10791342" y="0.0" type="curve"/>
      <point x="1310.10791342" y="148.495279541" type="line"/>
      <point x="1155.96687012" y="148.495279541" type="line"/>
      <point x="1065.4836811" y="0.0" type="line"/>
      <point x="1066.61786905" y="0.0" type="line"/>
      <point x="1047.65997043" y="-72.2476397705"/>
      <point x="1010.37260823" y="-234.568203888"/>
      <point x="955.366274541" y="-374.682582855" type="curve"/>
      <point x="1120.73840549" y="-374.682582855" type="line"/>
      <point x="1159.90210137" y="-315.311123199"/>
      <point x="1254.53" y="-110.428649139"/>
    </contour>
    <contour>
      <point x="523.180014787" y="1851.62539337" type="curve" smooth="yes"/>
      <point x="321.864187956" y="1851.62539337" type="line"/>
      <point x="321.864187956" y="1833.06348343"/>
      <point x="320.254187956" y="1814.50157349"/>
      <point x="320.254187956" y="1795.75236023" type="curve" smooth="yes"/>
      <point x="320.254187956" y="1585.3777536"/>
      <point x="464.172623018" y="1441.0333152"/>
      <point x="675.396840549" y="1441.0333152" type="curve" smooth="yes"/>
      <point x="897.476587119" y="1441.0333152"/>
      <point x="1030.59186273" y="1584.47140526"/>
      <point x="1030.59186273" y="1795.75236023" type="curve" smooth="yes"/>
      <point x="1030.59186273" y="1807.93966354"/>
      <point x="1031.16344246" y="1839.62539337"/>
      <point x="1028.98186273" y="1851.62539337" type="curve"/>
      <point x="827.666035899" y="1851.62539337" type="line" smooth="yes"/>
      <point x="803.46366631" y="1851.62539337"/>
      <point x="799.152876447" y="1791.3777536"/>
      <point x="799.152876447" y="1754.09679863" type="curve" smooth="yes"/>
      <point x="799.152876447" y="1655.75236023"/>
      <point x="758.331296722" y="1567.6555616"/>
      <point x="677.006840549" y="1567.6555616" type="curve" smooth="yes"/>
      <point x="592.462384376" y="1567.6555616"/>
      <point x="550.602384376" y="1655.75236023"/>
      <point x="550.602384376" y="1754.09679863" type="curve" smooth="yes"/>
      <point x="550.602384376" y="1791.3777536"/>
      <point x="547.382384376" y="1851.62539337"/>
    </contour>
    <contour>
      <point x="60.3199852127" y="1292.0" type="line"/>
      <point x="60.3199852127" y="1153.13011383" type="line"/>
      <point x="161.902608231" y="1128.56820389" type="line"/>
      <point x="161.902608231" y="148.495279541" type="line"/>
      <point x="60.4247243896" y="130.307976227" type="line"/>
      <point x="60.4247243896" y="0.0" type="line"/>
      <point x="606.23266738" y="0.0" type="line"/>
      <point x="606.23266738" y="130.307976227" type="line"/>
      <point x="488.654783539" y="150.495279541" type="line"/>
      <point x="488.654783539" y="192.622246399" type="line"/>
      <point x="808.555514252" y="704.665002518" type="line"/>
      <point x="866.506542757" y="872.949104462" type="line"/>
      <point x="866.506542757" y="151.588931198" type="line"/>
      <point x="758.069448779" y="130.307976227" type="line"/>
      <point x="758.069448779" y="0.0" type="line"/>
      <point x="1291.93107287" y="0.0" type="line"/>
      <point x="1291.93107287" y="130.307976227" type="line"/>
      <point x="1190.50555861" y="151.588931198" type="line"/>
      <point x="1190.50555861" y="1127.47455223" type="line"/>
      <point x="1293.1789715" y="1153.13011383" type="line"/>
      <point x="1293.1789715" y="1292.0" type="line"/>
      <point x="758.069448779" y="1292.0" type="line"/>
      <point x="758.069448779" y="1153.13011383" type="line"/>
      <point x="866.506542757" y="1127.47455223" type="line"/>
      <point x="866.506542757" y="1093.87932709" type="line"/>
      <point x="555.64186273" y="577.619099426" type="line"/>
      <point x="488.654783539" y="413.739772339" type="line"/>
      <point x="488.654783539" y="1126.38090057" type="line"/>
      <point x="603.374768752" y="1155.13011383" type="line"/>
      <point x="603.374768752" y="1292.0" type="line"/>
    </contour>
  </outline>
</glyph>
<glyph name="iu-cy.sc" format="1">
  <advance width="1784.26372546"/>
  <outline>
    <contour>
      <point x="680.131072867" y="740.247639771" type="curve"/>
      <point x="494.680312579" y="740.247639771" type="line"/>
      <point x="494.680312579" y="1127.47455223" type="line"/>
      <point x="614.18241395" y="1153.13011383" type="line"/>
      <point x="614.18241395" y="1292.0" type="line"/>
      <point x="56.5284054871" y="1292.0" type="line"/>
      <point x="56.5284054871" y="1153.13011383" type="line"/>
      <point x="165.746557545" y="1127.47455223" type="line"/>
      <point x="165.746557545" y="151.588931198" type="line"/>
      <point x="54.9707750755" y="130.307976227" type="line"/>
      <point x="54.9707750755" y="0.0" type="line"/>
      <point x="617.350044362" y="0.0" type="line"/>
      <point x="617.350044362" y="130.307976227" type="line"/>
      <point x="495.199522716" y="151.588931198" type="line"/>
      <point x="495.199522716" y="570.972978745" type="line"/>
      <point x="679.664232318" y="570.972978745" type="line"/>
      <point x="695.506870123" y="208.471405258"/>
      <point x="839.259224924" y="-17.0936516571"/>
      <point x="1199.69871807" y="-17.0936516571" type="curve" smooth="yes"/>
      <point x="1531.31531997" y="-17.0936516571"/>
      <point x="1729.55031258" y="255.685729828"/>
      <point x="1729.4455734" y="670.936516571" type="curve" smooth="yes"/>
      <point x="1729.34083422" y="1062.9666848"/>
      <point x="1597.53479833" y="1309.09365166"/>
      <point x="1209.14923971" y="1311.28095497" type="curve" smooth="yes"/>
      <point x="905.526587119" y="1312.37460663"/>
      <point x="710.149493141" y="1094.37460663"/>
    </contour>
    <contour>
      <point x="1202.7616093" y="1182.09679863" type="curve" smooth="yes"/>
      <point x="1307.24104329" y="1182.09679863"/>
      <point x="1368.56918056" y="1064.93022263"/>
      <point x="1368.56918056" y="669.842864914" type="curve" smooth="yes"/>
      <point x="1368.56918056" y="306.277807999"/>
      <point x="1320.54" y="111.90320137"/>
      <point x="1206.08634848" y="111.90320137" type="curve" smooth="yes"/>
      <point x="1099.06323339" y="111.90320137"/>
      <point x="1036.17746571" y="250.568203888"/>
      <point x="1036.17746571" y="648.217471542" type="curve" smooth="yes"/>
      <point x="1036.17746571" y="1011.75236023"/>
      <point x="1088.77479833" y="1182.09679863"/>
    </contour>
  </outline>
</glyph>
<glyph name="izhitsa-cy.sc" format="1">
  <advance width="1245.38056601"/>
  <outline>
    <contour>
      <point x="865.328956708" y="1080.0" type="curve"/>
      <point x="713.788449849" y="402.434943085" type="line"/>
      <point x="691.772145734" y="275.050895538" type="line"/>
      <point x="665.497421344" y="404.434943085" type="line"/>
      <point x="476.564813113" y="1126.38090057" type="line"/>
      <point x="598.71533476" y="1153.13011383" type="line"/>
      <point x="598.71533476" y="1292.0" type="line"/>
      <point x="26.1" y="1292.0" type="line"/>
      <point x="26.1" y="1153.13011383" type="line"/>
      <point x="119.48" y="1126.38090057" type="line"/>
      <point x="498.192101372" y="-11.8126966858" type="line"/>
      <point x="763.707421344" y="-11.8126966858" type="line"/>
      <point x="1035.84530518" y="906.19359726" type="line"/>
      <point x="1076.09530518" y="1077.63168732"/>
      <point x="1133.74108765" y="1143.00314697"/>
      <point x="1225.93004436" y="1143.00314697" type="curve" smooth="yes"/>
      <point x="1225.25372546" y="1143.00314697"/>
      <point x="1227.33056601" y="1143.00314697"/>
      <point x="1227.33056601" y="1143.00314697" type="curve"/>
      <point x="1227.33056601" y="1288.37460663" type="line"/>
      <point x="1208.37266738" y="1296.74921326"/>
      <point x="1159.5489715" y="1309.12381989"/>
      <point x="1068.08421753" y="1309.12381989" type="curve" smooth="yes"/>
      <point x="974.39" y="1309.12381989"/>
      <point x="889.84105808" y="1248.18730331"/>
    </contour>
  </outline>
</glyph>
<glyph name="ka-cy.sc" format="1">
  <advance width="1185.3916093"/>
  <outline>
    <contour>
      <point x="592.410014787" y="1288.40477486" type="move" name="top"/>
    </contour>
    <contour>
      <point x="592.410014787" y="648.0" type="move" name="center"/>
    </contour>
    <contour>
      <point x="1141.5816093" y="0.0" type="move" name="bottomright"/>
    </contour>
    <contour>
      <point x="755.452428738" y="710.277807999" type="curve"/>
      <point x="1015.89687012" y="1127.47455223" type="line"/>
      <point x="1153.06108765" y="1153.13011383" type="line"/>
      <point x="1153.06108765" y="1292.0" type="line"/>
      <point x="700.847108765" y="1292.0" type="line"/>
      <point x="700.847108765" y="1153.13011383" type="line"/>
      <point x="793.546304115" y="1128.56820389" type="line"/>
      <point x="573.66608026" y="713.90320137" type="line"/>
      <point x="493.070312579" y="713.90320137" type="line"/>
      <point x="493.070312579" y="1127.47455223" type="line"/>
      <point x="597.301355871" y="1153.13011383" type="line"/>
      <point x="597.301355871" y="1292.0" type="line"/>
      <point x="56.5807750755" y="1292.0" type="line"/>
      <point x="56.5807750755" y="1153.13011383" type="line"/>
      <point x="166.31813727" y="1127.47455223" type="line"/>
      <point x="166.31813727" y="151.588931198" type="line"/>
      <point x="56.5807750755" y="130.120672913" type="line"/>
      <point x="56.5807750755" y="0.0" type="line"/>
      <point x="633.764261893" y="0.0" type="line"/>
      <point x="633.764261893" y="128.120672913" type="line"/>
      <point x="493.070312579" y="151.588931198" type="line"/>
      <point x="493.070312579" y="598.906348343" type="line"/>
      <point x="526.714232318" y="598.906348343" type="line" smooth="yes"/>
      <point x="707.352935596" y="598.906348343"/>
      <point x="713.194441386" y="0.0"/>
      <point x="845.633398093" y="0.0" type="curve"/>
      <point x="1181.10740656" y="0.0" type="line"/>
      <point x="1181.10740656" y="130.307976227" type="line"/>
      <point x="1125.90056601" y="151.588931198" type="line" smooth="yes"/>
      <point x="1048.20609505" y="180.869886169"/>
      <point x="1003.40588598" y="667.431796112"/>
    </contour>
  </outline>
</glyph>
<glyph name="kabashkir-cy.sc" format="1">
  <advance width="1463.14952272"/>
  <outline>
    <contour>
      <point x="818.062891235" y="-144.0" type="move" name="mark0"/>
    </contour>
    <contour>
      <point x="1068.37297996" y="721.746066284" type="curve"/>
      <point x="1311.46952272" y="1127.47455223" type="line"/>
      <point x="1440.94584162" y="1153.13011383" type="line"/>
      <point x="1440.94584162" y="1292.0" type="line"/>
      <point x="976.161594513" y="1292.0" type="line"/>
      <point x="976.161594513" y="1153.13011383" type="line"/>
      <point x="1088.65211616" y="1128.56820389" type="line"/>
      <point x="895.365319972" y="737.746066284" type="line"/>
      <point x="774.410327366" y="737.746066284" type="line"/>
      <point x="774.410327366" y="1127.47455223" type="line"/>
      <point x="877.912682167" y="1153.13011383" type="line"/>
      <point x="877.912682167" y="1292.0" type="line"/>
      <point x="64.3210432922" y="1292.0" type="line"/>
      <point x="41.6763041153" y="754.447530975" type="line"/>
      <point x="220.657123553" y="754.447530975" type="line"/>
      <point x="281.060551221" y="1128.56820389" type="line"/>
      <point x="447.658152058" y="1150.03646217" type="line"/>
      <point x="447.658152058" y="151.588931198" type="line"/>
      <point x="327.17" y="130.307976227" type="line"/>
      <point x="327.17" y="0.0" type="line"/>
      <point x="910.117167915" y="0.0" type="line"/>
      <point x="910.117167915" y="128.120672913" type="line"/>
      <point x="774.410327366" y="149.588931198" type="line"/>
      <point x="774.410327366" y="616.217471542" type="line"/>
      <point x="792.263978889" y="616.217471542" type="line" smooth="yes"/>
      <point x="975.084261893" y="616.217471542"/>
      <point x="1025.64815206" y="0.0"/>
      <point x="1173.87737698" y="0.0" type="curve"/>
      <point x="1489.71716791" y="0.0" type="line"/>
      <point x="1489.71716791" y="130.307976227" type="line"/>
      <point x="1418.72005915" y="151.401627884" type="line" smooth="yes"/>
      <point x="1350.21874764" y="180.682582855"/>
      <point x="1271.08484269" y="630.839717941"/>
    </contour>
  </outline>
</glyph>
<glyph name="kadescender-cy.sc" format="1">
  <advance width="1226.32241395"/>
  <outline>
    <contour>
      <point x="752.804008463" y="710.277807999" type="curve"/>
      <point x="1013.24844985" y="1127.47455223" type="line"/>
      <point x="1150.41266738" y="1153.13011383" type="line"/>
      <point x="1150.41266738" y="1292.0" type="line"/>
      <point x="697.107898628" y="1292.0" type="line"/>
      <point x="697.107898628" y="1153.13011383" type="line"/>
      <point x="790.897883841" y="1128.56820389" type="line"/>
      <point x="569.926870123" y="713.90320137" type="line"/>
      <point x="490.421892304" y="713.90320137" type="line"/>
      <point x="490.421892304" y="1127.47455223" type="line"/>
      <point x="594.652935596" y="1153.13011383" type="line"/>
      <point x="594.652935596" y="1292.0" type="line"/>
      <point x="53.9323548012" y="1292.0" type="line"/>
      <point x="53.9323548012" y="1153.13011383" type="line"/>
      <point x="162.578927133" y="1127.47455223" type="line"/>
      <point x="162.578927133" y="151.588931198" type="line"/>
      <point x="53.9323548012" y="130.120672913" type="line"/>
      <point x="53.9323548012" y="0.0" type="line"/>
      <point x="630.025051756" y="0.0" type="line"/>
      <point x="630.025051756" y="128.120672913" type="line"/>
      <point x="490.421892304" y="151.588931198" type="line"/>
      <point x="490.421892304" y="598.906348343" type="line"/>
      <point x="524.065812044" y="598.906348343" type="line" smooth="yes"/>
      <point x="703.613725459" y="598.906348343"/>
      <point x="710.546021111" y="0.0"/>
      <point x="841.894187956" y="0.0" type="curve" smooth="yes"/>
      <point x="972.575007394" y="0.0" type="line"/>
      <point x="996.520014787" y="-56.4651113129"/>
      <point x="1032.87818163" y="-307.685729828"/>
      <point x="1032.87818163" y="-370.307976227" type="curve"/>
      <point x="1198.35505176" y="-370.307976227" type="line"/>
      <point x="1204.69031258" y="-343.612805481"/>
      <point x="1238.24295038" y="11.9032013702"/>
      <point x="1238.60505176" y="151.588931198" type="curve"/>
      <point x="1122.7329356" y="151.588931198" type="line"/>
      <point x="1046.70083422" y="183.401627884"/>
      <point x="1000.23825557" y="667.431796112"/>
    </contour>
  </outline>
</glyph>
<glyph name="kahook-cy.sc" format="1">
  <advance width="1206.58345724"/>
  <outline>
    <contour>
      <point x="493.070312579" y="682.374606628" type="curve"/>
      <point x="493.070312579" y="1127.47455223" type="line"/>
      <point x="597.301355871" y="1153.13011383" type="line"/>
      <point x="597.301355871" y="1292.0" type="line"/>
      <point x="56.5807750755" y="1292.0" type="line"/>
      <point x="56.5807750755" y="1153.13011383" type="line"/>
      <point x="166.31813727" y="1127.47455223" type="line"/>
      <point x="166.31813727" y="151.588931198" type="line"/>
      <point x="56.5807750755" y="130.120672913" type="line"/>
      <point x="56.5807750755" y="0.0" type="line"/>
      <point x="633.764261893" y="0.0" type="line"/>
      <point x="633.764261893" y="128.120672913" type="line"/>
      <point x="493.070312579" y="151.588931198" type="line"/>
      <point x="493.070312579" y="526.755507202" type="line"/>
      <point x="519.030819437" y="557.317417145"/>
      <point x="583.640297791" y="585.879327087"/>
      <point x="663.254500535" y="585.879327087" type="curve" smooth="yes"/>
      <point x="779.270268217" y="585.879327087"/>
      <point x="830.423681097" y="489.190450287"/>
      <point x="830.423681097" y="241.160282059" type="curve" smooth="yes"/>
      <point x="830.423681097" y="-67.063483429"/>
      <point x="794.179224924" y="-194.44123703"/>
      <point x="670.423189026" y="-194.44123703" type="curve" smooth="yes"/>
      <point x="600.512384376" y="-194.44123703"/>
      <point x="571.480014787" y="-186.972978745"/>
      <point x="555.846855336" y="-179.692023773" type="curve"/>
      <point x="568.93633369" y="-331.093651657" type="line"/>
      <point x="594.28186273" y="-344.374606628"/>
      <point x="634.94633369" y="-360.404774857"/>
      <point x="724.543725459" y="-360.404774857" type="curve" smooth="yes"/>
      <point x="986.925841618" y="-360.404774857"/>
      <point x="1155.46111723" y="-128.682582855"/>
      <point x="1155.46111723" y="293.063483429" type="curve" smooth="yes"/>
      <point x="1155.46111723" y="621.244492798"/>
      <point x="1008.83740656" y="732.0"/>
      <point x="800.375319972" y="749.842864914" type="curve"/>
      <point x="1028.98634848" y="1127.47455223" type="line"/>
      <point x="1160.12503697" y="1153.13011383" type="line"/>
      <point x="1160.12503697" y="1292.0" type="line"/>
      <point x="694.25" y="1292.0" type="line"/>
      <point x="694.25" y="1153.13011383" type="line"/>
      <point x="808.817362195" y="1127.47455223" type="line"/>
      <point x="607.47608026" y="730.0" type="line"/>
      <point x="580.110566008" y="721.280954971"/>
      <point x="508.127406557" y="694.906348343"/>
    </contour>
  </outline>
</glyph>
<glyph name="kastroke-cy.sc" format="1">
  <advance width="1191.98871807"/>
  <outline>
    <contour>
      <point x="543.943934527" y="-144.0" type="move" name="mark0"/>
    </contour>
    <contour>
      <point x="795.864023251" y="711.371459656" type="curve"/>
      <point x="1023.06555861" y="1126.38090057" type="line"/>
      <point x="1160.22977615" y="1153.13011383" type="line"/>
      <point x="1160.22977615" y="1292.0" type="line"/>
      <point x="706.925007394" y="1292.0" type="line"/>
      <point x="706.925007394" y="1153.13011383" type="line"/>
      <point x="802.896572332" y="1128.56820389" type="line"/>
      <point x="614.077674773" y="714.996853027" type="line"/>
      <point x="499.148211207" y="714.996853027" type="line"/>
      <point x="499.148211207" y="899.063483429" type="line"/>
      <point x="627.84347203" y="899.063483429" type="line"/>
      <point x="627.84347203" y="1015.3111232" type="line"/>
      <point x="499.148211207" y="1015.3111232" type="line"/>
      <point x="499.148211207" y="1126.38090057" type="line"/>
      <point x="605.560834225" y="1153.13011383" type="line"/>
      <point x="605.560834225" y="1292.0" type="line"/>
      <point x="62.6586737038" y="1292.0" type="line"/>
      <point x="62.6586737038" y="1153.13011383" type="line"/>
      <point x="174.577615624" y="1126.38090057" type="line"/>
      <point x="174.577615624" y="1015.3111232" type="line"/>
      <point x="52.7891953499" y="1015.3111232" type="line"/>
      <point x="52.7891953499" y="899.063483429" type="line"/>
      <point x="174.577615624" y="899.063483429" type="line"/>
      <point x="174.577615624" y="150.495279541" type="line"/>
      <point x="62.6586737038" y="130.120672913" type="line"/>
      <point x="62.6586737038" y="0.0" type="line"/>
      <point x="640.932950384" y="0.0" type="line"/>
      <point x="640.932950384" y="128.120672913" type="line"/>
      <point x="499.148211207" y="150.495279541" type="line"/>
      <point x="499.148211207" y="597.812696686" type="line"/>
      <point x="568.216616694" y="597.812696686" type="line" smooth="yes"/>
      <point x="747.764530109" y="597.812696686"/>
      <point x="721.45391974" y="0.0"/>
      <point x="853.892876447" y="0.0" type="curve" smooth="yes"/>
      <point x="1188.27609505" y="0.0" type="line"/>
      <point x="1188.27609505" y="130.307976227" type="line"/>
      <point x="1135.25083422" y="150.495279541" type="line" smooth="yes"/>
      <point x="1056.4655734" y="183.057189484"/>
      <point x="1045.47985008" y="667.431796112"/>
    </contour>
  </outline>
</glyph>
<glyph name="kaverticalstroke-cy.sc" format="1">
  <advance width="1314.71979093"/>
  <outline>
    <contour>
      <point x="911.626914485" y="728.307976227" type="curve"/>
      <point x="1125.59083422" y="1128.56820389" type="line"/>
      <point x="1260.62584162" y="1153.13011383" type="line"/>
      <point x="1260.62584162" y="1292.0" type="line"/>
      <point x="789.816065473" y="1292.0" type="line"/>
      <point x="789.816065473" y="1153.13011383" type="line"/>
      <point x="903.240268217" y="1126.56820389" type="line"/>
      <point x="737.528464636" y="737.746066284" type="line"/>
      <point x="691.04794299" y="737.746066284" type="line"/>
      <point x="691.04794299" y="964.0" type="line"/>
      <point x="581.615826831" y="964.0" type="line"/>
      <point x="581.615826831" y="737.746066284" type="line"/>
      <point x="493.070312579" y="737.746066284" type="line"/>
      <point x="493.070312579" y="1127.47455223" type="line"/>
      <point x="597.301355871" y="1153.13011383" type="line"/>
      <point x="597.301355871" y="1292.0" type="line"/>
      <point x="56.5807750755" y="1292.0" type="line"/>
      <point x="56.5807750755" y="1153.13011383" type="line"/>
      <point x="166.31813727" y="1127.47455223" type="line"/>
      <point x="166.31813727" y="151.588931198" type="line"/>
      <point x="56.5807750755" y="130.120672913" type="line"/>
      <point x="56.5807750755" y="0.0" type="line"/>
      <point x="633.764261893" y="0.0" type="line"/>
      <point x="633.764261893" y="128.120672913" type="line"/>
      <point x="493.070312579" y="151.588931198" type="line"/>
      <point x="493.070312579" y="616.217471542" type="line"/>
      <point x="581.615826831" y="616.217471542" type="line"/>
      <point x="581.615826831" y="314.0" type="line"/>
      <point x="691.04794299" y="314.0" type="line"/>
      <point x="691.04794299" y="602.561909943" type="line"/>
      <point x="733.065051756" y="602.561909943" type="line" smooth="yes"/>
      <point x="865.189790932" y="517.257080688"/>
      <point x="856.907883841" y="0.0"/>
      <point x="1034.01685534" y="0.0" type="curve" smooth="yes"/>
      <point x="1319.3668997" y="-4.37460662842" type="line"/>
      <point x="1319.3668997" y="130.307976227" type="line"/>
      <point x="1266.34163887" y="151.401627884" type="line" smooth="yes"/>
      <point x="1197.84032737" y="184.869886169"/>
      <point x="1126.44220488" y="655.993706055"/>
    </contour>
  </outline>
</glyph>
<glyph name="komide-cy.sc" format="1">
  <advance width="1116.47582683"/>
  <outline>
    <contour>
      <point x="779.340580795" y="0.0" type="curve"/>
      <point x="1062.02426189" y="0.0" type="line"/>
      <point x="1062.02426189" y="130.307976227" type="line"/>
      <point x="950.729269286" y="149.588931198" type="line"/>
      <point x="950.729269286" y="1128.00629395" type="line"/>
      <point x="1061.55742134" y="1157.47455223" type="line"/>
      <point x="1061.55742134" y="1292.0" type="line"/>
      <point x="441.680506859" y="1292.0" type="line"/>
      <point x="441.680506859" y="1157.47455223" type="line"/>
      <point x="624.548673704" y="1128.00629395" type="line"/>
      <point x="624.548673704" y="773.280954971" type="line"/>
      <point x="594.84447096" y="779.280954971"/>
      <point x="513.720521646" y="789.280954971"/>
      <point x="438.307883841" y="789.280954971" type="curve" smooth="yes"/>
      <point x="162.993398093" y="789.280954971"/>
      <point x="35.3410432922" y="603.909495316"/>
      <point x="35.3410432922" y="372.374606628" type="curve" smooth="yes"/>
      <point x="35.3410432922" y="120.3444384"/>
      <point x="199.98" y="-18.3746066284"/>
      <point x="428.804992606" y="-18.3746066284" type="curve" smooth="yes"/>
      <point x="560.314753964" y="-18.3746066284"/>
      <point x="647.102130946" y="-1.62539337158"/>
    </contour>
    <contour>
      <point x="624.548673704" y="644.815843658" type="curve"/>
      <point x="624.548673704" y="136.277807999" type="line"/>
      <point x="602.322891235" y="128.465111313"/>
      <point x="575.633695885" y="122.277807999"/>
      <point x="544.37186273" y="122.277807999" type="curve" smooth="yes"/>
      <point x="414.747406557" y="122.277807999"/>
      <point x="381.570327366" y="246.150841141"/>
      <point x="381.570327366" y="372.719045029" type="curve" smooth="yes"/>
      <point x="381.570327366" y="547.160282059"/>
      <point x="423.473725459" y="651.160282059"/>
      <point x="525.309224924" y="651.160282059" type="curve" smooth="yes"/>
      <point x="573.604739177" y="651.160282059"/>
      <point x="594.220521646" y="651.722192001"/>
    </contour>
  </outline>
</glyph>
<glyph name="komidje-cy.sc" format="1">
  <advance width="1710.17378461"/>
  <outline>
    <contour>
      <point x="1592.93221967" y="296.561909943" type="curve" smooth="yes"/>
      <point x="1592.93221967" y="577.939663544" type="line"/>
      <point x="1694.72432104" y="606.688876801" type="line"/>
      <point x="1694.72432104" y="738.434943085" type="line"/>
      <point x="1152.07952272" y="738.434943085" type="line"/>
      <point x="1152.07952272" y="606.688876801" type="line"/>
      <point x="1262.96004436" y="580.126966858" type="line"/>
      <point x="1262.96004436" y="296.126966858" type="line" smooth="yes"/>
      <point x="1262.96004436" y="190.809549713"/>
      <point x="1220.63320381" y="121.746066284"/>
      <point x="1113.85847942" y="121.746066284" type="curve" smooth="yes"/>
      <point x="1007.91269695" y="121.746066284"/>
      <point x="951.820059149" y="169.311123199"/>
      <point x="949.638479424" y="297.939663544" type="curve" smooth="yes"/>
      <point x="949.638479424" y="1130.19359726" type="line"/>
      <point x="1059.37584162" y="1156.38090057" type="line"/>
      <point x="1059.37584162" y="1292.0" type="line"/>
      <point x="462.92472439" y="1292.0" type="line"/>
      <point x="465.106304115" y="1156.38090057" type="line"/>
      <point x="623.457883841" y="1130.19359726" type="line"/>
      <point x="623.457883841" y="772.187303314" type="line"/>
      <point x="593.753681097" y="778.187303314"/>
      <point x="513.720521646" y="788.187303314"/>
      <point x="436.126304115" y="788.187303314" type="curve" smooth="yes"/>
      <point x="161.902608231" y="788.187303314"/>
      <point x="35.3410432922" y="605.003146973"/>
      <point x="35.3410432922" y="372.374606628" type="curve" smooth="yes"/>
      <point x="35.3410432922" y="119.250786743"/>
      <point x="199.98" y="-18.3746066284"/>
      <point x="427.714202744" y="-18.3746066284" type="curve" smooth="yes"/>
      <point x="600.307391769" y="-18.3746066284"/>
      <point x="685.323174239" y="10.936516571"/>
      <point x="754.134217531" y="55.8126966858" type="curve"/>
      <point x="832.97633369" y="7.62539337158"/>
      <point x="950.201087654" y="-14.0"/>
      <point x="1099.7305808" y="-14.0" type="curve" smooth="yes"/>
      <point x="1381.59429147" y="-14.0"/>
      <point x="1592.93221967" y="80.3142701721"/>
    </contour>
    <contour>
      <point x="623.457883841" y="644.815843658" type="curve"/>
      <point x="623.457883841" y="308.936516571" type="line" smooth="yes"/>
      <point x="623.457883841" y="264.749213257"/>
      <point x="631.041043292" y="217.311123199"/>
      <point x="642.206304115" y="184.434943085" type="curve"/>
      <point x="624.448420274" y="145.371459656"/>
      <point x="581.140014787" y="123.371459656"/>
      <point x="543.281072867" y="123.371459656" type="curve" smooth="yes"/>
      <point x="412.565826831" y="123.371459656"/>
      <point x="380.479537503" y="245.057189484"/>
      <point x="380.479537503" y="373.812696686" type="curve" smooth="yes"/>
      <point x="380.479537503" y="546.066630402"/>
      <point x="423.473725459" y="650.066630402"/>
      <point x="524.218435062" y="650.066630402" type="curve" smooth="yes"/>
      <point x="571.423159451" y="650.066630402"/>
      <point x="594.220521646" y="650.628540344"/>
    </contour>
  </outline>
</glyph>
<glyph name="komidzje-cy.sc" format="1">
  <advance width="1164.6755734"/>
  <outline>
    <contour>
      <point x="397.852891235" y="750.277807999" type="curve" smooth="yes"/>
      <point x="316.990789863" y="750.277807999" type="line"/>
      <point x="316.990789863" y="602.501573486" type="line"/>
      <point x="409.018152058" y="602.501573486" type="line" smooth="yes"/>
      <point x="565.493398093" y="602.501573486"/>
      <point x="594.102325227" y="461.722192001"/>
      <point x="594.102325227" y="358.779381485" type="curve" smooth="yes"/>
      <point x="594.102325227" y="224.876180115"/>
      <point x="541.386796187" y="139.90320137"/>
      <point x="464.421013718" y="142.090504684" type="curve"/>
      <point x="464.421013718" y="0.0" type="line"/>
      <point x="884.077376982" y="0.0" type="line"/>
      <point x="893.894485748" y="-42.2778079987"/>
      <point x="923.241072867" y="-251.184156342"/>
      <point x="925.94186273" y="-374.682582855" type="curve"/>
      <point x="1084.30241395" y="-374.682582855" type="line"/>
      <point x="1092.45266738" y="-303.285947418"/>
      <point x="1129.64426189" y="-8.25393371582"/>
      <point x="1127.72004436" y="159.401627884" type="curve"/>
      <point x="905.435305185" y="159.401627884" type="line"/>
      <point x="926.675036968" y="182.307976227"/>
      <point x="966.196348477" y="242.217471542"/>
      <point x="966.196348477" y="349.498426514" type="curve" smooth="yes"/>
      <point x="966.196348477" y="535.498426514"/>
      <point x="835.733978889" y="674.3444384"/>
      <point x="639.833189026" y="682.0" type="curve"/>
      <point x="781.203457243" y="711.093651657"/>
      <point x="901.901087654" y="809.625393372"/>
      <point x="901.901087654" y="1009.62539337" type="curve" smooth="yes"/>
      <point x="901.901087654" y="1209.62539337"/>
      <point x="749.15608026" y="1306.0"/>
      <point x="455.869746571" y="1306.0" type="curve" smooth="yes"/>
      <point x="338.858956708" y="1306.0"/>
      <point x="136.818927133" y="1260.37460663"/>
      <point x="72.4189271332" y="1256.56190994" type="curve"/>
      <point x="102.179985213" y="950.815843658" type="line"/>
      <point x="277.52633369" y="950.815843658" type="line"/>
      <point x="313.103442455" y="1131.78252846" type="line"/>
      <point x="320.320014787" y="1154.09679863"/>
      <point x="343.68447096" y="1179.90949532"/>
      <point x="415.248673704" y="1179.90949532" type="curve" smooth="yes"/>
      <point x="505.766289328" y="1179.90949532"/>
      <point x="558.996542757" y="1127.75236023"/>
      <point x="558.424963032" y="998.561909943" type="curve"/>
      <point x="558.424963032" y="794.3444384"/>
      <point x="473.775767682" y="750.277807999"/>
    </contour>
  </outline>
</glyph>
<glyph name="komilje-cy.sc" format="1">
  <advance width="1837.67351639"/>
  <outline>
    <contour>
      <point x="498.977645199" y="-144.0" type="move" name="mark0"/>
    </contour>
    <contour>
      <point x="1718.82195145" y="296.561909943" type="curve" smooth="yes"/>
      <point x="1718.82195145" y="577.939663544" type="line"/>
      <point x="1822.22405283" y="606.688876801" type="line"/>
      <point x="1822.22405283" y="740.434943085" type="line"/>
      <point x="1277.9692545" y="740.434943085" type="line"/>
      <point x="1277.9692545" y="606.688876801" type="line"/>
      <point x="1391.03135587" y="577.939663544" type="line"/>
      <point x="1391.03135587" y="296.126966858" type="line" smooth="yes"/>
      <point x="1391.03135587" y="190.809549713"/>
      <point x="1348.70451532" y="121.746066284"/>
      <point x="1239.74821121" y="121.746066284" type="curve" smooth="yes"/>
      <point x="1120.14137066" y="121.746066284"/>
      <point x="1075.52821121" y="182.434943085"/>
      <point x="1075.52821121" y="297.939663544" type="curve" smooth="yes"/>
      <point x="1075.52821121" y="1126.38090057" type="line"/>
      <point x="1218.24663148" y="1153.13011383" type="line"/>
      <point x="1218.24663148" y="1292.0" type="line"/>
      <point x="150.21813727" y="1292.0" type="line"/>
      <point x="150.21813727" y="1153.13011383" type="line"/>
      <point x="350.848673704" y="1126.38090057" type="line"/>
      <point x="350.848673704" y="1022.6888768" type="line" smooth="yes"/>
      <point x="350.848673704" y="590.187303314"/>
      <point x="310.703412881" y="360.996853027"/>
      <point x="268.328688491" y="248.307976227" type="curve"/>
      <point x="241.42552904" y="186.809549713"/>
      <point x="216.808688491" y="169.371459656"/>
      <point x="172.19552904" y="169.371459656" type="curve" smooth="yes"/>
      <point x="120.313427668" y="169.371459656"/>
      <point x="93.0481668449" y="173.371459656"/>
      <point x="51.3407898628" y="177.371459656" type="curve"/>
      <point x="69.7271087654" y="0.0" type="line"/>
      <point x="104.318166845" y="-8.37460662842"/>
      <point x="150.074485748" y="-12.1873033142"/>
      <point x="202.737645199" y="-12.1873033142" type="curve" smooth="yes"/>
      <point x="291.030283004" y="-12.1873033142"/>
      <point x="343.588703278" y="40.936516571"/>
      <point x="384.305543827" y="133.685729828" type="curve" smooth="yes"/>
      <point x="459.766065473" y="308.434943085"/>
      <point x="490.718166845" y="679.057189484"/>
      <point x="490.718166845" y="1019.25078674" type="curve" smooth="yes"/>
      <point x="490.718166845" y="1126.38090057" type="line"/>
      <point x="749.91919535" y="1126.38090057" type="line"/>
      <point x="749.91919535" y="308.936516571" type="line" smooth="yes"/>
      <point x="749.91919535" y="97.6253933716"/>
      <point x="879.242891235" y="-14.0"/>
      <point x="1227.8018923" y="-14.0" type="curve" smooth="yes"/>
      <point x="1506.91244352" y="-14.0"/>
      <point x="1718.82195145" y="80.3142701721"/>
    </contour>
  </outline>
</glyph>
<glyph name="kominje-cy.sc" format="1">
  <advance width="1922.17008872"/>
  <outline>
    <contour>
      <point x="1175.29584162" y="297.939663544" type="curve" smooth="yes"/>
      <point x="1175.29584162" y="1128.56820389" type="line"/>
      <point x="1286.43372546" y="1157.13011383" type="line"/>
      <point x="1286.43372546" y="1292.0" type="line"/>
      <point x="716.733144664" y="1292.0" type="line"/>
      <point x="716.733144664" y="1157.13011383" type="line"/>
      <point x="847.505246036" y="1130.7555072" type="line"/>
      <point x="847.505246036" y="741.341291428" type="line"/>
      <point x="495.199522716" y="741.341291428" type="line"/>
      <point x="495.199522716" y="1127.47455223" type="line"/>
      <point x="617.350044362" y="1153.13011383" type="line"/>
      <point x="617.350044362" y="1292.0" type="line"/>
      <point x="59.8007750755" y="1292.0" type="line"/>
      <point x="59.8007750755" y="1153.13011383" type="line"/>
      <point x="165.746557545" y="1128.56820389" type="line"/>
      <point x="165.746557545" y="149.588931198" type="line"/>
      <point x="54.9707750755" y="130.307976227" type="line"/>
      <point x="54.9707750755" y="0.0" type="line"/>
      <point x="604.260566008" y="0.0" type="line"/>
      <point x="604.260566008" y="130.307976227" type="line"/>
      <point x="495.199522716" y="149.588931198" type="line"/>
      <point x="495.199522716" y="570.44123703" type="line"/>
      <point x="847.505246036" y="570.44123703" type="line"/>
      <point x="846.93366631" y="308.936516571" type="line" smooth="yes"/>
      <point x="847.452876447" y="95.0936516571"/>
      <point x="974.542623018" y="-14.0"/>
      <point x="1312.29846464" y="-14.0" type="curve" smooth="yes"/>
      <point x="1592.49980572" y="-14.0"/>
      <point x="1803.31852379" y="80.3142701721"/>
      <point x="1803.31852379" y="296.561909943" type="curve" smooth="yes"/>
      <point x="1803.31852379" y="577.939663544" type="line"/>
      <point x="1905.62983529" y="605.595225143" type="line"/>
      <point x="1905.62983529" y="739.341291428" type="line"/>
      <point x="1364.07582683" y="739.341291428" type="line"/>
      <point x="1364.07582683" y="605.595225143" type="line"/>
      <point x="1476.61871807" y="577.939663544" type="line"/>
      <point x="1476.61871807" y="295.033315201" type="line" smooth="yes"/>
      <point x="1476.61871807" y="190.809549713"/>
      <point x="1433.20108765" y="121.746066284"/>
      <point x="1323.67320381" y="121.746066284" type="curve" smooth="yes"/>
      <point x="1225.36295038" y="121.746066284"/>
      <point x="1177.47742134" y="170.404774857"/>
    </contour>
  </outline>
</glyph>
<glyph name="komisje-cy.sc" format="1">
  <advance width="1225.95134108"/>
  <outline>
    <contour>
      <point x="602.06552904" y="-144.0" type="move" name="mark0"/>
    </contour>
    <contour>
      <point x="1102.21740656" y="296.561909943" type="curve" smooth="yes"/>
      <point x="1102.21740656" y="577.939663544" type="line"/>
      <point x="1204.52871807" y="605.595225143" type="line"/>
      <point x="1204.52871807" y="739.341291428" type="line"/>
      <point x="689.672876447" y="739.341291428" type="line"/>
      <point x="689.672876447" y="605.595225143" type="line"/>
      <point x="802.215767682" y="577.939663544" type="line"/>
      <point x="802.215767682" y="295.033315201" type="line" smooth="yes"/>
      <point x="802.215767682" y="190.809549713"/>
      <point x="759.99366631" y="119.55876297"/>
      <point x="652.494739177" y="121.746066284" type="curve" smooth="yes"/>
      <point x="501.587153127" y="121.746066284"/>
      <point x="423.796914485" y="365.063483429"/>
      <point x="423.796914485" y="668.0" type="curve" smooth="yes"/>
      <point x="423.796914485" y="1018.87618011"/>
      <point x="506.050566008" y="1179.90949532"/>
      <point x="674.520014787" y="1179.90949532" type="curve" smooth="yes"/>
      <point x="758.907362195" y="1179.90949532"/>
      <point x="787.101818368" y="1153.19045029"/>
      <point x="808.603398093" y="1132.09679863" type="curve"/>
      <point x="857.112876447" y="910.972978745" type="line"/>
      <point x="1086.99871807" y="910.972978745" type="line"/>
      <point x="1108.03345724" y="1257.28095497" type="line"/>
      <point x="1047.21555861" y="1270.37460663"/>
      <point x="850.010014787" y="1311.28095497"/>
      <point x="680.283695885" y="1311.28095497" type="curve" smooth="yes"/>
      <point x="297.666304115" y="1311.28095497"/>
      <point x="46.6634128807" y="1059.6555616"/>
      <point x="46.6634128807" y="631.093651657" type="curve" smooth="yes"/>
      <point x="46.6634128807" y="248.658708572"/>
      <point x="267.700253429" y="-14.0"/>
      <point x="641.639210137" y="-14.0" type="curve" smooth="yes"/>
      <point x="906.307645199" y="-14.0"/>
      <point x="1102.21740656" y="82.5015734863"/>
    </contour>
  </outline>
</glyph>
<glyph name="komitje-cy.sc" format="1">
  <advance width="1524.13798735"/>
  <outline>
    <contour>
      <point x="699.460044362" y="-144.0" type="move" name="mark0"/>
    </contour>
    <contour>
      <point x="764.121892304" y="297.939663544" type="curve" smooth="yes"/>
      <point x="764.121892304" y="1149.13011383" type="line"/>
      <point x="950.192116159" y="1126.91264229" type="line"/>
      <point x="1007.84238438" y="861.220618515" type="line"/>
      <point x="1184.22715313" y="861.220618515" type="line"/>
      <point x="1154.51846464" y="1292.0" type="line"/>
      <point x="54.5039345268" y="1292.0" type="line"/>
      <point x="34.1978838409" y="861.220618515" type="line"/>
      <point x="192.039224924" y="861.220618515" type="line"/>
      <point x="251.76633369" y="1126.91264229" type="line"/>
      <point x="436.902876447" y="1149.13011383" type="line"/>
      <point x="436.902876447" y="308.936516571" type="line" smooth="yes"/>
      <point x="436.902876447" y="95.4380900574"/>
      <point x="566.745782469" y="-14.0"/>
      <point x="915.304783539" y="-14.0" type="curve" smooth="yes"/>
      <point x="1193.94849421" y="-14.0"/>
      <point x="1404.14326296" y="80.5015734863"/>
      <point x="1404.14326296" y="296.561909943" type="curve" smooth="yes"/>
      <point x="1404.14326296" y="577.939663544" type="line"/>
      <point x="1507.59773392" y="605.595225143" type="line"/>
      <point x="1507.59773392" y="739.341291428" type="line"/>
      <point x="964.381355871" y="739.341291428" type="line"/>
      <point x="964.381355871" y="605.595225143" type="line"/>
      <point x="1077.44345724" y="577.939663544" type="line"/>
      <point x="1077.44345724" y="295.033315201" type="line" smooth="yes"/>
      <point x="1077.44345724" y="190.622246399"/>
      <point x="1034.02582683" y="121.746066284"/>
      <point x="925.069522716" y="121.746066284" type="curve" smooth="yes"/>
      <point x="804.995841618" y="121.746066284"/>
      <point x="764.121892304" y="182.060336456"/>
    </contour>
  </outline>
</glyph>
<glyph name="komizje-cy.sc" format="1">
  <advance width="1726.57903064"/>
  <outline>
    <contour>
      <point x="1610.99983529" y="296.561909943" type="curve" smooth="yes"/>
      <point x="1610.99983529" y="577.939663544" type="line"/>
      <point x="1710.03877721" y="605.595225143" type="line"/>
      <point x="1710.03877721" y="739.528594742" type="line"/>
      <point x="1169.00397889" y="739.528594742" type="line"/>
      <point x="1169.00397889" y="605.595225143" type="line"/>
      <point x="1281.54687012" y="579.033315201" type="line"/>
      <point x="1281.54687012" y="295.033315201" type="line" smooth="yes"/>
      <point x="1281.54687012" y="190.622246399"/>
      <point x="1239.73923971" y="121.746066284"/>
      <point x="1130.26372546" y="121.746066284" type="curve" smooth="yes"/>
      <point x="1023.01767477" y="121.746066284"/>
      <point x="967.706095048" y="166.622246399"/>
      <point x="967.706095048" y="297.939663544" type="curve" smooth="yes"/>
      <point x="967.706095048" y="517.595225143"/>
      <point x="834.0716093" y="677.625393372"/>
      <point x="631.106870123" y="682.0" type="curve"/>
      <point x="770.347928203" y="700.3444384"/>
      <point x="901.901087654" y="799.063483429"/>
      <point x="901.901087654" y="1009.62539337" type="curve" smooth="yes"/>
      <point x="901.901087654" y="1209.62539337"/>
      <point x="749.15608026" y="1306.0"/>
      <point x="455.869746571" y="1306.0" type="curve" smooth="yes"/>
      <point x="338.858956708" y="1306.0"/>
      <point x="136.818927133" y="1260.37460663"/>
      <point x="72.4189271332" y="1256.56190994" type="curve"/>
      <point x="102.179985213" y="950.815843658" type="line"/>
      <point x="277.52633369" y="950.815843658" type="line"/>
      <point x="313.103442455" y="1131.78252846" type="line"/>
      <point x="320.320014787" y="1154.09679863"/>
      <point x="343.68447096" y="1179.90949532"/>
      <point x="415.248673704" y="1179.90949532" type="curve" smooth="yes"/>
      <point x="505.766289328" y="1179.90949532"/>
      <point x="558.996542757" y="1127.75236023"/>
      <point x="558.424963032" y="998.561909943" type="curve"/>
      <point x="558.424963032" y="794.3444384"/>
      <point x="473.775767682" y="750.277807999"/>
      <point x="398.372101372" y="750.277807999" type="curve" smooth="yes"/>
      <point x="316.990789863" y="750.277807999" type="line"/>
      <point x="316.990789863" y="602.501573486" type="line"/>
      <point x="409.537362195" y="602.501573486" type="line" smooth="yes"/>
      <point x="564.193129877" y="602.501573486"/>
      <point x="594.102325227" y="454.471405258"/>
      <point x="594.102325227" y="308.936516571" type="curve" smooth="yes"/>
      <point x="594.102325227" y="75.7523602295"/>
      <point x="787.782623018" y="-14.0"/>
      <point x="1119.40819642" y="-14.0" type="curve" smooth="yes"/>
      <point x="1400.75269695" y="-14.0"/>
      <point x="1610.99983529" y="81.5952251434"/>
    </contour>
  </outline>
</glyph>
<glyph name="lje-cy.sc" format="1">
  <advance width="1696.28530518"/>
  <outline>
    <contour>
      <point x="525.099746571" y="-144.0" type="move" name="mark0"/>
    </contour>
    <contour>
      <point x="1073.9705808" y="725.842864914" type="curve"/>
      <point x="1073.9705808" y="1127.47455223" type="line"/>
      <point x="1215.59821121" y="1153.13011383" type="line"/>
      <point x="1215.59821121" y="1292.0" type="line"/>
      <point x="161.797869054" y="1292.0" type="line"/>
      <point x="161.797869054" y="1153.13011383" type="line"/>
      <point x="352.511043292" y="1128.56820389" type="line"/>
      <point x="352.511043292" y="1021.59522514" type="line" smooth="yes"/>
      <point x="352.511043292" y="588.906348343"/>
      <point x="312.884992606" y="361.184156342"/>
      <point x="271.081847942" y="249.588931198" type="curve"/>
      <point x="246.931847942" y="188.465111313"/>
      <point x="222.886587119" y="170.465111313"/>
      <point x="174.377108765" y="170.465111313" type="curve" smooth="yes"/>
      <point x="120.885007394" y="170.465111313"/>
      <point x="94.1389567078" y="174.465111313"/>
      <point x="51.3407898628" y="176.277807999" type="curve"/>
      <point x="72.4802682167" y="0.0" type="line"/>
      <point x="108.162116159" y="-8.37460662842"/>
      <point x="152.256065473" y="-13.2809549713"/>
      <point x="206.010014787" y="-13.2809549713" type="curve" smooth="yes"/>
      <point x="289.887123553" y="-13.2809549713"/>
      <point x="344.679493141" y="40.936516571"/>
      <point x="387.058703278" y="134.966684799" type="curve" smooth="yes"/>
      <point x="462.519224924" y="307.341291428"/>
      <point x="492.899746571" y="683.80640274"/>
      <point x="492.899746571" y="1018.15713509" type="curve" smooth="yes"/>
      <point x="492.899746571" y="1125.28724892" type="line"/>
      <point x="750.490775076" y="1125.28724892" type="line"/>
      <point x="751.062354801" y="151.588931198" type="line"/>
      <point x="587.828405487" y="130.307976227" type="line"/>
      <point x="587.828405487" y="0.0" type="line"/>
      <point x="921.735812044" y="0.0" type="line" smooth="yes"/>
      <point x="987.745812044" y="0.0"/>
      <point x="1223.75295038" y="-14.0"/>
      <point x="1260.78295038" y="-14.0" type="curve" smooth="yes"/>
      <point x="1520.30716791" y="-14.0"/>
      <point x="1663.17821121" y="136.217471542"/>
      <point x="1663.17821121" y="388.561909943" type="curve" smooth="yes"/>
      <point x="1663.17821121" y="611.6555616"/>
      <point x="1542.69005915" y="743.6555616"/>
      <point x="1269.19505176" y="743.6555616" type="curve" smooth="yes"/>
      <point x="1214.82163887" y="743.6555616"/>
      <point x="1092.50952272" y="730.561909943"/>
    </contour>
    <contour>
      <point x="1073.9705808" y="138.307976227" type="curve"/>
      <point x="1073.9705808" y="588.09679863" type="line"/>
      <point x="1086.06952272" y="590.815843658"/>
      <point x="1140.49530518" y="597.909495316"/>
      <point x="1173.7816093" y="597.909495316" type="curve" smooth="yes"/>
      <point x="1286.52500739" y="597.909495316"/>
      <point x="1330.60998521" y="532.501573486"/>
      <point x="1330.60998521" y="363.625393372" type="curve" smooth="yes"/>
      <point x="1330.60998521" y="242.525447769"/>
      <point x="1303.40606547" y="122.307976227"/>
      <point x="1153.05660191" y="122.307976227" type="curve" smooth="yes"/>
      <point x="1123.82372546" y="122.307976227"/>
      <point x="1095.57241395" y="128.307976227"/>
    </contour>
  </outline>
</glyph>
<glyph name="nje-cy.sc" format="1">
  <advance width="1785.14503697"/>
  <outline>
    <contour>
      <point x="631.198152058" y="-144.0" type="move" name="mark0"/>
    </contour>
    <contour>
      <point x="1359.66478354" y="747.842864914" type="curve" smooth="yes"/>
      <point x="1164.95952272" y="747.842864914" type="line"/>
      <point x="1164.95952272" y="1130.7555072" type="line"/>
      <point x="1275.11135587" y="1157.13011383" type="line"/>
      <point x="1275.11135587" y="1292.0" type="line"/>
      <point x="717.147615624" y="1292.0" type="line"/>
      <point x="717.147615624" y="1157.13011383" type="line"/>
      <point x="839.350506859" y="1128.56820389" type="line"/>
      <point x="839.350506859" y="732.779381485" type="line"/>
      <point x="493.01794299" y="732.779381485" type="line"/>
      <point x="493.01794299" y="1127.47455223" type="line"/>
      <point x="620.103203813" y="1153.13011383" type="line"/>
      <point x="620.103203813" y="1292.0" type="line"/>
      <point x="56.5284054871" y="1292.0" type="line"/>
      <point x="56.5284054871" y="1153.13011383" type="line"/>
      <point x="165.746557545" y="1128.56820389" type="line"/>
      <point x="165.746557545" y="149.588931198" type="line"/>
      <point x="54.5039345268" y="130.307976227" type="line"/>
      <point x="54.5039345268" y="0.0" type="line"/>
      <point x="618.802935596" y="0.0" type="line"/>
      <point x="618.802935596" y="136.682582855" type="line"/>
      <point x="493.01794299" y="161.431796112" type="line"/>
      <point x="493.01794299" y="577.909495316" type="line"/>
      <point x="839.350506859" y="577.909495316" type="line"/>
      <point x="839.350506859" y="161.431796112" type="line"/>
      <point x="718.13366631" y="136.682582855" type="line"/>
      <point x="718.13366631" y="0.0" type="line"/>
      <point x="1018.13081944" y="0.0" type="line" smooth="yes"/>
      <point x="1082.0116093" y="0.0"/>
      <point x="1329.18400846" y="-14.7190450287"/>
      <point x="1362.05584162" y="-14.7190450287" type="curve" smooth="yes"/>
      <point x="1591.03794299" y="-14.7190450287"/>
      <point x="1755.82952272" y="128.966684799"/>
      <point x="1755.82952272" y="386.374606628" type="curve" smooth="yes"/>
      <point x="1755.82952272" y="613.6555616"/>
      <point x="1598.82609505" y="747.842864914"/>
    </contour>
    <contour>
      <point x="1164.95952272" y="136.277807999" type="curve"/>
      <point x="1164.95952272" y="606.471405258" type="line"/>
      <point x="1264.25134108" y="606.471405258" type="line" smooth="yes"/>
      <point x="1359.02289123" y="606.471405258"/>
      <point x="1420.50813727" y="559.6555616"/>
      <point x="1420.50813727" y="368.906348343" type="curve" smooth="yes"/>
      <point x="1420.50813727" y="245.80640274"/>
      <point x="1394.44737698" y="120.839717941"/>
      <point x="1243.52633369" y="120.839717941" type="curve" smooth="yes"/>
      <point x="1211.43555861" y="120.839717941"/>
      <point x="1181.73135587" y="129.184156342"/>
    </contour>
  </outline>
</glyph>
<glyph name="obarred-cy.sc" format="1">
  <advance width="1162.74238438"/>
  <outline>
    <contour>
      <point x="590.38105808" y="1288.40477486" type="move" name="top"/>
    </contour>
    <contour>
      <point x="577.138956708" y="-144.0" type="move" name="mark0"/>
    </contour>
    <contour>
      <point x="587.680268217" y="1311.28095497" type="curve" smooth="yes"/>
      <point x="250.40472439" y="1312.37460663"/>
      <point x="47.3921013718" y="1051.28095497"/>
      <point x="47.3921013718" y="647.842864914" type="curve" smooth="yes"/>
      <point x="47.3921013718" y="249.093651657"/>
      <point x="189.63919535" y="-21.6253933716"/>
      <point x="576.100536433" y="-20.0" type="curve" smooth="yes"/>
      <point x="916.129239712" y="-18.3746066284"/>
      <point x="1115.350283" y="268.404774857"/>
      <point x="1115.350283" y="673.123819885" type="curve" smooth="yes"/>
      <point x="1115.350283" y="1056.56190994"/>
      <point x="979.595558614" y="1309.09365166"/>
    </contour>
    <contour>
      <point x="407.12533476" y="588.501573486" type="curve"/>
      <point x="755.669419205" y="588.501573486" type="line"/>
      <point x="746.061788793" y="272.966684799"/>
      <point x="683.437869054" y="111.746066284"/>
      <point x="580.878166845" y="111.746066284" type="curve" smooth="yes"/>
      <point x="480.761892304" y="111.746066284"/>
      <point x="411.902965171" y="232.598372116"/>
    </contour>
    <contour>
      <point x="757.85099893" y="713.685729828" type="curve"/>
      <point x="408.216124622" y="713.685729828" type="line"/>
      <point x="413.460595583" y="1030.3444384"/>
      <point x="474.526884911" y="1181.722192"/>
      <point x="583.526587119" y="1181.722192" type="curve" smooth="yes"/>
      <point x="684.733651523" y="1181.722192"/>
      <point x="751.463368519" y="1078.52544777"/>
    </contour>
  </outline>
</glyph>
<glyph name="pe-cy.sc" format="1">
  <advance width="1306.81344246"/>
  <outline>
    <contour>
      <point x="837.430775076" y="0.0" type="move" name="bottomright"/>
    </contour>
    <contour>
      <point x="53.9323548012" y="1292.0" type="line"/>
      <point x="53.9323548012" y="1153.13011383" type="line"/>
      <point x="166.265767682" y="1127.47455223" type="line"/>
      <point x="166.265767682" y="149.588931198" type="line"/>
      <point x="55.4376156242" y="130.307976227" type="line"/>
      <point x="55.4376156242" y="0.0" type="line"/>
      <point x="600.726348477" y="0.0" type="line"/>
      <point x="600.726348477" y="130.307976227" type="line"/>
      <point x="493.537153127" y="149.588931198" type="line"/>
      <point x="493.537153127" y="1149.16028206" type="line"/>
      <point x="813.795499465" y="1149.16028206" type="line"/>
      <point x="813.795499465" y="149.401627884" type="line"/>
      <point x="711.798405487" y="130.307976227" type="line"/>
      <point x="711.798405487" y="0.0" type="line"/>
      <point x="1256.46318903" y="0.0" type="line"/>
      <point x="1256.46318903" y="130.307976227" type="line"/>
      <point x="1138.88530518" y="151.588931198" type="line"/>
      <point x="1138.88530518" y="1128.7555072" type="line"/>
      <point x="1251.21871807" y="1155.13011383" type="line"/>
      <point x="1251.21871807" y="1292.0" type="line"/>
    </contour>
  </outline>
</glyph>
<glyph name="pedescender-cy.sc" format="1">
  <advance width="1340.2089715"/>
  <outline>
    <contour>
      <point x="1307.72582683" y="151.588931198" type="curve"/>
      <point x="1138.88530518" y="151.588931198" type="line"/>
      <point x="1138.88530518" y="1128.7555072" type="line"/>
      <point x="1251.21871807" y="1155.13011383" type="line"/>
      <point x="1251.21871807" y="1292.0" type="line"/>
      <point x="53.9323548012" y="1292.0" type="line"/>
      <point x="53.9323548012" y="1153.13011383" type="line"/>
      <point x="166.265767682" y="1127.47455223" type="line"/>
      <point x="166.265767682" y="149.588931198" type="line"/>
      <point x="55.4376156242" y="130.307976227" type="line"/>
      <point x="55.4376156242" y="0.0" type="line"/>
      <point x="600.726348477" y="0.0" type="line"/>
      <point x="600.726348477" y="130.307976227" type="line"/>
      <point x="493.537153127" y="149.588931198" type="line"/>
      <point x="493.537153127" y="1149.16028206" type="line"/>
      <point x="813.795499465" y="1149.16028206" type="line"/>
      <point x="813.795499465" y="149.401627884" type="line"/>
      <point x="711.798405487" y="130.307976227" type="line"/>
      <point x="711.798405487" y="0.0" type="line"/>
      <point x="1042.26736219" y="0.0" type="line"/>
      <point x="1067.30315945" y="-57.1841563416"/>
      <point x="1101.99895671" y="-310.247639771"/>
      <point x="1103.08974657" y="-370.307976227" type="curve"/>
      <point x="1269.65740656" y="-370.307976227" type="line"/>
      <point x="1276.72135587" y="-336.060336456"/>
      <point x="1307.72582683" y="5.25708068848"/>
    </contour>
  </outline>
</glyph>
<glyph name="pemiddlehook-cy.sc" format="1">
  <advance width="1837.55531997"/>
  <outline>
    <contour>
      <point x="617.122623018" y="-144.0" type="move" name="mark0"/>
    </contour>
    <contour>
      <point x="1138.88530518" y="682.906348343" type="curve"/>
      <point x="1138.88530518" y="1128.7555072" type="line"/>
      <point x="1251.21871807" y="1155.13011383" type="line"/>
      <point x="1251.21871807" y="1292.0" type="line"/>
      <point x="53.9323548012" y="1292.0" type="line"/>
      <point x="53.9323548012" y="1153.13011383" type="line"/>
      <point x="166.265767682" y="1127.47455223" type="line"/>
      <point x="166.265767682" y="149.588931198" type="line"/>
      <point x="55.4376156242" y="130.307976227" type="line"/>
      <point x="55.4376156242" y="0.0" type="line"/>
      <point x="600.726348477" y="0.0" type="line"/>
      <point x="600.726348477" y="130.307976227" type="line"/>
      <point x="493.537153127" y="149.588931198" type="line"/>
      <point x="493.537153127" y="1149.16028206" type="line"/>
      <point x="813.795499465" y="1149.16028206" type="line"/>
      <point x="813.795499465" y="149.401627884" type="line"/>
      <point x="711.798405487" y="130.307976227" type="line"/>
      <point x="711.798405487" y="0.0" type="line"/>
      <point x="1256.46318903" y="0.0" type="line"/>
      <point x="1256.46318903" y="130.307976227" type="line"/>
      <point x="1138.88530518" y="151.588931198" type="line"/>
      <point x="1138.88530518" y="527.474552231" type="line"/>
      <point x="1167.44634848" y="558.036462173"/>
      <point x="1228.57397889" y="585.879327087"/>
      <point x="1306.21608026" y="585.879327087" type="curve" smooth="yes"/>
      <point x="1422.23184794" y="585.879327087"/>
      <point x="1465.49236959" y="489.190450287"/>
      <point x="1465.49236959" y="241.160282059" type="curve" smooth="yes"/>
      <point x="1465.49236959" y="-52.3444384003"/>
      <point x="1405.45552904" y="-203.909495316"/>
      <point x="1296.34660191" y="-203.909495316" type="curve" smooth="yes"/>
      <point x="1206.23" y="-203.909495316"/>
      <point x="1180.00315945" y="-191.879327087"/>
      <point x="1162.24078986" y="-183.692023773" type="curve"/>
      <point x="1175.84947835" y="-328.906348343" type="line"/>
      <point x="1201.71421753" y="-340.0"/>
      <point x="1256.09211616" y="-362.404774857"/>
      <point x="1344.59871807" y="-362.404774857" type="curve" smooth="yes"/>
      <point x="1605.89004436" y="-362.404774857"/>
      <point x="1791.04901586" y="-123.963537827"/>
      <point x="1791.04901586" y="290.3444384" type="curve" smooth="yes"/>
      <point x="1791.04901586" y="651.866739197"/>
      <point x="1625.04844985" y="751.842864914"/>
      <point x="1382.04767477" y="751.842864914" type="curve" smooth="yes"/>
      <point x="1301.1855734" y="751.842864914"/>
      <point x="1176.90135587" y="708.906348343"/>
    </contour>
  </outline>
</glyph>
<glyph name="reversedze-cy.sc" format="1">
  <advance width="1012.13555861"/>
  <outline>
    <contour>
      <point x="937.79241395" y="52.3746066284" type="curve"/>
      <point x="932.800819437" y="360.181009369" type="line"/>
      <point x="773.192369588" y="361.244492798" type="line"/>
      <point x="700.585260823" y="147.498426514" type="line"/>
      <point x="682.670268217" y="125.528594742"/>
      <point x="632.712384376" y="101.90320137"/>
      <point x="577.300551221" y="101.90320137" type="curve" smooth="yes"/>
      <point x="464.295305185" y="101.90320137"/>
      <point x="423.844798326" y="202.465111313"/>
      <point x="423.844798326" y="360.217471542" type="curve" smooth="yes"/>
      <point x="423.844798326" y="466.906348343"/>
      <point x="457.340580795" y="583.909495316"/>
      <point x="587.946601907" y="583.909495316" type="curve"/>
      <point x="713.164500535" y="576.815843658" type="line"/>
      <point x="713.164500535" y="741.498426514" type="line"/>
      <point x="602.903442455" y="732.779381485" type="line"/>
      <point x="504.645558614" y="732.779381485"/>
      <point x="423.997421344" y="796.060336456"/>
      <point x="423.997421344" y="982.779381485" type="curve" smooth="yes"/>
      <point x="423.997421344" y="1110.87618011"/>
      <point x="495.147153127" y="1179.722192"/>
      <point x="591.533189026" y="1179.722192" type="curve" smooth="yes"/>
      <point x="657.591072867" y="1179.722192"/>
      <point x="688.071847942" y="1152.09679863"/>
      <point x="694.769210137" y="1132.09679863" type="curve"/>
      <point x="740.682637805" y="905.849158859" type="line"/>
      <point x="916.028986282" y="905.849158859" type="line"/>
      <point x="935.453725459" y="1253.09365166" type="line"/>
      <point x="869.962935596" y="1260.3444384"/>
      <point x="684.132130946" y="1306.0"/>
      <point x="546.082116159" y="1306.0" type="curve" smooth="yes"/>
      <point x="237.472354801" y="1306.0"/>
      <point x="82.1836663101" y="1175.43809006"/>
      <point x="82.1836663101" y="980.374606628" type="curve" smooth="yes"/>
      <point x="82.1836663101" y="781.093651657"/>
      <point x="199.918658916" y="699.093651657"/>
      <point x="357.650775076" y="665.625393372" type="curve"/>
      <point x="161.697615624" y="656.719045029"/>
      <point x="53.3084054871" y="529.6555616"/>
      <point x="53.3084054871" y="370.622246399" type="curve" smooth="yes"/>
      <point x="53.3084054871" y="153.341291428"/>
      <point x="143.983129877" y="-20.0"/>
      <point x="555.589493141" y="-20.0" type="curve" smooth="yes"/>
      <point x="751.808986282" y="-20.0"/>
      <point x="858.90241395" y="45.0936516571"/>
    </contour>
  </outline>
</glyph>
<glyph name="semisoftsign-cy.sc" format="1">
  <advance width="1120.21503697"/>
  <outline>
    <contour>
      <point x="493.01794299" y="769.782528458" type="curve"/>
      <point x="493.01794299" y="907.190450287" type="line"/>
      <point x="708.552950384" y="907.190450287" type="line"/>
      <point x="708.552950384" y="1027.09365166" type="line"/>
      <point x="493.01794299" y="1027.09365166" type="line"/>
      <point x="493.01794299" y="1128.56820389" type="line"/>
      <point x="664.044530109" y="1157.13011383" type="line"/>
      <point x="664.044530109" y="1292.0" type="line"/>
      <point x="56.5807750755" y="1292.0" type="line"/>
      <point x="56.5807750755" y="1157.13011383" type="line"/>
      <point x="165.746557545" y="1130.7555072" type="line"/>
      <point x="165.746557545" y="1027.09365166" type="line"/>
      <point x="35.2363041153" y="1027.09365166" type="line"/>
      <point x="35.2363041153" y="907.190450287" type="line"/>
      <point x="165.746557545" y="907.190450287" type="line"/>
      <point x="165.746557545" y="149.588931198" type="line"/>
      <point x="55.5423548012" y="130.307976227" type="line"/>
      <point x="55.5423548012" y="0.0" type="line"/>
      <point x="297.670789863" y="0.0" type="line" smooth="yes"/>
      <point x="452.553978889" y="0.0"/>
      <point x="542.500014787" y="-14.0"/>
      <point x="666.740834225" y="-14.0" type="curve" smooth="yes"/>
      <point x="895.151355871" y="-14.0"/>
      <point x="1087.10794299" y="145.123819885"/>
      <point x="1087.10794299" y="401.625393372" type="curve" smooth="yes"/>
      <point x="1087.10794299" y="630.876180115"/>
      <point x="962.828211207" y="776.157135086"/>
      <point x="691.46241395" y="776.157135086" type="curve"/>
      <point x="669.084008463" y="776.157135086"/>
      <point x="499.034500535" y="770.876180115"/>
    </contour>
    <contour>
      <point x="493.01794299" y="134.839717941" type="curve"/>
      <point x="493.01794299" y="633.317417145" type="line"/>
      <point x="495.919239712" y="634.411068802"/>
      <point x="584.421355871" y="637.692023773"/>
      <point x="593.348181632" y="637.692023773" type="curve" smooth="yes"/>
      <point x="705.572369588" y="637.692023773"/>
      <point x="749.085767682" y="557.909495316"/>
      <point x="749.085767682" y="385.063483429" type="curve" smooth="yes"/>
      <point x="749.085767682" y="260.181009369"/>
      <point x="723.544217531" y="123.027021255"/>
      <point x="573.713964101" y="123.027021255" type="curve" smooth="yes"/>
      <point x="543.495036968" y="123.027021255"/>
      <point x="514.100566008" y="126.839717941"/>
    </contour>
  </outline>
</glyph>
<glyph name="sha-cy.sc" format="1">
  <advance width="1885.85980572"/>
  <outline>
    <contour>
      <point x="581.754992606" y="-144.0" type="move" name="mark0"/>
    </contour>
    <contour>
      <point x="54.9707750755" y="1292.0" type="line"/>
      <point x="54.9707750755" y="1153.13011383" type="line"/>
      <point x="166.265767682" y="1128.56820389" type="line"/>
      <point x="166.265767682" y="151.588931198" type="line"/>
      <point x="52.0126230179" y="130.307976227" type="line"/>
      <point x="52.0126230179" y="0.0" type="line"/>
      <point x="1834.41876243" y="0.0" type="line"/>
      <point x="1834.41876243" y="130.307976227" type="line"/>
      <point x="1719.59403804" y="149.401627884" type="line"/>
      <point x="1719.59403804" y="1128.56820389" type="line"/>
      <point x="1831.46061037" y="1153.13011383" type="line"/>
      <point x="1831.46061037" y="1292.0" type="line"/>
      <point x="1290.06371067" y="1292.0" type="line"/>
      <point x="1290.06371067" y="1153.13011383" type="line"/>
      <point x="1394.50423232" y="1127.47455223" type="line"/>
      <point x="1394.50423232" y="149.588931198" type="line"/>
      <point x="1108.46138545" y="149.588931198" type="line"/>
      <point x="1108.46138545" y="1128.56820389" type="line"/>
      <point x="1216.0695375" y="1153.13011383" type="line"/>
      <point x="1216.0695375" y="1292.0" type="line"/>
      <point x="674.51552904" y="1292.0" type="line"/>
      <point x="674.51552904" y="1153.13011383" type="line"/>
      <point x="782.747630412" y="1128.56820389" type="line"/>
      <point x="782.747630412" y="149.588931198" type="line"/>
      <point x="493.01794299" y="149.588931198" type="line"/>
      <point x="493.01794299" y="1128.7555072" type="line"/>
      <point x="596.467928203" y="1153.13011383" type="line"/>
      <point x="596.467928203" y="1292.0" type="line"/>
    </contour>
  </outline>
</glyph>
<glyph name="shcha-cy.sc" format="1">
  <advance width="1933.0735016"/>
  <outline>
    <contour>
      <point x="1900.90008872" y="151.588931198" type="curve"/>
      <point x="1719.59403804" y="151.588931198" type="line"/>
      <point x="1719.59403804" y="1128.56820389" type="line"/>
      <point x="1831.46061037" y="1153.13011383" type="line"/>
      <point x="1831.46061037" y="1292.0" type="line"/>
      <point x="1290.06371067" y="1292.0" type="line"/>
      <point x="1290.06371067" y="1153.13011383" type="line"/>
      <point x="1394.50423232" y="1127.47455223" type="line"/>
      <point x="1394.50423232" y="149.588931198" type="line"/>
      <point x="1108.46138545" y="149.588931198" type="line"/>
      <point x="1108.46138545" y="1128.56820389" type="line"/>
      <point x="1216.0695375" y="1153.13011383" type="line"/>
      <point x="1216.0695375" y="1292.0" type="line"/>
      <point x="674.51552904" y="1292.0" type="line"/>
      <point x="674.51552904" y="1153.13011383" type="line"/>
      <point x="782.747630412" y="1128.56820389" type="line"/>
      <point x="782.747630412" y="149.588931198" type="line"/>
      <point x="493.01794299" y="149.588931198" type="line"/>
      <point x="493.01794299" y="1128.56820389" type="line"/>
      <point x="596.467928203" y="1153.13011383" type="line"/>
      <point x="596.467928203" y="1292.0" type="line"/>
      <point x="54.9707750755" y="1292.0" type="line"/>
      <point x="54.9707750755" y="1153.13011383" type="line"/>
      <point x="166.265767682" y="1128.56820389" type="line"/>
      <point x="166.265767682" y="151.588931198" type="line"/>
      <point x="52.0126230179" y="130.307976227" type="line"/>
      <point x="52.0126230179" y="0.0" type="line"/>
      <point x="1634.35083422" y="0.0" type="line"/>
      <point x="1660.47742134" y="-54.2778079987"/>
      <point x="1695.74479833" y="-307.685729828"/>
      <point x="1696.26400846" y="-370.307976227" type="curve"/>
      <point x="1861.74087859" y="-370.307976227" type="line"/>
      <point x="1868.59534955" y="-339.111231995"/>
      <point x="1900.53798735" y="10.8095497131"/>
    </contour>
  </outline>
</glyph>
<glyph name="shha-cy.sc" format="1">
  <advance width="1216.50979093"/>
  <outline>
    <contour>
      <point x="40.1231594513" y="1124.0" type="move" name="topleft"/>
    </contour>
    <contour>
      <point x="606.956870123" y="476.0" type="move" name="center"/>
    </contour>
    <contour>
      <point x="623.67633369" y="-168.0" type="move" name="bottom"/>
    </contour>
    <contour>
      <point x="488.759522716" y="768.307976227" type="curve"/>
      <point x="488.759522716" y="1141.50472046" type="line"/>
      <point x="656.304261893" y="1161.69202377" type="line"/>
      <point x="656.304261893" y="1292.0" type="line"/>
      <point x="49.2594635666" y="1292.0" type="line"/>
      <point x="49.2594635666" y="1163.87932709" type="line"/>
      <point x="162.578927133" y="1141.50472046" type="line"/>
      <point x="162.578927133" y="165.431796112" type="line"/>
      <point x="50.8694635666" y="138.869886169" type="line"/>
      <point x="50.8694635666" y="0.0" type="line"/>
      <point x="599.897406557" y="0.0" type="line"/>
      <point x="599.897406557" y="138.869886169" type="line"/>
      <point x="488.759522716" y="163.431796112" type="line"/>
      <point x="488.759522716" y="610.688876801" type="line"/>
      <point x="516.958464636" y="640.876180115"/>
      <point x="571.222652592" y="660.314270172"/>
      <point x="632.088435062" y="660.314270172" type="curve" smooth="yes"/>
      <point x="754.801564938" y="660.314270172"/>
      <point x="775.159985213" y="599.752360229"/>
      <point x="775.159985213" y="383.371459656" type="curve" smooth="yes"/>
      <point x="775.159985213" y="163.244492798" type="line"/>
      <point x="682.513159451" y="138.869886169" type="line"/>
      <point x="682.513159451" y="0.0" type="line"/>
      <point x="1184.27952272" y="0.0" type="line"/>
      <point x="1184.27952272" y="138.869886169" type="line"/>
      <point x="1100.76900107" y="165.431796112" type="line"/>
      <point x="1100.76900107" y="452.869886169" type="line" smooth="yes"/>
      <point x="1100.76900107" y="730.368312683"/>
      <point x="1005.72214573" y="842.307976227"/>
      <point x="746.093189026" y="842.307976227" type="curve" smooth="yes"/>
      <point x="664.764247105" y="842.307976227"/>
      <point x="559.494783539" y="820.682582855"/>
    </contour>
  </outline>
</glyph>
<glyph name="shhadescender-cy.sc" format="1">
  <advance width="1315.49636326"/>
  <outline>
    <contour>
      <point x="58.7189567078" y="1292.0" type="move" name="topleft"/>
    </contour>
    <contour>
      <point x="625.55266738" y="646.0" type="move" name="center"/>
    </contour>
    <contour>
      <point x="641.181341084" y="0.0" type="move" name="bottom"/>
    </contour>
    <contour>
      <point x="68.3744709602" y="0.0" type="line"/>
      <point x="617.40241395" y="0.0" type="line"/>
      <point x="617.40241395" y="139.963537827" type="line"/>
      <point x="506.264530109" y="165.431796112" type="line"/>
      <point x="506.264530109" y="609.595225143" type="line"/>
      <point x="535.554261893" y="640.876180115"/>
      <point x="587.170029575" y="662.314270172"/>
      <point x="649.593442455" y="662.314270172" type="curve" smooth="yes"/>
      <point x="772.306572332" y="662.314270172"/>
      <point x="792.664992606" y="600.658708572"/>
      <point x="792.664992606" y="384.277807999" type="curve" smooth="yes"/>
      <point x="792.664992606" y="164.150841141" type="line"/>
      <point x="701.108956708" y="140.869886169" type="line"/>
      <point x="701.108956708" y="0.0" type="line"/>
      <point x="1016.77369588" y="0.0" type="line"/>
      <point x="1042.900283" y="-56.0905046844"/>
      <point x="1074.32371067" y="-315.341291428"/>
      <point x="1077.59608026" y="-370.307976227" type="curve"/>
      <point x="1244.16374025" y="-370.307976227" type="line"/>
      <point x="1252.31847942" y="-336.060336456"/>
      <point x="1282.23216052" y="7.25708068848"/>
      <point x="1282.23216052" y="151.588931198" type="curve"/>
      <point x="1120.45558819" y="167.431796112" type="line"/>
      <point x="1120.45558819" y="452.869886169" type="line"/>
      <point x="1120.45558819" y="737.746066284"/>
      <point x="1023.1268997" y="842.307976227"/>
      <point x="763.59819642" y="842.307976227" type="curve" smooth="yes"/>
      <point x="674.009776145" y="842.307976227"/>
      <point x="574.246631481" y="819.401627884"/>
      <point x="506.264530109" y="770.307976227" type="curve"/>
      <point x="506.264530109" y="1141.31741714" type="line"/>
      <point x="673.809269286" y="1161.69202377" type="line"/>
      <point x="673.809269286" y="1292.0" type="line"/>
      <point x="68.9460506859" y="1292.0" type="line"/>
      <point x="68.9460506859" y="1163.69202377" type="line"/>
      <point x="181.17472439" y="1141.31741714" type="line"/>
      <point x="181.17472439" y="166.525447769" type="line"/>
      <point x="68.3744709602" y="139.963537827" type="line"/>
    </contour>
  </outline>
</glyph>
<glyph name="tedescender-cy.sc" format="1">
  <advance width="1204.60687012"/>
  <outline>
    <contour>
      <point x="1031.43426189" y="151.588931198" type="curve"/>
      <point x="776.535051756" y="151.588931198" type="line"/>
      <point x="776.535051756" y="1144.7555072" type="line"/>
      <point x="913.572101372" y="1134.7555072" type="line"/>
      <point x="990.856587119" y="733.009440918" type="line"/>
      <point x="1154.72345724" y="733.009440918" type="line"/>
      <point x="1133.74108765" y="1292.0" type="line"/>
      <point x="79.5921013718" y="1292.0" type="line"/>
      <point x="54.9228912346" y="733.009440918" type="line"/>
      <point x="227.463710672" y="733.009440918" type="line"/>
      <point x="303.55266738" y="1134.7555072" type="line"/>
      <point x="447.758405487" y="1144.7555072" type="line"/>
      <point x="447.758405487" y="151.588931198" type="line"/>
      <point x="254.143934527" y="130.307976227" type="line"/>
      <point x="254.143934527" y="0.0" type="line"/>
      <point x="795.374753964" y="0.0" type="line"/>
      <point x="810.02186273" y="-73.7523602295"/>
      <point x="825.240551221" y="-315.147694168"/>
      <point x="824.616601907" y="-370.307976227" type="curve"/>
      <point x="990.665051756" y="-370.307976227" type="line"/>
      <point x="997.519522716" y="-340.549322052"/>
      <point x="1031.12453011" y="5.96353782654"/>
    </contour>
  </outline>
</glyph>
<glyph name="tetse-cy.sc" format="1">
  <advance width="1822.4637994"/>
  <outline>
    <contour>
      <point x="1815.68828514" y="151.588931198" type="curve"/>
      <point x="1635.16329254" y="151.588931198" type="line"/>
      <point x="1635.16329254" y="1127.47455223" type="line"/>
      <point x="1745.99144459" y="1153.13011383" type="line"/>
      <point x="1745.99144459" y="1292.0" type="line"/>
      <point x="1202.9845449" y="1292.0" type="line"/>
      <point x="1202.9845449" y="1153.13011383" type="line"/>
      <point x="1312.82664627" y="1127.47455223" type="line"/>
      <point x="1312.82664627" y="136.465111313" type="line"/>
      <point x="744.344023251" y="136.465111313" type="line"/>
      <point x="744.344023251" y="1147.31741714" type="line"/>
      <point x="890.482950384" y="1127.47455223" type="line"/>
      <point x="956.340327366" y="777.788822403" type="line"/>
      <point x="1109.818509" y="777.788822403" type="line"/>
      <point x="1080.62903064" y="1292.0" type="line"/>
      <point x="61.7249926064" y="1292.0" type="line"/>
      <point x="45.1057824692" y="776.695170746" type="line"/>
      <point x="198.012384376" y="776.695170746" type="line"/>
      <point x="251.871072867" y="1127.47455223" type="line"/>
      <point x="417.072637805" y="1150.59837212" type="line"/>
      <point x="417.072637805" y="149.588931198" type="line"/>
      <point x="240.225514252" y="130.307976227" type="line"/>
      <point x="240.225514252" y="0.0" type="line"/>
      <point x="1544.77587119" y="0.0" type="line"/>
      <point x="1568.20166845" y="-54.2778079987"/>
      <point x="1610.53299475" y="-306.809549713"/>
      <point x="1610.53299475" y="-368.682582855" type="curve"/>
      <point x="1778.19144459" y="-368.682582855" type="line"/>
      <point x="1784.52670542" y="-341.830277023"/>
      <point x="1815.37855336" y="9.74606628418"/>
    </contour>
  </outline>
</glyph>
<glyph name="tse-cy.sc" format="1">
  <advance width="1340.6279282"/>
  <outline>
    <contour>
      <point x="1307.36372546" y="151.588931198" type="curve"/>
      <point x="1138.52320381" y="151.588931198" type="line"/>
      <point x="1138.52320381" y="1128.56820389" type="line"/>
      <point x="1249.87056601" y="1153.13011383" type="line"/>
      <point x="1249.87056601" y="1292.0" type="line"/>
      <point x="703.591296722" y="1292.0" type="line"/>
      <point x="703.591296722" y="1153.13011383" type="line"/>
      <point x="812.914187956" y="1128.56820389" type="line"/>
      <point x="812.914187956" y="136.465111313" type="line"/>
      <point x="493.01794299" y="136.465111313" type="line"/>
      <point x="493.01794299" y="1127.47455223" type="line"/>
      <point x="618.645826831" y="1153.13011383" type="line"/>
      <point x="618.645826831" y="1292.0" type="line"/>
      <point x="55.5423548012" y="1292.0" type="line"/>
      <point x="55.5423548012" y="1153.13011383" type="line"/>
      <point x="166.265767682" y="1128.56820389" type="line"/>
      <point x="166.265767682" y="151.401627884" type="line"/>
      <point x="51.4410432922" y="131.401627884" type="line"/>
      <point x="51.4410432922" y="0.0" type="line"/>
      <point x="1041.90526082" y="0.0" type="line"/>
      <point x="1068.03184794" y="-57.1841563416"/>
      <point x="1100.54606547" y="-304.404774857"/>
      <point x="1102.7276452" y="-370.307976227" type="curve"/>
      <point x="1269.29530518" y="-370.307976227" type="line"/>
      <point x="1277.45004436" y="-336.966684799"/>
      <point x="1307.36372546" y="7.25708068848"/>
    </contour>
  </outline>
</glyph>
<glyph name="tshe-cy.sc" format="1">
  <advance width="1533.73664627"/>
  <outline>
    <contour>
      <point x="620.460819437" y="-144.0" type="move" name="mark0"/>
    </contour>
    <contour>
      <point x="762.354783539" y="666.561909943" type="curve"/>
      <point x="762.354783539" y="1149.13011383" type="line"/>
      <point x="944.057362195" y="1125.28724892" type="line"/>
      <point x="1016.09737698" y="869.782528458" type="line"/>
      <point x="1173.93871807" y="869.782528458" type="line"/>
      <point x="1143.39660191" y="1292.0" type="line"/>
      <point x="56.1139345268" y="1292.0" type="line"/>
      <point x="34.6123548012" y="869.782528458" type="line"/>
      <point x="201.699224924" y="869.782528458" type="line"/>
      <point x="251.713964101" y="1128.56820389" type="line"/>
      <point x="435.135767682" y="1151.31741714" type="line"/>
      <point x="435.135767682" y="151.588931198" type="line"/>
      <point x="246.508405487" y="130.307976227" type="line"/>
      <point x="246.508405487" y="0.0" type="line"/>
      <point x="885.801087654" y="0.0" type="line"/>
      <point x="885.801087654" y="130.307976227" type="line"/>
      <point x="762.354783539" y="151.588931198" type="line"/>
      <point x="762.354783539" y="515.317417145" type="line"/>
      <point x="797.617674773" y="538.568203888"/>
      <point x="851.886348477" y="573.849158859"/>
      <point x="937.21186273" y="573.849158859" type="curve" smooth="yes"/>
      <point x="1064.65473918" y="573.849158859"/>
      <point x="1075.71526082" y="499.6555616"/>
      <point x="1075.71526082" y="296.3444384" type="curve" smooth="yes"/>
      <point x="1075.71526082" y="149.588931198" type="line"/>
      <point x="985.455007394" y="130.307976227" type="line"/>
      <point x="985.455007394" y="0.0" type="line"/>
      <point x="1505.71242874" y="0.0" type="line"/>
      <point x="1505.71242874" y="130.307976227" type="line"/>
      <point x="1400.80506654" y="149.588931198" type="line"/>
      <point x="1400.80506654" y="364.561909943" type="line" smooth="yes"/>
      <point x="1400.80506654" y="638.966684799"/>
      <point x="1325.5495375" y="751.842864914"/>
      <point x="1035.5355734" y="751.842864914" type="curve" smooth="yes"/>
      <point x="931.557406557" y="751.842864914"/>
      <point x="840.415841618" y="716.936516571"/>
    </contour>
  </outline>
</glyph>
<glyph name="u-cy.sc" format="1">
  <advance width="1119.17213095"/>
  <outline>
    <contour>
      <point x="571.584753964" y="1287.3111232" type="move" name="top"/>
    </contour>
    <contour>
      <point x="736.594783539" y="281.311123199" type="curve"/>
      <point x="1012.00055122" y="1126.38090057" type="line"/>
      <point x="1093.07213095" y="1153.13011383" type="line"/>
      <point x="1093.07213095" y="1292.0" type="line"/>
      <point x="728.583695885" y="1292.0" type="line"/>
      <point x="728.583695885" y="1153.13011383" type="line"/>
      <point x="829.385260823" y="1128.56820389" type="line"/>
      <point x="694.258971495" y="643.993706055" type="line"/>
      <point x="658.5816093" y="512.803255768" type="line"/>
      <point x="619.579507928" y="641.993706055" type="line"/>
      <point x="467.943233388" y="1126.38090057" type="line"/>
      <point x="590.817957777" y="1153.13011383" type="line"/>
      <point x="590.817957777" y="1292.0" type="line"/>
      <point x="26.1" y="1292.0" type="line"/>
      <point x="26.1" y="1153.13011383" type="line"/>
      <point x="109.82" y="1128.56820389" type="line"/>
      <point x="443.652608231" y="264.688876801" type="line"/>
      <point x="439.346304115" y="200.996853027"/>
      <point x="411.614202744" y="185.244492798"/>
      <point x="309.507883841" y="185.244492798" type="curve" smooth="yes"/>
      <point x="268.838927133" y="185.244492798"/>
      <point x="232.646840549" y="185.057189484"/>
      <point x="192.911564938" y="184.869886169" type="curve"/>
      <point x="192.911564938" y="12.1873033142" type="line"/>
      <point x="232.227883841" y="-3.81269668579"/>
      <point x="327.484217531" y="-20.0"/>
      <point x="404.611594513" y="-20.0" type="curve" smooth="yes"/>
      <point x="607.633189026" y="-20.0"/>
      <point x="676.710566008" y="133.565056915"/>
    </contour>
  </outline>
</glyph>
<glyph name="ustraitstroke-cy.sc" format="1">
  <advance width="1155.84002957"/>
  <outline>
    <contour>
      <point x="92.9957972565" y="1292.0" type="move" name="topleft"/>
    </contour>
    <contour>
      <point x="575.995797256" y="508.060336456" type="move" name="center"/>
    </contour>
    <contour>
      <point x="575.738435062" y="0.0" type="move" name="bottom"/>
    </contour>
    <contour>
      <point x="625.343189026" y="1292.0" type="move" name="top"/>
    </contour>
    <contour>
      <point x="575.995797256" y="508.060336456" type="move" name="_center"/>
    </contour>
    <contour>
      <point x="467.078405487" y="-144.0" type="move" name="mark0"/>
    </contour>
    <contour>
      <point x="409.271028505" y="150.495279541" type="line"/>
      <point x="256.06366631" y="130.307976227" type="line"/>
      <point x="256.06366631" y="0.0" type="line"/>
      <point x="917.953203813" y="0.0" type="line"/>
      <point x="917.953203813" y="130.307976227" type="line"/>
      <point x="759.915841618" y="150.495279541" type="line"/>
      <point x="759.915841618" y="543.371459656" type="line"/>
      <point x="1039.2179282" y="1132.94281052" type="line"/>
      <point x="1129.74002957" y="1153.13011383" type="line"/>
      <point x="1129.74002957" y="1292.0" type="line"/>
      <point x="708.74" y="1292.0" type="line"/>
      <point x="708.74" y="1153.13011383" type="line"/>
      <point x="821.697362195" y="1126.38090057" type="line"/>
      <point x="691.143710672" y="764.495279541" type="line"/>
      <point x="659.36266738" y="663.304829254" type="line"/>
      <point x="628.620044362" y="764.495279541" type="line"/>
      <point x="479.680073936" y="1126.38090057" type="line"/>
      <point x="567.030059149" y="1153.13011383" type="line"/>
      <point x="567.030059149" y="1292.0" type="line"/>
      <point x="26.1" y="1292.0" type="line"/>
      <point x="26.1" y="1153.13011383" type="line"/>
      <point x="105.81894192" y="1128.7555072" type="line"/>
      <point x="409.271028505" y="541.371459656" type="line"/>
    </contour>
    <contour>
      <point x="901.996855336" y="588.120672913" type="line"/>
      <point x="254.929478354" y="588.120672913" type="line"/>
      <point x="254.929478354" y="371.504720459" type="line"/>
      <point x="901.996855336" y="371.504720459" type="line"/>
    </contour>
  </outline>
</glyph>
<glyph name="yat-cy.sc" format="1">
  <advance width="1342.56111723"/>
  <outline>
    <contour>
      <point x="730.425602976" y="712.060336456" type="curve"/>
      <point x="730.425602976" y="992.972978745" type="line"/>
      <point x="924.655051756" y="969.692023773" type="line"/>
      <point x="971.554530109" y="857.033315201" type="line"/>
      <point x="1143.52376982" y="857.033315201" type="line"/>
      <point x="1114.33429147" y="1136.21747154" type="line"/>
      <point x="730.425602976" y="1136.21747154" type="line"/>
      <point x="730.425602976" y="1292.0" type="line"/>
      <point x="863.379284074" y="1320.37460663" type="line"/>
      <point x="863.379284074" y="1451.2444928" type="line"/>
      <point x="283.237645199" y="1451.2444928" type="line"/>
      <point x="283.237645199" y="1320.37460663" type="line"/>
      <point x="403.154217531" y="1295.09365166" type="line"/>
      <point x="403.154217531" y="1136.21747154" type="line"/>
      <point x="35.3978986282" y="1136.21747154" type="line"/>
      <point x="12.8055290398" y="857.033315201" type="line"/>
      <point x="153.089493141" y="857.033315201" type="line"/>
      <point x="203.261341084" y="969.692023773" type="line"/>
      <point x="403.154217531" y="992.972978745" type="line"/>
      <point x="403.154217531" y="149.588931198" type="line"/>
      <point x="249.527898628" y="130.307976227" type="line"/>
      <point x="249.527898628" y="0.0" type="line"/>
      <point x="590.189522716" y="0.0" type="line" smooth="yes"/>
      <point x="648.044783539" y="0.0"/>
      <point x="848.836914485" y="-12.9063483429"/>
      <point x="876.516646268" y="-12.9063483429" type="curve" smooth="yes"/>
      <point x="1150.22113202" y="-12.9063483429"/>
      <point x="1309.45402325" y="128.0"/>
      <point x="1309.45402325" y="386.966684799" type="curve" smooth="yes"/>
      <point x="1309.45402325" y="585.90320137"/>
      <point x="1191.81928407" y="734.247639771"/>
      <point x="927.988762428" y="734.247639771" type="curve" smooth="yes"/>
      <point x="820.061907092" y="734.247639771"/>
      <point x="760.910863799" y="722.247639771"/>
    </contour>
    <contour>
      <point x="730.425602976" y="126.090504684" type="curve"/>
      <point x="730.425602976" y="586.314270172" type="line"/>
      <point x="752.289284074" y="594.314270172"/>
      <point x="788.171638875" y="598.501573486"/>
      <point x="828.212160521" y="598.501573486" type="curve" smooth="yes"/>
      <point x="947.605036968" y="598.501573486"/>
      <point x="985.612116159" y="492.314270172"/>
      <point x="985.612116159" y="363.123819885" type="curve" smooth="yes"/>
      <point x="985.612116159" y="228.307976227"/>
      <point x="930.6716093" y="118.839717941"/>
      <point x="784.061355871" y="118.839717941" type="curve" smooth="yes"/>
      <point x="758.567689561" y="118.839717941"/>
      <point x="746.159015857" y="117.184156342"/>
    </contour>
  </outline>
</glyph>
<glyph name="yeru-cy.sc" format="1">
  <advance width="1761.9855734"/>
  <outline>
    <contour>
      <point x="881.538181632" y="1288.40477486" type="move" name="top"/>
    </contour>
    <contour>
      <point x="493.01794299" y="769.782528458" type="curve"/>
      <point x="493.01794299" y="1128.56820389" type="line"/>
      <point x="662.434530109" y="1157.13011383" type="line"/>
      <point x="662.434530109" y="1292.0" type="line"/>
      <point x="56.5807750755" y="1292.0" type="line"/>
      <point x="56.5807750755" y="1157.13011383" type="line"/>
      <point x="165.746557545" y="1130.7555072" type="line"/>
      <point x="165.746557545" y="149.588931198" type="line"/>
      <point x="55.023144664" y="130.307976227" type="line"/>
      <point x="55.023144664" y="0.0" type="line"/>
      <point x="297.670789863" y="0.0" type="line" smooth="yes"/>
      <point x="453.125558614" y="0.0"/>
      <point x="542.500014787" y="-14.0"/>
      <point x="666.740834225" y="-14.0" type="curve" smooth="yes"/>
      <point x="893.541355871" y="-14.0"/>
      <point x="1085.49794299" y="144.217471542"/>
      <point x="1085.49794299" y="401.625393372" type="curve" smooth="yes"/>
      <point x="1085.49794299" y="630.876180115"/>
      <point x="962.828211207" y="776.157135086"/>
      <point x="690.943203813" y="776.157135086" type="curve" smooth="yes"/>
      <point x="666.954798326" y="776.157135086"/>
      <point x="499.034500535" y="770.876180115"/>
    </contour>
    <contour>
      <point x="493.01794299" y="134.839717941" type="curve"/>
      <point x="493.01794299" y="633.317417145" type="line"/>
      <point x="494.309239712" y="634.411068802"/>
      <point x="582.811355871" y="637.692023773"/>
      <point x="592.828971495" y="637.692023773" type="curve" smooth="yes"/>
      <point x="705.572369588" y="637.692023773"/>
      <point x="749.085767682" y="557.909495316"/>
      <point x="749.085767682" y="385.063483429" type="curve" smooth="yes"/>
      <point x="749.085767682" y="259.087357712"/>
      <point x="721.362637805" y="123.027021255"/>
      <point x="573.194753964" y="123.027021255" type="curve" smooth="yes"/>
      <point x="543.495036968" y="123.027021255"/>
      <point x="513.581355871" y="126.839717941"/>
    </contour>
    <contour>
      <point x="1139.91475396" y="1292.0" type="line"/>
      <point x="1139.91475396" y="1153.13011383" type="line"/>
      <point x="1254.22026822" y="1127.47455223" type="line"/>
      <point x="1254.22026822" y="151.588931198" type="line"/>
      <point x="1142.09633369" y="130.307976227" type="line"/>
      <point x="1142.09633369" y="0.0" type="line"/>
      <point x="1702.80874764" y="0.0" type="line"/>
      <point x="1702.80874764" y="128.120672913" type="line"/>
      <point x="1583.6208638" y="149.588931198" type="line"/>
      <point x="1583.6208638" y="1127.47455223" type="line"/>
      <point x="1702.80874764" y="1153.13011383" type="line"/>
      <point x="1702.80874764" y="1292.0" type="line"/>
    </contour>
  </outline>
</glyph>
<glyph name="yusbig-cy.sc" format="1">
  <advance width="1750.55846464"/>
  <outline>
    <contour>
      <point x="695.71186273" y="598.906348343" type="curve" smooth="yes"/>
      <point x="720.057883841" y="598.906348343" type="line"/>
      <point x="720.057883841" y="151.588931198" type="line"/>
      <point x="586.375514252" y="130.307976227" type="line"/>
      <point x="586.375514252" y="0.0" type="line"/>
      <point x="1172.28531997" y="0.0" type="line"/>
      <point x="1172.28531997" y="128.120672913" type="line"/>
      <point x="1033.77295038" y="151.588931198" type="line"/>
      <point x="1033.77295038" y="598.906348343" type="line"/>
      <point x="1056.5089715" y="598.906348343" type="line" smooth="yes"/>
      <point x="1237.14767477" y="598.906348343"/>
      <point x="1254.98786905" y="0.0"/>
      <point x="1388.51761562" y="0.0" type="curve" smooth="yes"/>
      <point x="1721.23846464" y="0.0" type="line"/>
      <point x="1721.23846464" y="130.307976227" type="line"/>
      <point x="1655.12372546" y="151.588931198" type="line" smooth="yes"/>
      <point x="1581.79241395" y="184.150841141"/>
      <point x="1533.56721228" y="715.90320137"/>
      <point x="1200.48426189" y="715.90320137" type="curve" smooth="yes"/>
      <point x="1082.23005915" y="715.90320137" type="line"/>
      <point x="1462.60453011" y="1177.90949532" type="line"/>
      <point x="1454.55453011" y="1292.0" type="line"/>
      <point x="298.185514252" y="1292.0" type="line"/>
      <point x="291.226304115" y="1177.90949532" type="line"/>
      <point x="669.990775076" y="715.90320137" type="line"/>
      <point x="552.827362195" y="715.90320137" type="line" smooth="yes"/>
      <point x="217.872563869" y="715.90320137"/>
      <point x="171.519210137" y="184.150841141"/>
      <point x="96.5255290398" y="151.588931198" type="curve" smooth="yes"/>
      <point x="32.5923695885" y="130.307976227" type="line"/>
      <point x="32.5923695885" y="0.0" type="line"/>
      <point x="364.794008463" y="0.0" type="line" smooth="yes"/>
      <point x="499.933755034" y="0.0"/>
      <point x="515.592369588" y="598.906348343"/>
    </contour>
    <contour>
      <point x="589.980044362" y="1098.69517075" type="line"/>
      <point x="1162.76" y="1098.69517075" type="line"/>
      <point x="874.993442455" y="713.90320137" type="line"/>
    </contour>
  </outline>
</glyph>
<glyph name="ze-cy.sc" format="1">
  <advance width="1021.94818163"/>
  <outline>
    <contour>
      <point x="511.233695885" y="1288.40477486" type="move" name="top"/>
    </contour>
    <contour>
      <point x="511.233695885" y="0.0" type="move" name="bottom"/>
    </contour>
    <contour>
      <point x="85.4036663101" y="1256.56190994" type="curve"/>
      <point x="114.645514252" y="950.815843658" type="line"/>
      <point x="289.99186273" y="950.815843658" type="line"/>
      <point x="326.088181632" y="1131.78252846" type="line"/>
      <point x="333.87633369" y="1154.09679863"/>
      <point x="365.39552904" y="1179.90949532"/>
      <point x="439.712891235" y="1179.90949532" type="curve" smooth="yes"/>
      <point x="526.386557545" y="1179.90949532"/>
      <point x="594.6783907" y="1127.75236023"/>
      <point x="595.769180563" y="998.561909943" type="curve" smooth="yes"/>
      <point x="595.769180563" y="812.936516571"/>
      <point x="517.302623018" y="750.277807999"/>
      <point x="419.044739177" y="750.277807999" type="curve" smooth="yes"/>
      <point x="339.792637805" y="750.277807999" type="line"/>
      <point x="339.792637805" y="602.501573486" type="line"/>
      <point x="431.82" y="602.501573486" type="line" smooth="yes"/>
      <point x="563.516810974" y="602.501573486"/>
      <point x="595.92180358" y="482.719045029"/>
      <point x="595.92180358" y="378.217471542" type="curve" smooth="yes"/>
      <point x="595.92180358" y="221.027021255"/>
      <point x="555.781028505" y="111.341291428"/>
      <point x="456.122623018" y="111.341291428" type="curve" smooth="yes"/>
      <point x="388.559478354" y="111.341291428"/>
      <point x="348.313964101" y="136.809549713"/>
      <point x="328.841341084" y="162.809549713" type="curve"/>
      <point x="273.89186273" y="417.80640274" type="line"/>
      <point x="113.449985213" y="417.80640274" type="line"/>
      <point x="72.4189271332" y="63.6555615997" type="line"/>
      <point x="153.337883841" y="58.0603364563"/>
      <point x="246.922876447" y="-10.0"/>
      <point x="443.037630412" y="-10.0" type="curve" smooth="yes"/>
      <point x="853.343725459" y="-10.0"/>
      <point x="967.548986282" y="150.936516571"/>
      <point x="967.548986282" y="394.404774857" type="curve" smooth="yes"/>
      <point x="967.548986282" y="562.404774857"/>
      <point x="859.00266738" y="672.719045029"/>
      <point x="662.063457243" y="682.0" type="curve"/>
      <point x="801.718986282" y="712.0"/>
      <point x="938.673725459" y="810.3444384"/>
      <point x="938.673725459" y="1009.62539337" type="curve" smooth="yes"/>
      <point x="938.673725459" y="1209.62539337"/>
      <point x="770.295558614" y="1306.0"/>
      <point x="477.061594513" y="1306.0" type="curve" smooth="yes"/>
      <point x="361.141594513" y="1306.0"/>
      <point x="149.80366631" y="1260.37460663"/>
    </contour>
  </outline>
</glyph>
<glyph name="zhe-cy.sc" format="1">
  <advance width="1701.00608026"/>
  <outline>
    <contour>
      <point x="849.957645199" y="1288.40477486" type="move" name="top"/>
    </contour>
    <contour>
      <point x="1657.19608026" y="0.0" type="move" name="bottomright"/>
    </contour>
    <contour>
      <point x="1270.54768956" y="708.465111313" type="curve"/>
      <point x="1529.38213095" y="1127.47455223" type="line"/>
      <point x="1667.06555861" y="1153.13011383" type="line"/>
      <point x="1667.06555861" y="1292.0" type="line"/>
      <point x="1214.79921014" y="1292.0" type="line"/>
      <point x="1214.79921014" y="1153.13011383" type="line"/>
      <point x="1308.74630412" y="1128.7555072" type="line"/>
      <point x="1093.64371067" y="713.90320137" type="line"/>
      <point x="1008.1655734" y="713.90320137" type="line"/>
      <point x="1008.1655734" y="1128.56820389" type="line"/>
      <point x="1130.88767477" y="1153.13011383" type="line"/>
      <point x="1130.88767477" y="1292.0" type="line"/>
      <point x="571.676035899" y="1292.0" type="line"/>
      <point x="571.676035899" y="1153.13011383" type="line"/>
      <point x="694.450506859" y="1128.56820389" type="line"/>
      <point x="694.450506859" y="713.90320137" type="line"/>
      <point x="606.790789863" y="713.90320137" type="line"/>
      <point x="391.740566008" y="1128.56820389" type="line"/>
      <point x="486.206870123" y="1153.13011383" type="line"/>
      <point x="486.206870123" y="1292.0" type="line"/>
      <point x="39.3944709602" y="1292.0" type="line"/>
      <point x="39.3944709602" y="1153.13011383" type="line"/>
      <point x="170.533159451" y="1127.47455223" type="line"/>
      <point x="429.939180563" y="708.090504684" type="line"/>
      <point x="185.258092908" y="643.746066284"/>
      <point x="134.379985213" y="183.244492798"/>
      <point x="57.7763041153" y="151.588931198" type="curve" smooth="yes"/>
      <point x="6.98499260635" y="130.307976227" type="line"/>
      <point x="6.98499260635" y="0.0" type="line"/>
      <point x="327.292682167" y="0.0" type="line" smooth="yes"/>
      <point x="462.432428738" y="0.0"/>
      <point x="489.984992606" y="598.906348343"/>
      <point x="670.104485748" y="598.906348343" type="curve" smooth="yes"/>
      <point x="694.450506859" y="598.906348343" type="line"/>
      <point x="694.450506859" y="151.588931198" type="line"/>
      <point x="560.76813727" y="130.307976227" type="line"/>
      <point x="560.76813727" y="0.0" type="line"/>
      <point x="1146.67794299" y="0.0" type="line"/>
      <point x="1146.67794299" y="128.120672913" type="line"/>
      <point x="1008.1655734" y="151.588931198" type="line"/>
      <point x="1008.1655734" y="598.906348343" type="line"/>
      <point x="1030.90159451" y="598.906348343" type="line" smooth="yes"/>
      <point x="1211.54029779" y="598.906348343"/>
      <point x="1228.75654276" y="0.0"/>
      <point x="1360.62391974" y="0.0" type="curve"/>
      <point x="1695.63108765" y="0.0" type="line"/>
      <point x="1695.63108765" y="130.307976227" type="line"/>
      <point x="1639.95740656" y="151.588931198" type="line" smooth="yes"/>
      <point x="1563.35372546" y="183.244492798"/>
      <point x="1515.22877721" y="644.120672913"/>
    </contour>
  </outline>
</glyph>
<glyph name="zhedescender-cy.sc" format="1">
  <advance width="1742.97530518"/>
  <outline>
    <contour>
      <point x="1271.0668997" y="707.184156342" type="curve"/>
      <point x="1529.38213095" y="1127.47455223" type="line"/>
      <point x="1667.06555861" y="1153.13011383" type="line"/>
      <point x="1667.06555861" y="1292.0" type="line"/>
      <point x="1214.79921014" y="1292.0" type="line"/>
      <point x="1214.79921014" y="1153.13011383" type="line"/>
      <point x="1308.74630412" y="1128.7555072" type="line"/>
      <point x="1093.64371067" y="713.90320137" type="line"/>
      <point x="1008.1655734" y="713.90320137" type="line"/>
      <point x="1008.1655734" y="1128.56820389" type="line"/>
      <point x="1130.88767477" y="1153.13011383" type="line"/>
      <point x="1130.88767477" y="1292.0" type="line"/>
      <point x="571.676035899" y="1292.0" type="line"/>
      <point x="571.676035899" y="1153.13011383" type="line"/>
      <point x="694.450506859" y="1128.56820389" type="line"/>
      <point x="694.450506859" y="713.90320137" type="line"/>
      <point x="606.790789863" y="713.90320137" type="line"/>
      <point x="391.740566008" y="1128.56820389" type="line"/>
      <point x="486.206870123" y="1153.13011383" type="line"/>
      <point x="486.206870123" y="1292.0" type="line"/>
      <point x="39.3944709602" y="1292.0" type="line"/>
      <point x="39.3944709602" y="1153.13011383" type="line"/>
      <point x="170.533159451" y="1127.47455223" type="line"/>
      <point x="429.939180563" y="708.090504684" type="line"/>
      <point x="185.258092908" y="643.746066284"/>
      <point x="144.821043292" y="184.150841141"/>
      <point x="70.9181520576" y="151.588931198" type="curve" smooth="yes"/>
      <point x="6.98499260635" y="130.307976227" type="line"/>
      <point x="6.98499260635" y="0.0" type="line"/>
      <point x="338.095841618" y="0.0" type="line" smooth="yes"/>
      <point x="474.326378052" y="0.0"/>
      <point x="489.984992606" y="598.906348343"/>
      <point x="670.104485748" y="598.906348343" type="curve" smooth="yes"/>
      <point x="694.450506859" y="598.906348343" type="line"/>
      <point x="694.450506859" y="151.588931198" type="line"/>
      <point x="560.76813727" y="130.307976227" type="line"/>
      <point x="560.76813727" y="0.0" type="line"/>
      <point x="1146.67794299" y="0.0" type="line"/>
      <point x="1146.67794299" y="128.120672913" type="line"/>
      <point x="1008.1655734" y="151.588931198" type="line"/>
      <point x="1008.1655734" y="598.906348343" type="line"/>
      <point x="1030.90159451" y="598.906348343" type="line" smooth="yes"/>
      <point x="1211.54029779" y="598.906348343"/>
      <point x="1228.28970221" y="0.0"/>
      <point x="1361.81944878" y="0.0" type="curve" smooth="yes"/>
      <point x="1465.07341288" y="0.0" type="line"/>
      <point x="1493.32921014" y="-54.6222463989"/>
      <point x="1526.46737698" y="-304.779381485"/>
      <point x="1526.46737698" y="-370.307976227" type="curve"/>
      <point x="1693.03503697" y="-370.307976227" type="line"/>
      <point x="1700.61819642" y="-334.247639771"/>
      <point x="1731.10345724" y="7.63168731689"/>
      <point x="1731.10345724" y="151.588931198" type="curve"/>
      <point x="1629.56871807" y="151.588931198" type="line"/>
      <point x="1556.23740656" y="183.401627884"/>
      <point x="1515.74798735" y="642.839717941"/>
    </contour>
  </outline>
</glyph>
